STARTFONT 2.1
COMMENT
COMMENT Converted from OpenType font "HelvXBold.otf" by "otf2bdf 3.0".
COMMENT
FONT -FreeType-Helvetica Now Display XBold-Medium-R-Normal--50-600-60-60-P-272-ISO10646-1
SIZE 60 60 60
FONTBOUNDINGBOX 82 70 -18 -17
STARTPROPERTIES 19
FOUNDRY "FreeType"
FAMILY_NAME "Helvetica Now Display XBold"
WEIGHT_NAME "Medium"
SLANT "R"
SETWIDTH_NAME "Normal"
ADD_STYLE_NAME ""
PIXEL_SIZE 50
POINT_SIZE 600
RESOLUTION_X 60
RESOLUTION_Y 60
SPACING "P"
AVERAGE_WIDTH 272
CHARSET_REGISTRY "ISO10646"
CHARSET_ENCODING "1"
FONT_ASCENT 55
FONT_DESCENT 18
COPYRIGHT "Copyright © 2019 Monotype Imaging Inc. All rights reserved."
_OTF_FONTFILE "HelvXBold.otf"
_OTF_PSNAME "HelveticaNowDisplay-XBd"
ENDPROPERTIES
CHARS 513
STARTCHAR 0000
ENCODING 0
SWIDTH 0 0
DWIDTH 0 0
BBX 0 0 0 0
BITMAP
ENDCHAR
STARTCHAR 000D
ENCODING 13
SWIDTH 240 0
DWIDTH 12 0
BBX 0 0 0 0
BITMAP
ENDCHAR
STARTCHAR 0020
ENCODING 32
SWIDTH 240 0
DWIDTH 12 0
BBX 0 0 0 0
BITMAP
ENDCHAR
STARTCHAR 0021
ENCODING 33
SWIDTH 240 0
DWIDTH 12 0
BBX 9 36 2 0
BITMAP
FF00
FF00
FF00
FF00
FF00
FF00
FF00
FF00
FF00
FF00
FF00
FF00
FF00
7F00
7F00
7E00
7E00
7E00
7E00
7E00
7E00
3E00
3C00
3C00
0000
0000
0000
FF80
FF80
FF80
FF80
FF80
FF80
FF80
FF80
FF80
ENDCHAR
STARTCHAR 0022
ENCODING 34
SWIDTH 500 0
DWIDTH 25 0
BBX 20 17 3 19
BITMAP
FF1FF0
FF1FF0
FF1FF0
FF0FE0
FF0FE0
FF0FE0
FF0FE0
FF0FE0
FE0FE0
FE0FE0
7E0FE0
7E0FE0
7E0FE0
7E0FE0
7E0FE0
7E07E0
7E07C0
ENDCHAR
STARTCHAR 0023
ENCODING 35
SWIDTH 720 0
DWIDTH 36 0
BBX 33 36 1 0
BITMAP
003F81FC00
003F81FC00
003F81FC00
007F01FC00
007F01FC00
007F01FC00
007F03F800
007F03F800
00FE03F800
0FFFFFFF80
0FFFFFFF80
1FFFFFFF80
1FFFFFFF80
1FFFFFFF00
1FFFFFFF00
01FC0FE000
01FC0FE000
01FC0FE000
03F80FE000
03F80FE000
03F81FC000
7FFFFFFE00
7FFFFFFE00
7FFFFFFC00
7FFFFFFC00
FFFFFFFC00
FFFFFFFC00
07F03F8000
0FE03F8000
0FE03F8000
0FE07F0000
0FE07F0000
0FE07F0000
1FC07F0000
1FC07F0000
1FC0FE0000
ENDCHAR
STARTCHAR 0024
ENCODING 36
SWIDTH 660 0
DWIDTH 33 0
BBX 31 48 1 -6
BITMAP
00078000
00078000
00078000
00078000
00078000
003FF000
01FFFE00
07FFFF80
0FFFFFC0
1FFFFFE0
3FFFFFF0
3FFFFFF0
7FE79FF8
7FC78FF8
7F8787F8
7F8787F8
7F8787F8
7FC78000
7FE78000
7FFF8000
3FFFE000
3FFFFE00
1FFFFF80
0FFFFFE0
07FFFFF0
01FFFFF8
003FFFF8
0007FFFC
0007BFFC
000787FC
FF0787FE
FF0783FE
FF0783FE
FF8783FC
7FC787FC
7FE78FFC
7FFFFFFC
3FFFFFF8
1FFFFFF0
0FFFFFE0
07FFFFC0
01FFFF00
003FF800
00078000
00078000
00078000
00078000
00078000
ENDCHAR
STARTCHAR 0025
ENCODING 37
SWIDTH 900 0
DWIDTH 45 0
BBX 43 38 1 -1
BITMAP
03F000000000
0FFC000F8000
3FFE000F8000
3FFF001F0000
7FFF801F0000
7E1F803E0000
FC0F803E0000
FC0F807C0000
FC0FC07C0000
FC0FC0F80000
FC0FC0F80000
FC0FC1F00000
FC0FC1F00000
FC0FC3E00000
FC0FC3E00000
FC0F87C03000
7E1F87C3FE00
7FFF8F87FF00
3FFF0F0FFF80
3FFE1F1FFFC0
1FFC3E1F8FC0
07F83E3F07E0
00007C3F07E0
00007C3E03E0
0000F83E03E0
0000F83E03E0
0001F03E03E0
0001F03E03E0
0003E03E03E0
0003E03E03E0
0007C03F07E0
0007C03F07E0
000F803F07E0
000F801FFFC0
001F001FFFC0
001E000FFF80
003E0007FF00
00000001FC00
ENDCHAR
STARTCHAR 0026
ENCODING 38
SWIDTH 720 0
DWIDTH 36 0
BBX 34 38 1 -1
BITMAP
001FE00000
00FFF80000
01FFFE0000
03FFFF0000
07FFFF0000
07FFFF8000
0FF87F8000
0FF03FC000
0FF01FC000
0FF01FC000
0FF03F8000
0FF03F8000
07F87F8000
07FCFF0000
03FFFE0000
01FFFC0000
01FFF80000
03FFF00000
0FFFC00000
1FFFE07F00
3FFFF07F00
3FEFF87F00
7FCFFCFE00
7F87FEFE00
FF83FFFE00
FF01FFFE00
FF00FFFC00
FF007FFC00
FF803FF800
FF803FF000
7FC03FF800
7FFDFFFC00
3FFFFFFE00
3FFFFFFF00
1FFFFFFF80
0FFFFCFFC0
03FFF87FC0
007FC00000
ENDCHAR
STARTCHAR 0027
ENCODING 39
SWIDTH 280 0
DWIDTH 14 0
BBX 8 17 3 19
BITMAP
FF
FF
FF
FF
FF
FF
FF
FF
FE
FE
7E
7E
7E
7E
7E
7E
7E
ENDCHAR
STARTCHAR 0028
ENCODING 40
SWIDTH 300 0
DWIDTH 15 0
BBX 13 49 2 -10
BITMAP
07F8
07F0
0FF0
0FE0
0FE0
1FE0
1FC0
3FC0
3FC0
3F80
3F80
7F80
7F80
7F80
7F80
7F00
FF00
FF00
FF00
FF00
FF00
FF00
FF00
FF00
FF00
FF00
FF00
FF00
FF00
FF00
FF00
FF00
FF00
7F00
7F80
7F80
7F80
7F80
3F80
3FC0
3FC0
3FC0
1FC0
1FE0
0FE0
0FE0
0FF0
07F0
07F8
ENDCHAR
STARTCHAR 0029
ENCODING 41
SWIDTH 300 0
DWIDTH 15 0
BBX 13 49 0 -10
BITMAP
FF00
7F00
7F00
3F80
3F80
3FC0
1FC0
1FE0
1FE0
1FE0
0FE0
0FF0
0FF0
0FF0
0FF0
07F0
07F8
07F8
07F8
07F8
07F8
07F8
07F8
07F8
07F8
07F8
07F8
07F8
07F8
07F8
07F8
07F8
07F8
07F0
0FF0
0FF0
0FF0
0FF0
0FE0
1FE0
1FE0
1FC0
1FC0
3FC0
3F80
3F80
7F80
7F00
FF00
ENDCHAR
STARTCHAR 002A
ENCODING 42
SWIDTH 460 0
DWIDTH 23 0
BBX 21 20 1 16
BITMAP
00F800
00F800
00F800
00F800
00F800
60F860
7CFBF0
7FFFF0
FFFFF0
FFFFF8
1FFFC0
03FE00
03FE00
07FF00
0FFF00
0FDF80
1F8FC0
1F0FC0
0F0700
020200
ENDCHAR
STARTCHAR 002B
ENCODING 43
SWIDTH 520 0
DWIDTH 26 0
BBX 24 23 1 6
BITMAP
007F00
007F00
007F00
007F00
007F00
007F00
007F00
007F00
FFFFFF
FFFFFF
FFFFFF
FFFFFF
FFFFFF
FFFFFF
FFFFFF
007F00
007F00
007F00
007F00
007F00
007F00
007F00
007F00
ENDCHAR
STARTCHAR 002C
ENCODING 44
SWIDTH 240 0
DWIDTH 12 0
BBX 9 18 2 -9
BITMAP
FF80
FF80
FF80
FF80
FF80
FF80
FF80
FF80
FF80
1F80
1F00
1F00
1F00
FF00
FF00
FE00
FC00
F000
ENDCHAR
STARTCHAR 002D
ENCODING 45
SWIDTH 360 0
DWIDTH 18 0
BBX 16 7 1 11
BITMAP
FFFF
FFFF
FFFF
FFFF
FFFF
FFFF
FFFF
ENDCHAR
STARTCHAR 002E
ENCODING 46
SWIDTH 240 0
DWIDTH 12 0
BBX 9 9 2 0
BITMAP
FF80
FF80
FF80
FF80
FF80
FF80
FF80
FF80
FF80
ENDCHAR
STARTCHAR 002F
ENCODING 47
SWIDTH 400 0
DWIDTH 20 0
BBX 20 36 0 0
BITMAP
0007F0
000FF0
000FE0
000FE0
001FE0
001FC0
003FC0
003FC0
003F80
007F80
007F80
007F00
00FF00
00FF00
00FE00
01FE00
01FC00
01FC00
03FC00
03F800
07F800
07F800
07F000
0FF000
0FF000
0FE000
1FE000
1FE000
1FC000
3FC000
3FC000
3F8000
7F8000
7F0000
7F0000
FF0000
ENDCHAR
STARTCHAR 0030
ENCODING 48
SWIDTH 680 0
DWIDTH 34 0
BBX 30 38 2 -1
BITMAP
001FE000
00FFFC00
03FFFF00
07FFFF80
0FFFFFC0
1FFFFFE0
3FFFFFE0
3FF87FF0
7FE01FF0
7FC01FF8
7FC00FF8
7F800FF8
FF8007F8
FF8007FC
FF8007FC
FF8007FC
FF8007FC
FF8007FC
FF8007FC
FF8007FC
FF8007FC
FF8007FC
FF8007FC
FF8007FC
FF8007FC
FF8007F8
7F800FF8
7FC00FF8
7FC00FF8
7FE01FF0
3FF87FF0
3FFFFFE0
1FFFFFE0
0FFFFFC0
07FFFF80
03FFFF00
00FFFC00
001FE000
ENDCHAR
STARTCHAR 0031
ENCODING 49
SWIDTH 420 0
DWIDTH 21 0
BBX 17 36 1 0
BITMAP
003F80
003F80
003F80
007F80
007F80
00FF80
03FF80
0FFF80
FFFF80
FFFF80
FFFF80
FFFF80
FFFF80
FFFF80
007F80
007F80
007F80
007F80
007F80
007F80
007F80
007F80
007F80
007F80
007F80
007F80
007F80
007F80
007F80
007F80
007F80
007F80
007F80
007F80
007F80
007F80
ENDCHAR
STARTCHAR 0032
ENCODING 50
SWIDTH 620 0
DWIDTH 31 0
BBX 27 37 2 0
BITMAP
007FC000
03FFF800
0FFFFE00
1FFFFF00
3FFFFF80
3FFFFF80
7FFFFFC0
7FE0FFC0
7F807FE0
FF803FE0
FF003FE0
FF003FE0
FF003FE0
00003FE0
00003FC0
00007FC0
0001FFC0
0007FF80
001FFF00
007FFE00
01FFFC00
07FFF800
0FFFE000
1FFF8000
3FFE0000
3FF80000
7FE00000
7FC00000
7F800000
FF800000
FFFFFFE0
FFFFFFE0
FFFFFFE0
FFFFFFE0
FFFFFFE0
FFFFFFE0
FFFFFFE0
ENDCHAR
STARTCHAR 0033
ENCODING 51
SWIDTH 640 0
DWIDTH 32 0
BBX 29 38 2 -1
BITMAP
007FE000
03FFFC00
07FFFF00
0FFFFF80
1FFFFFC0
3FFFFFE0
3FFFFFE0
7FE03FE0
7FC01FF0
7F801FF0
7F800FF0
7F800FE0
00001FE0
00001FE0
00007FC0
001FFF80
001FFF00
001FFE00
001FFF80
001FFFC0
001FFFE0
00007FE0
00001FF0
00001FF0
FF000FF0
FF000FF8
FF000FF8
FF000FF8
FF801FF8
FFC01FF0
7FE07FF0
7FFFFFF0
3FFFFFE0
1FFFFFC0
1FFFFF80
07FFFF00
03FFFC00
007FE000
ENDCHAR
STARTCHAR 0034
ENCODING 52
SWIDTH 660 0
DWIDTH 33 0
BBX 30 36 2 0
BITMAP
0001FF80
0003FF80
0003FF80
0007FF80
000FFF80
001FFF80
003FFF80
003FFF80
007FFF80
00FF7F80
01FE7F80
03FC7F80
03FC7F80
07F87F80
0FF07F80
1FE07F80
3FC07F80
3FC07F80
7F807F80
FF007F80
FE007F80
FFFFFFFC
FFFFFFFC
FFFFFFFC
FFFFFFFC
FFFFFFFC
FFFFFFFC
FFFFFFFC
00007F80
00007F80
00007F80
00007F80
00007F80
00007F80
00007F80
00007F80
ENDCHAR
STARTCHAR 0035
ENCODING 53
SWIDTH 620 0
DWIDTH 31 0
BBX 28 37 2 -1
BITMAP
0FFFFFC0
0FFFFFC0
1FFFFFC0
1FFFFFC0
1FFFFFC0
1FFFFFC0
1FFFFFC0
1FC00000
3FC00000
3FC00000
3FC00000
3F800000
3F878000
3FBFF800
7FFFFE00
7FFFFF00
7FFFFF80
7FFFFFC0
7FE0FFC0
7F803FE0
FF801FE0
00001FE0
00001FE0
00000FF0
00000FF0
00001FE0
FF001FE0
FF001FE0
FF803FE0
7FC07FE0
7FFFFFC0
3FFFFF80
3FFFFF80
1FFFFF00
07FFFC00
01FFF800
007FC000
ENDCHAR
STARTCHAR 0036
ENCODING 54
SWIDTH 640 0
DWIDTH 32 0
BBX 28 38 2 -1
BITMAP
003FE000
00FFFC00
03FFFE00
07FFFF00
0FFFFF80
1FFFFFC0
1FF07FE0
3FE01FE0
3FC01FE0
7F800FF0
7F800000
7F000000
FF000000
FF07F000
FF3FFE00
FF7FFF00
FFFFFF80
FFFFFFC0
FFFFFFE0
FFF07FE0
FFC03FF0
FFC01FF0
FF800FF0
FF800FF0
FF800FF0
FF800FF0
FF800FF0
7F800FF0
7F800FF0
7FC01FF0
3FE03FE0
3FFFFFE0
1FFFFFC0
0FFFFF80
0FFFFF00
03FFFE00
01FFFC00
003FE000
ENDCHAR
STARTCHAR 0037
ENCODING 55
SWIDTH 540 0
DWIDTH 27 0
BBX 25 36 1 0
BITMAP
FFFFFF80
FFFFFF80
FFFFFF80
FFFFFF80
FFFFFF80
FFFFFF80
FFFFFF80
0000FF00
0001FE00
0003FE00
0003FC00
0007F800
000FF000
000FF000
001FE000
001FC000
003FC000
007F8000
007F8000
007F8000
00FF0000
00FF0000
01FF0000
01FE0000
01FE0000
01FE0000
03FE0000
03FE0000
03FC0000
03FC0000
03FC0000
03FC0000
07FC0000
07FC0000
07FC0000
07FC0000
ENDCHAR
STARTCHAR 0038
ENCODING 56
SWIDTH 620 0
DWIDTH 31 0
BBX 29 38 1 -1
BITMAP
003FE000
01FFFC00
07FFFF00
0FFFFF80
1FFFFFC0
1FFFFFE0
3FF07FE0
3FC01FF0
3FC00FF0
3F800FF0
3F800FF0
3F800FF0
3F800FF0
3FC00FE0
1FE01FE0
1FFDFFC0
0FFFFFC0
07FFFF00
07FFFF00
0FFFFFC0
3FFFFFE0
3FF03FF0
7FC00FF0
7F800FF8
FF8007F8
FF0007F8
FF0007F8
FF8007F8
FF8007F8
FF800FF8
7FC01FF8
7FFDFFF0
3FFFFFF0
3FFFFFE0
1FFFFFC0
07FFFF80
01FFFE00
003FF000
ENDCHAR
STARTCHAR 0039
ENCODING 57
SWIDTH 640 0
DWIDTH 32 0
BBX 29 38 1 -1
BITMAP
003FE000
01FFF800
03FFFE00
0FFFFF00
1FFFFF80
1FFFFFC0
3FFFFFE0
3FE03FE0
7FC01FE0
7F801FF0
7F800FF0
7F800FF0
FF000FF8
FF000FF8
7F800FF8
7F800FF8
7FC01FF8
7FC03FF8
3FF07FF8
3FFFFFF8
1FFFFFF8
0FFFFFF8
07FFF7F8
03FFE7F8
007F07F8
000007F0
000007F0
00000FF0
7F800FF0
7F801FE0
3FC03FE0
3FF07FC0
1FFFFFC0
1FFFFF80
0FFFFF00
03FFFE00
01FFF800
003FE000
ENDCHAR
STARTCHAR 003A
ENCODING 58
SWIDTH 240 0
DWIDTH 12 0
BBX 9 25 2 0
BITMAP
FF80
FF80
FF80
FF80
FF80
FF80
FF80
FF80
FF80
0000
0000
0000
0000
0000
0000
0000
FF80
FF80
FF80
FF80
FF80
FF80
FF80
FF80
FF80
ENDCHAR
STARTCHAR 003B
ENCODING 59
SWIDTH 240 0
DWIDTH 12 0
BBX 9 34 2 -9
BITMAP
FF80
FF80
FF80
FF80
FF80
FF80
FF80
FF80
FF80
0000
0000
0000
0000
0000
0000
0000
FF80
FF80
FF80
FF80
FF80
FF80
FF80
FF80
FF80
1F80
1F00
1F00
1F00
FF00
FF00
FE00
FC00
F000
ENDCHAR
STARTCHAR 003C
ENCODING 60
SWIDTH 520 0
DWIDTH 26 0
BBX 24 26 1 5
BITMAP
000001
00000F
00003F
0001FF
000FFF
003FFF
01FFFF
07FFFF
3FFFFC
FFFFE0
FFFF00
FFF800
FFC000
FF8000
FFF800
FFFF00
FFFFE0
3FFFFC
07FFFF
01FFFF
003FFF
000FFF
0001FF
00007F
00000F
000001
ENDCHAR
STARTCHAR 003D
ENCODING 61
SWIDTH 520 0
DWIDTH 26 0
BBX 24 16 1 10
BITMAP
FFFFFF
FFFFFF
FFFFFF
FFFFFF
FFFFFF
FFFFFF
000000
000000
000000
000000
FFFFFF
FFFFFF
FFFFFF
FFFFFF
FFFFFF
FFFFFF
ENDCHAR
STARTCHAR 003E
ENCODING 62
SWIDTH 520 0
DWIDTH 26 0
BBX 24 26 1 5
BITMAP
C00000
F00000
FE0000
FF8000
FFF000
FFFE00
FFFF80
FFFFF0
3FFFFC
07FFFF
00FFFF
001FFF
0001FF
0001FF
000FFF
00FFFF
07FFFF
1FFFFC
FFFFF0
FFFF80
FFFE00
FFF000
FF8000
FE0000
F00000
C00000
ENDCHAR
STARTCHAR 003F
ENCODING 63
SWIDTH 540 0
DWIDTH 27 0
BBX 25 37 1 0
BITMAP
00FFC000
07FFF000
0FFFFC00
1FFFFE00
3FFFFF00
7FFFFF80
7FFFFF80
FF80FF80
FF007F80
FF007F80
FF007F80
FF007F80
0000FF80
0001FF80
0003FF00
0007FE00
001FFC00
003FF800
003FF000
007FE000
007FC000
007F8000
00FF0000
00FF0000
00FF0000
00000000
00000000
00000000
00FF8000
00FF8000
00FF8000
00FF8000
00FF8000
00FF8000
00FF8000
00FF8000
00FF8000
ENDCHAR
STARTCHAR 0040
ENCODING 64
SWIDTH 920 0
DWIDTH 46 0
BBX 44 43 1 -6
BITMAP
00007FE00000
0007FFFE0000
001FFFFF8000
007FFFFFE000
00FFFFFFF800
01FFC03FFC00
03FE0003FE00
07F80000FF00
0FF000007F80
1FC000003F80
1FC07C001FC0
3F81FF3F0FC0
3F03FFBF07E0
3F07FFFF07E0
7E0FFFFF07E0
7E0FFFFF03F0
7C1FE0FF03F0
FC1FC07F03F0
FC1FC07F03F0
FC1FC03F03F0
FC1FC03F03F0
FC1FC03F03F0
FC1FC03F03F0
FC1FC07F03E0
FC1FC07F07E0
FC1FE07F87E0
7C0FF0FF8FE0
7E0FFFFFFFC0
7E0FFFFFFF80
7E07FFDFFF80
3F03FF8FFF00
3F80FF07FC00
1F801800F000
1FC000000000
0FE000000000
07F800000000
03FC00008000
01FF80078000
00FFFFFF8000
007FFFFF8000
001FFFFF8000
0007FFFF0000
00007FF00000
ENDCHAR
STARTCHAR 0041
ENCODING 65
SWIDTH 740 0
DWIDTH 37 0
BBX 36 36 0 0
BITMAP
0007FE0000
0007FF0000
000FFF0000
000FFF0000
001FFF8000
001FFF8000
001FFFC000
003FFFC000
003FFFC000
003F9FE000
007F9FE000
007F9FE000
007F0FF000
00FF0FF000
00FF0FF800
01FE07F800
01FE07F800
01FE07FC00
03FC03FC00
03FC03FC00
03FC03FE00
07FC01FE00
07F801FF00
07FFFFFF00
0FFFFFFF00
0FFFFFFF80
1FFFFFFF80
1FFFFFFF80
1FFFFFFFC0
3FFFFFFFC0
3FE0003FE0
3FC0003FE0
7FC0003FE0
7F80001FF0
7F80001FF0
FF80001FF0
ENDCHAR
STARTCHAR 0042
ENCODING 66
SWIDTH 680 0
DWIDTH 34 0
BBX 30 36 3 0
BITMAP
FFFFF800
FFFFFF00
FFFFFF80
FFFFFFE0
FFFFFFE0
FFFFFFF0
FFFFFFF0
FF001FF0
FF000FF8
FF000FF8
FF000FF0
FF000FF0
FF000FF0
FF001FF0
FF007FE0
FFFFFFC0
FFFFFF80
FFFFFF80
FFFFFFE0
FFFFFFF0
FFFFFFF0
FF001FF8
FF000FF8
FF0007FC
FF0007FC
FF0007FC
FF0007FC
FF0007FC
FF000FFC
FFFFFFF8
FFFFFFF8
FFFFFFF0
FFFFFFF0
FFFFFFC0
FFFFFF80
FFFFFC00
ENDCHAR
STARTCHAR 0043
ENCODING 67
SWIDTH 740 0
DWIDTH 37 0
BBX 35 38 1 -1
BITMAP
0007FC0000
003FFFC000
00FFFFF000
01FFFFF800
07FFFFFC00
07FFFFFE00
0FFFFFFF00
1FFF1FFF80
3FF801FF80
3FF000FFC0
3FE0007FC0
7FE0007FC0
7FC0003FE0
7FC0003FE0
7F80000000
FF80000000
FF80000000
FF80000000
FF80000000
FF80000000
FF80000000
FF80000000
FF80000000
7F80003FE0
7FC0003FE0
7FC0003FC0
7FE0007FC0
3FE0007FC0
3FF000FFC0
1FF803FF80
1FFF1FFF80
0FFFFFFF00
07FFFFFE00
03FFFFFC00
01FFFFF800
00FFFFF000
003FFFC000
0007FE0000
ENDCHAR
STARTCHAR 0044
ENCODING 68
SWIDTH 740 0
DWIDTH 37 0
BBX 32 36 3 0
BITMAP
FFFFE000
FFFFFE00
FFFFFF80
FFFFFFC0
FFFFFFF0
FFFFFFF0
FFFFFFF8
FF007FFC
FF000FFC
FF0007FE
FF0003FE
FF0003FF
FF0001FF
FF0001FF
FF0001FF
FF0001FF
FF0000FF
FF0000FF
FF0000FF
FF0000FF
FF0000FF
FF0001FF
FF0001FF
FF0001FF
FF0003FF
FF0003FE
FF0007FE
FF001FFC
FF007FFC
FFFFFFF8
FFFFFFF0
FFFFFFF0
FFFFFFC0
FFFFFF80
FFFFFE00
FFFFE000
ENDCHAR
STARTCHAR 0045
ENCODING 69
SWIDTH 620 0
DWIDTH 31 0
BBX 27 36 3 0
BITMAP
FFFFFFE0
FFFFFFE0
FFFFFFE0
FFFFFFE0
FFFFFFE0
FFFFFFE0
FFFFFFE0
FFFFFFE0
FF000000
FF000000
FF000000
FF000000
FF000000
FF000000
FF000000
FFFFFF80
FFFFFF80
FFFFFF80
FFFFFF80
FFFFFF80
FFFFFF80
FFFFFF80
FF000000
FF000000
FF000000
FF000000
FF000000
FF000000
FFFFFFE0
FFFFFFE0
FFFFFFE0
FFFFFFE0
FFFFFFE0
FFFFFFE0
FFFFFFE0
FFFFFFE0
ENDCHAR
STARTCHAR 0046
ENCODING 70
SWIDTH 600 0
DWIDTH 30 0
BBX 26 36 3 0
BITMAP
FFFFFFC0
FFFFFFC0
FFFFFFC0
FFFFFFC0
FFFFFFC0
FFFFFFC0
FFFFFFC0
FFFFFFC0
FF000000
FF000000
FF000000
FF000000
FF000000
FF000000
FF000000
FFFFFF80
FFFFFF80
FFFFFF80
FFFFFF80
FFFFFF80
FFFFFF80
FFFFFF80
FF000000
FF000000
FF000000
FF000000
FF000000
FF000000
FF000000
FF000000
FF000000
FF000000
FF000000
FF000000
FF000000
FF000000
ENDCHAR
STARTCHAR 0047
ENCODING 71
SWIDTH 780 0
DWIDTH 39 0
BBX 36 38 1 -1
BITMAP
0007FE0000
003FFFC000
00FFFFF000
01FFFFFC00
03FFFFFE00
07FFFFFF00
0FFFFFFF80
1FFF8FFF80
1FFC01FFC0
3FF000FFC0
3FE0007FE0
7FE0003FE0
7FC0003FE0
7FC0000000
7FC0000000
FF80000000
FF80000000
FF801FFFF0
FF801FFFF0
FF801FFFF0
FF801FFFF0
FF801FFFF0
FF801FFFF0
7FC01FFFF0
7FC0001FF0
7FC0001FF0
7FE0003FF0
3FF0003FF0
3FF0007FF0
3FFC01FFF0
1FFF07FFF0
0FFFFFFFF0
0FFFFFFFF0
07FFFFF7F0
03FFFFE7F0
00FFFFC7F0
003FFF03F0
0007F80000
ENDCHAR
STARTCHAR 0048
ENCODING 72
SWIDTH 740 0
DWIDTH 37 0
BBX 31 36 3 0
BITMAP
FF0003FE
FF0003FE
FF0003FE
FF0003FE
FF0003FE
FF0003FE
FF0003FE
FF0003FE
FF0003FE
FF0003FE
FF0003FE
FF0003FE
FF0003FE
FF0003FE
FFFFFFFE
FFFFFFFE
FFFFFFFE
FFFFFFFE
FFFFFFFE
FFFFFFFE
FFFFFFFE
FFFFFFFE
FF0003FE
FF0003FE
FF0003FE
FF0003FE
FF0003FE
FF0003FE
FF0003FE
FF0003FE
FF0003FE
FF0003FE
FF0003FE
FF0003FE
FF0003FE
FF0003FE
ENDCHAR
STARTCHAR 0049
ENCODING 73
SWIDTH 280 0
DWIDTH 14 0
BBX 8 36 3 0
BITMAP
FF
FF
FF
FF
FF
FF
FF
FF
FF
FF
FF
FF
FF
FF
FF
FF
FF
FF
FF
FF
FF
FF
FF
FF
FF
FF
FF
FF
FF
FF
FF
FF
FF
FF
FF
FF
ENDCHAR
STARTCHAR 004A
ENCODING 74
SWIDTH 560 0
DWIDTH 28 0
BBX 25 37 1 -1
BITMAP
00007F80
00007F80
00007F80
00007F80
00007F80
00007F80
00007F80
00007F80
00007F80
00007F80
00007F80
00007F80
00007F80
00007F80
00007F80
00007F80
00007F80
00007F80
00007F80
00007F80
00007F80
00007F80
00007F80
FF007F80
FF007F80
FF007F80
FF007F80
FF80FF80
FF80FF80
7FC3FF80
7FFFFF00
3FFFFF00
3FFFFE00
1FFFFC00
0FFFF800
03FFF000
00FF8000
ENDCHAR
STARTCHAR 004B
ENCODING 75
SWIDTH 720 0
DWIDTH 36 0
BBX 33 36 3 0
BITMAP
FF0003FF80
FF0007FF00
FF0007FE00
FF000FFC00
FF001FF800
FF003FF000
FF007FE000
FF00FFC000
FF01FF8000
FF03FF0000
FF07FE0000
FF0FFC0000
FF1FF80000
FF3FF00000
FF7FE00000
FFFFE00000
FFFFF00000
FFFFF80000
FFFFF80000
FFFFFC0000
FFFFFE0000
FFF3FE0000
FFE3FF0000
FFC1FF8000
FF80FF8000
FF00FFC000
FF007FE000
FF003FF000
FF003FF000
FF001FF800
FF000FFC00
FF000FFC00
FF0007FE00
FF0003FF00
FF0003FF00
FF0001FF80
ENDCHAR
STARTCHAR 004C
ENCODING 76
SWIDTH 560 0
DWIDTH 28 0
BBX 24 36 3 0
BITMAP
FF0000
FF0000
FF0000
FF0000
FF0000
FF0000
FF0000
FF0000
FF0000
FF0000
FF0000
FF0000
FF0000
FF0000
FF0000
FF0000
FF0000
FF0000
FF0000
FF0000
FF0000
FF0000
FF0000
FF0000
FF0000
FF0000
FF0000
FF0000
FFFFFF
FFFFFF
FFFFFF
FFFFFF
FFFFFF
FFFFFF
FFFFFF
FFFFFF
ENDCHAR
STARTCHAR 004D
ENCODING 77
SWIDTH 900 0
DWIDTH 45 0
BBX 39 36 3 0
BITMAP
FFF8003FFE
FFF8003FFE
FFF8003FFE
FFF8007FFE
FFFC007FFE
FFFC007FFE
FFFC007FFE
FFFE00FFFE
FFFE00FFFE
FFFE00FFFE
FFFF01FFFE
FFFF01FDFE
FF7F01FDFE
FF7F03FDFE
FF7F83FDFE
FF3F83F9FE
FF3F83F9FE
FF3FC7F9FE
FF1FC7F1FE
FF1FC7F1FE
FF1FCFF1FE
FF1FEFE1FE
FF0FEFE1FE
FF0FEFE1FE
FF0FFFC1FE
FF07FFC1FE
FF07FFC1FE
FF07FFC1FE
FF03FF81FE
FF03FF81FE
FF03FF81FE
FF01FF01FE
FF01FF01FE
FF01FF01FE
FF00FE01FE
FF00FE01FE
ENDCHAR
STARTCHAR 004E
ENCODING 78
SWIDTH 740 0
DWIDTH 37 0
BBX 31 36 3 0
BITMAP
FF8001FE
FFC001FE
FFC001FE
FFE001FE
FFF001FE
FFF001FE
FFF801FE
FFF801FE
FFFC01FE
FFFE01FE
FFFE01FE
FFFF01FE
FFFF01FE
FFFF81FE
FF7FC1FE
FF7FC1FE
FF3FE1FE
FF1FE1FE
FF1FF1FE
FF0FF9FE
FF0FF9FE
FF07FDFE
FF03FDFE
FF03FFFE
FF01FFFE
FF01FFFE
FF00FFFE
FF007FFE
FF007FFE
FF003FFE
FF003FFE
FF001FFE
FF000FFE
FF000FFE
FF0007FE
FF0007FE
ENDCHAR
STARTCHAR 004F
ENCODING 79
SWIDTH 780 0
DWIDTH 39 0
BBX 37 38 1 -1
BITMAP
0003FE0000
001FFFC000
007FFFF000
01FFFFFC00
03FFFFFE00
07FFFFFF00
0FFFFFFF80
1FFF8FFF80
1FFC01FFC0
3FF800FFE0
3FF0007FE0
7FE0003FE0
7FC0001FF0
7FC0001FF0
7FC0001FF0
FF80000FF0
FF80000FF8
FF80000FF8
FF80000FF8
FF80000FF8
FF80000FF8
FF80000FF8
FF80000FF0
7FC0001FF0
7FC0001FF0
7FC0001FF0
7FE0003FE0
3FF0007FE0
3FF000FFE0
1FFC01FFC0
1FFF8FFFC0
0FFFFFFF80
07FFFFFF00
03FFFFFE00
01FFFFFC00
00FFFFF000
003FFFC000
0003FE0000
ENDCHAR
STARTCHAR 0050
ENCODING 80
SWIDTH 660 0
DWIDTH 33 0
BBX 29 36 3 0
BITMAP
FFFFF000
FFFFFE00
FFFFFF80
FFFFFFC0
FFFFFFE0
FFFFFFE0
FFFFFFF0
FF003FF0
FF001FF8
FF000FF8
FF000FF8
FF0007F8
FF0007F8
FF000FF8
FF000FF8
FF001FF8
FF003FF0
FFFFFFF0
FFFFFFE0
FFFFFFE0
FFFFFFC0
FFFFFF80
FFFFFE00
FFFFF800
FF000000
FF000000
FF000000
FF000000
FF000000
FF000000
FF000000
FF000000
FF000000
FF000000
FF000000
FF000000
ENDCHAR
STARTCHAR 0051
ENCODING 81
SWIDTH 780 0
DWIDTH 39 0
BBX 37 41 1 -4
BITMAP
0003FE0000
001FFFC000
007FFFF000
01FFFFFC00
03FFFFFE00
07FFFFFF00
0FFFFFFF80
1FFF8FFF80
1FFC01FFC0
3FF800FFE0
3FF0007FE0
7FE0003FE0
7FC0001FF0
7FC0001FF0
7FC0001FF0
FF80000FF0
FF80000FF8
FF80000FF8
FF80000FF8
FF80000FF8
FF80000FF8
FF80000FF8
FF80020FF0
7FC0071FF0
7FC00F9FF0
7FC01F9FF0
7FE01FFFF0
3FE00FFFE0
3FF00FFFE0
1FFC07FFC0
1FFF8FFFC0
0FFFFFFF80
07FFFFFF00
03FFFFFF80
01FFFFFFC0
00FFFFFFE0
003FFFCFE0
0003FE07E0
00000007C0
0000000380
0000000100
ENDCHAR
STARTCHAR 0052
ENCODING 82
SWIDTH 680 0
DWIDTH 34 0
BBX 30 36 3 0
BITMAP
FFFFF800
FFFFFF00
FFFFFFC0
FFFFFFE0
FFFFFFF0
FFFFFFF0
FFFFFFF8
FF001FF8
FF000FF8
FF000FF8
FF0007F8
FF0007F8
FF0007F8
FF000FF8
FF000FF8
FF001FF0
FF007FF0
FFFFFFE0
FFFFFF80
FFFFFF00
FFFFFFC0
FFFFFFE0
FFFFFFF0
FF003FF0
FF001FF0
FF000FF8
FF000FF8
FF000FF8
FF000FF8
FF000FF8
FF000FF8
FF000FF8
FF000FF8
FF0007F8
FF0007F8
FF0007FC
ENDCHAR
STARTCHAR 0053
ENCODING 83
SWIDTH 660 0
DWIDTH 33 0
BBX 31 38 1 -1
BITMAP
003FF000
01FFFE00
07FFFF80
0FFFFFC0
1FFFFFE0
3FFFFFF0
3FFFFFF0
7FE01FF8
7FC00FF8
7F8007F8
7F8007F8
7F8007F8
7FC00000
7FE00000
7FFC0000
3FFFE000
3FFFFE00
1FFFFF80
0FFFFFE0
07FFFFF0
01FFFFF8
007FFFF8
0003FFFC
00003FFC
000007FC
FF0003FE
FF0003FE
FF0003FE
FF8003FC
7F8007FC
7FE00FFC
7FFFFFFC
3FFFFFF8
1FFFFFF0
0FFFFFE0
07FFFFC0
01FFFF00
003FF800
ENDCHAR
STARTCHAR 0054
ENCODING 84
SWIDTH 640 0
DWIDTH 32 0
BBX 30 36 1 0
BITMAP
FFFFFFFC
FFFFFFFC
FFFFFFFC
FFFFFFFC
FFFFFFFC
FFFFFFFC
FFFFFFFC
FFFFFFFC
001FE000
001FE000
001FE000
001FE000
001FE000
001FE000
001FE000
001FE000
001FE000
001FE000
001FE000
001FE000
001FE000
001FE000
001FE000
001FE000
001FE000
001FE000
001FE000
001FE000
001FE000
001FE000
001FE000
001FE000
001FE000
001FE000
001FE000
001FE000
ENDCHAR
STARTCHAR 0055
ENCODING 85
SWIDTH 700 0
DWIDTH 35 0
BBX 31 37 2 -1
BITMAP
FF8001FE
FF8001FE
FF8001FE
FF8001FE
FF8001FE
FF8001FE
FF8001FE
FF8001FE
FF8001FE
FF8001FE
FF8001FE
FF8001FE
FF8001FE
FF8001FE
FF8001FE
FF8001FE
FF8001FE
FF8001FE
FF8001FE
FF8001FE
FF8001FE
FF8001FE
FF8001FE
FF8001FE
FF8003FE
FF8003FE
7F8003FE
7FC007FC
7FE00FFC
3FFC7FFC
3FFFFFF8
1FFFFFF8
0FFFFFF0
07FFFFE0
03FFFF80
00FFFF00
001FF800
ENDCHAR
STARTCHAR 0056
ENCODING 86
SWIDTH 700 0
DWIDTH 35 0
BBX 35 36 0 0
BITMAP
FF80003FE0
7FC0003FE0
7FC0003FC0
7FC0007FC0
3FE0007FC0
3FE0007F80
3FE000FF80
1FF000FF80
1FF000FF00
1FF000FF00
0FF801FF00
0FF801FE00
0FF801FE00
07F803FE00
07FC03FC00
03FC03FC00
03FC07FC00
03FE07F800
01FE07F800
01FE0FF800
01FF0FF000
00FF0FF000
00FF1FF000
00FF9FE000
007F9FE000
007F9FC000
007FBFC000
003FFFC000
003FFF8000
001FFF8000
001FFF8000
001FFF0000
000FFF0000
000FFF0000
000FFE0000
0007FE0000
ENDCHAR
STARTCHAR 0057
ENCODING 87
SWIDTH 1000 0
DWIDTH 50 0
BBX 50 36 0 0
BITMAP
FF800FF8007FC0
FF800FF800FF80
7F800FFC00FF80
7FC00FFC00FF80
7FC00FFC00FF00
7FC01FFC00FF00
3FC01FFE01FF00
3FE01FFE01FF00
3FE01FFE01FE00
1FE03FFE01FE00
1FE03FFE03FE00
1FF03FFF03FE00
1FF03F7F03FC00
0FF07F7F03FC00
0FF07F3F07FC00
0FF87F3F87F800
0FF87F3F87F800
07F87E3F87F800
07F8FE3F8FF800
07F8FE1F8FF000
03FCFE1FCFF000
03FCFE1FCFF000
03FCFC1FCFF000
03FDFC0FDFE000
01FFFC0FDFE000
01FFFC0FDFE000
01FFF80FFFC000
01FFF80FFFC000
00FFF807FFC000
00FFF807FFC000
00FFF007FF8000
007FF007FF8000
007FF003FF8000
007FF003FF8000
007FF003FF0000
003FE003FF0000
ENDCHAR
STARTCHAR 0058
ENCODING 88
SWIDTH 680 0
DWIDTH 34 0
BBX 34 36 0 0
BITMAP
7FE000FF80
3FE001FF80
3FF001FF00
1FF803FE00
0FF807FE00
0FFC07FC00
07FE0FF800
03FE1FF800
03FF1FF000
01FFBFE000
00FFBFE000
00FFFFC000
007FFF8000
003FFF8000
003FFF0000
001FFE0000
000FFE0000
000FFC0000
000FFE0000
001FFE0000
003FFF0000
003FFF8000
007FFF8000
00FFFFC000
00FFFFE000
01FF3FE000
03FF3FF000
03FE1FF800
07FC0FF800
0FFC0FFC00
0FF807FE00
1FF803FE00
3FF003FF00
3FE001FF80
7FE000FF80
FFC000FFC0
ENDCHAR
STARTCHAR 0059
ENCODING 89
SWIDTH 700 0
DWIDTH 35 0
BBX 35 36 0 0
BITMAP
FFC0007FE0
7FC0007FC0
7FE000FFC0
3FF000FF80
1FF001FF00
1FF803FF00
0FF803FE00
07FC07FE00
07FC07FC00
03FE0FF800
03FF0FF800
01FF1FF000
00FF9FF000
00FFBFE000
007FFFC000
007FFFC000
003FFF8000
001FFF8000
001FFF0000
000FFE0000
000FFE0000
0007FC0000
0007FC0000
0007FC0000
0007FC0000
0007FC0000
0007FC0000
0007FC0000
0007FC0000
0007FC0000
0007FC0000
0007FC0000
0007FC0000
0007FC0000
0007FC0000
0007FC0000
ENDCHAR
STARTCHAR 005A
ENCODING 90
SWIDTH 640 0
DWIDTH 32 0
BBX 30 36 1 0
BITMAP
7FFFFFFC
7FFFFFFC
7FFFFFFC
7FFFFFFC
7FFFFFFC
7FFFFFFC
7FFFFFFC
7FFC9FF8
00003FF0
00007FE0
0000FFC0
0001FFC0
0003FF80
0007FF00
0007FE00
000FFC00
001FF800
003FF800
007FF000
00FFE000
00FFC000
01FF8000
03FF0000
07FF0000
0FFE0000
1FFC0000
1FF80000
3FF00000
7FE0FFFC
FFFFFFFC
FFFFFFFC
FFFFFFFC
FFFFFFFC
FFFFFFFC
FFFFFFFC
FFFFFFFC
ENDCHAR
STARTCHAR 005B
ENCODING 91
SWIDTH 360 0
DWIDTH 18 0
BBX 15 50 3 -10
BITMAP
FFFE
FFFE
FFFE
FFFE
FFFE
FFFE
FFFE
FE00
FE00
FE00
FE00
FE00
FE00
FE00
FE00
FE00
FE00
FE00
FE00
FE00
FE00
FE00
FE00
FE00
FE00
FE00
FE00
FE00
FE00
FE00
FE00
FE00
FE00
FE00
FE00
FE00
FE00
FE00
FE00
FE00
FE00
FE00
FE00
FFFE
FFFE
FFFE
FFFE
FFFE
FFFE
FFFE
ENDCHAR
STARTCHAR 005C
ENCODING 92
SWIDTH 400 0
DWIDTH 20 0
BBX 20 36 0 0
BITMAP
FF0000
7F0000
7F0000
7F8000
3F8000
3FC000
3FC000
1FC000
1FE000
1FE000
0FE000
0FF000
0FF000
07F000
07F800
07F800
03F800
03FC00
01FC00
01FC00
01FE00
00FE00
00FF00
00FF00
007F00
007F80
007F80
003F80
003FC0
003FC0
001FC0
001FE0
001FE0
000FE0
000FF0
0007F0
ENDCHAR
STARTCHAR 005D
ENCODING 93
SWIDTH 360 0
DWIDTH 18 0
BBX 15 50 1 -10
BITMAP
FFFE
FFFE
FFFE
FFFE
FFFE
FFFE
FFFE
01FE
01FE
01FE
01FE
01FE
01FE
01FE
01FE
01FE
01FE
01FE
01FE
01FE
01FE
01FE
01FE
01FE
01FE
01FE
01FE
01FE
01FE
01FE
01FE
01FE
01FE
01FE
01FE
01FE
01FE
01FE
01FE
01FE
01FE
01FE
01FE
FFFE
FFFE
FFFE
FFFE
FFFE
FFFE
FFFE
ENDCHAR
STARTCHAR 005E
ENCODING 94
SWIDTH 420 0
DWIDTH 21 0
BBX 21 15 0 21
BITMAP
01FE00
03FE00
03FF00
07FF00
07FF00
0FFF80
0FDF80
0FDFC0
1FCFC0
1F8FE0
3F87E0
3F07F0
7F07F0
7F03F8
FE03F8
ENDCHAR
STARTCHAR 005F
ENCODING 95
SWIDTH 500 0
DWIDTH 25 0
BBX 25 6 0 -9
BITMAP
FFFFFF80
FFFFFF80
FFFFFF80
FFFFFF80
FFFFFF80
FFFFFF80
ENDCHAR
STARTCHAR 0060
ENCODING 96
SWIDTH 400 0
DWIDTH 20 0
BBX 12 7 4 30
BITMAP
FF00
7F80
3FC0
1FC0
0FE0
07E0
03F0
ENDCHAR
STARTCHAR 0061
ENCODING 97
SWIDTH 560 0
DWIDTH 28 0
BBX 26 28 1 -1
BITMAP
007FC000
03FFF800
0FFFFE00
1FFFFF00
3FFFFF00
3FFFFF80
3FC07F80
7F807F80
7F807F80
00007F80
0000FF80
00FFFF80
0FFFFF80
1FFFFF80
3FFFFF80
7FFFFF80
FFE07F80
FF807F80
FF007F80
FF007F80
FF00FF80
FF00FF80
FFC7FF80
7FFFFF80
7FFFFF80
3FFFBF80
1FFE3FC0
03F80000
ENDCHAR
STARTCHAR 0062
ENCODING 98
SWIDTH 600 0
DWIDTH 30 0
BBX 27 37 2 -1
BITMAP
FF000000
FF000000
FF000000
FF000000
FF000000
FF000000
FF000000
FF000000
FF000000
FF0FE000
FF3FF800
FF7FFE00
FFFFFF00
FFFFFF00
FFFFFF80
FFF1FFC0
FFC07FC0
FF803FC0
FF803FC0
FF001FE0
FF001FE0
FF001FE0
FF001FE0
FF001FE0
FF001FE0
FF001FE0
FF001FE0
FF803FC0
FF803FC0
FFC07FC0
FFF1FFC0
FFFFFF80
FFFFFF00
FFFFFF00
FF7FFE00
FF3FF800
000FE000
ENDCHAR
STARTCHAR 0063
ENCODING 99
SWIDTH 560 0
DWIDTH 28 0
BBX 26 28 1 -1
BITMAP
007F8000
01FFF000
07FFFC00
0FFFFE00
1FFFFF00
3FFFFF00
3FFBFF80
7FC07F80
7F803FC0
7F803FC0
FF003FC0
FF000000
FF000000
FF000000
FF000000
FF000000
FF000000
FF803FC0
7F803FC0
7F803FC0
7FC07F80
3FFBFF80
3FFFFF00
1FFFFF00
0FFFFE00
07FFFC00
01FFF000
007FC000
ENDCHAR
STARTCHAR 0064
ENCODING 100
SWIDTH 600 0
DWIDTH 30 0
BBX 27 37 1 -1
BITMAP
00001FE0
00001FE0
00001FE0
00001FE0
00001FE0
00001FE0
00001FE0
00001FE0
00001FE0
00FE1FE0
03FF9FE0
0FFFDFE0
1FFFFFE0
1FFFFFE0
3FFFFFE0
3FF1FFE0
7FC07FE0
7F803FE0
7F803FE0
FF801FE0
FF001FE0
FF001FE0
FF001FE0
FF001FE0
FF001FE0
FF001FE0
FF001FE0
7F803FE0
7F803FE0
7FC07FE0
3FF1FFE0
3FFFFFE0
1FFFFFE0
1FFFFFE0
0FFFDFE0
03FF9FE0
00FE0000
ENDCHAR
STARTCHAR 0065
ENCODING 101
SWIDTH 580 0
DWIDTH 29 0
BBX 27 28 1 -1
BITMAP
007F8000
01FFF000
07FFFC00
0FFFFE00
1FFFFF00
3FFFFF00
3FC0FF80
7F803F80
7F803FC0
7F001FC0
FF001FC0
FFFFFFE0
FFFFFFE0
FFFFFFE0
FFFFFFE0
FFFFFFE0
FF000000
7F000000
7F000000
7F803FC0
7FC03FC0
3FE07F80
1FFFFF80
1FFFFF00
0FFFFE00
07FFFC00
01FFF000
007FC000
ENDCHAR
STARTCHAR 0066
ENCODING 102
SWIDTH 360 0
DWIDTH 18 0
BBX 16 36 1 0
BITMAP
007F
01FF
07FF
07FF
0FFF
0FFF
0FF0
1FE0
1FE0
1FE0
FFFF
FFFF
FFFF
FFFF
FFFF
FFFF
1FE0
1FE0
1FE0
1FE0
1FE0
1FE0
1FE0
1FE0
1FE0
1FE0
1FE0
1FE0
1FE0
1FE0
1FE0
1FE0
1FE0
1FE0
1FE0
1FE0
ENDCHAR
STARTCHAR 0067
ENCODING 103
SWIDTH 600 0
DWIDTH 30 0
BBX 27 37 1 -10
BITMAP
00FE0000
03FF9FE0
0FFFDFE0
1FFFFFE0
1FFFFFE0
3FFFFFE0
7FF1FFE0
7FC07FE0
7F803FE0
FF801FE0
FF001FE0
FF001FE0
FF001FE0
FF001FE0
FF001FE0
FF001FE0
7F801FE0
7F803FE0
7FC07FE0
7FF1FFE0
3FFFFFE0
1FFFFFE0
1FFFFFE0
0FFFDFE0
03FF9FE0
00FE1FE0
00001FE0
00001FE0
7F801FC0
7F803FC0
3FE07FC0
3FFFFF80
1FFFFF80
0FFFFF00
07FFFE00
03FFF800
007FC000
ENDCHAR
STARTCHAR 0068
ENCODING 104
SWIDTH 580 0
DWIDTH 29 0
BBX 25 36 2 0
BITMAP
FF000000
FF000000
FF000000
FF000000
FF000000
FF000000
FF000000
FF000000
FF000000
FF07E000
FF1FF800
FF7FFC00
FFFFFE00
FFFFFF00
FFFFFF00
FFFFFF80
FFC0FF80
FF807F80
FF807F80
FF007F80
FF007F80
FF007F80
FF007F80
FF007F80
FF007F80
FF007F80
FF007F80
FF007F80
FF007F80
FF007F80
FF007F80
FF007F80
FF007F80
FF007F80
FF007F80
FF007F80
ENDCHAR
STARTCHAR 0069
ENCODING 105
SWIDTH 240 0
DWIDTH 12 0
BBX 8 36 2 0
BITMAP
FF
FF
FF
FF
FF
FF
FF
00
00
00
FF
FF
FF
FF
FF
FF
FF
FF
FF
FF
FF
FF
FF
FF
FF
FF
FF
FF
FF
FF
FF
FF
FF
FF
FF
FF
ENDCHAR
STARTCHAR 006A
ENCODING 106
SWIDTH 240 0
DWIDTH 12 0
BBX 11 46 -1 -10
BITMAP
1FE0
1FE0
1FE0
1FE0
1FE0
1FE0
1FE0
0000
0000
0000
1FE0
1FE0
1FE0
1FE0
1FE0
1FE0
1FE0
1FE0
1FE0
1FE0
1FE0
1FE0
1FE0
1FE0
1FE0
1FE0
1FE0
1FE0
1FE0
1FE0
1FE0
1FE0
1FE0
1FE0
1FE0
1FE0
1FE0
1FE0
1FE0
1FE0
FFE0
FFE0
FFC0
FFC0
FF80
FE00
ENDCHAR
STARTCHAR 006B
ENCODING 107
SWIDTH 580 0
DWIDTH 29 0
BBX 27 36 2 0
BITMAP
FF000000
FF000000
FF000000
FF000000
FF000000
FF000000
FF000000
FF000000
FF000000
FF000000
FF007FC0
FF00FF80
FF01FF00
FF03FE00
FF07FC00
FF0FF800
FF1FF000
FF3FE000
FF3FC000
FF7F8000
FFFF8000
FFFFC000
FFFFC000
FFFFE000
FFFFF000
FFEFF000
FFCFF800
FF87F800
FF07FC00
FF03FE00
FF01FE00
FF01FF00
FF00FF80
FF00FF80
FF007FC0
FF003FE0
ENDCHAR
STARTCHAR 006C
ENCODING 108
SWIDTH 240 0
DWIDTH 12 0
BBX 8 36 2 0
BITMAP
FF
FF
FF
FF
FF
FF
FF
FF
FF
FF
FF
FF
FF
FF
FF
FF
FF
FF
FF
FF
FF
FF
FF
FF
FF
FF
FF
FF
FF
FF
FF
FF
FF
FF
FF
FF
ENDCHAR
STARTCHAR 006D
ENCODING 109
SWIDTH 900 0
DWIDTH 45 0
BBX 40 27 2 0
BITMAP
000FC00FC0
FF3FF83FF8
FF7FFC7FFC
FFFFFEFFFE
FFFFFFFFFE
FFFFFFFFFF
FFFFFFFFFF
FFC1FFC1FF
FF80FF80FF
FF80FF80FF
FF00FF00FF
FF00FF00FF
FF00FF00FF
FF00FF00FF
FF00FF00FF
FF00FF00FF
FF00FF00FF
FF00FF00FF
FF00FF00FF
FF00FF00FF
FF00FF00FF
FF00FF00FF
FF00FF00FF
FF00FF00FF
FF00FF00FF
FF00FF00FF
FF00FF00FF
ENDCHAR
STARTCHAR 006E
ENCODING 110
SWIDTH 580 0
DWIDTH 29 0
BBX 25 27 2 0
BITMAP
0007E000
FF1FF800
FF7FFC00
FFFFFE00
FFFFFF00
FFFFFF00
FFFFFF80
FFC0FF80
FF807F80
FF807F80
FF007F80
FF007F80
FF007F80
FF007F80
FF007F80
FF007F80
FF007F80
FF007F80
FF007F80
FF007F80
FF007F80
FF007F80
FF007F80
FF007F80
FF007F80
FF007F80
FF007F80
ENDCHAR
STARTCHAR 006F
ENCODING 111
SWIDTH 580 0
DWIDTH 29 0
BBX 27 28 1 -1
BITMAP
003FC000
01FFF800
07FFFC00
0FFFFE00
1FFFFF00
3FFFFF80
3FF9FFC0
7FC07FC0
7F803FC0
7F801FE0
FF001FE0
FF001FE0
FF001FE0
FF001FE0
FF001FE0
FF001FE0
FF001FE0
FF001FE0
7F801FE0
7F803FC0
7FC07FC0
3FF1FFC0
3FFFFF80
1FFFFF00
0FFFFE00
07FFFC00
01FFF800
003FC000
ENDCHAR
STARTCHAR 0070
ENCODING 112
SWIDTH 600 0
DWIDTH 30 0
BBX 27 37 2 -10
BITMAP
000FE000
FF3FF800
FF7FFE00
FFFFFF00
FFFFFF00
FFFFFF80
FFF1FF80
FFC07FC0
FF803FC0
FF803FC0
FF001FE0
FF001FE0
FF001FE0
FF001FE0
FF001FE0
FF001FE0
FF001FE0
FF001FE0
FF803FC0
FF803FC0
FFC07FC0
FFF1FFC0
FFFFFF80
FFFFFF00
FFFFFF00
FF7FFE00
FF3FF800
FF0FE000
FF000000
FF000000
FF000000
FF000000
FF000000
FF000000
FF000000
FF000000
FF000000
ENDCHAR
STARTCHAR 0071
ENCODING 113
SWIDTH 600 0
DWIDTH 30 0
BBX 27 37 1 -10
BITMAP
00FE0000
03FF9FE0
0FFFDFE0
1FFFFFE0
1FFFFFE0
3FFFFFE0
3FF1FFE0
7FC07FE0
7F803FE0
7F803FE0
FF801FE0
FF001FE0
FF001FE0
FF001FE0
FF001FE0
FF001FE0
FF001FE0
FF001FE0
7F803FE0
7F803FE0
7FC07FE0
3FF1FFE0
3FFFFFE0
1FFFFFE0
1FFFFFE0
0FFFDFE0
03FF9FE0
00FE1FE0
00001FE0
00001FE0
00001FE0
00001FE0
00001FE0
00001FE0
00001FE0
00001FE0
00001FE0
ENDCHAR
STARTCHAR 0072
ENCODING 114
SWIDTH 400 0
DWIDTH 20 0
BBX 17 27 2 0
BITMAP
000F80
FF3F80
FF7F80
FF7F80
FFFF80
FFFF80
FFFF80
FFF800
FFC000
FF8000
FF8000
FF0000
FF0000
FF0000
FF0000
FF0000
FF0000
FF0000
FF0000
FF0000
FF0000
FF0000
FF0000
FF0000
FF0000
FF0000
FF0000
ENDCHAR
STARTCHAR 0073
ENCODING 115
SWIDTH 520 0
DWIDTH 26 0
BBX 24 28 1 -1
BITMAP
01FF00
0FFFE0
1FFFF8
3FFFFC
7FFFFC
7FC3FE
FF00FE
FF00FF
FF00FF
FF8000
FFE000
7FFF80
7FFFF0
3FFFFC
1FFFFE
07FFFE
00FFFF
0003FF
0000FF
FE00FF
FF007F
FF00FF
FFC1FF
7FFFFE
3FFFFE
1FFFFC
0FFFF0
01FF80
ENDCHAR
STARTCHAR 0074
ENCODING 116
SWIDTH 360 0
DWIDTH 18 0
BBX 16 34 1 0
BITMAP
1FE0
1FE0
1FE0
1FE0
1FE0
1FE0
1FE0
1FE0
FFFF
FFFF
FFFF
FFFF
FFFF
FFFF
1FE0
1FE0
1FE0
1FE0
1FE0
1FE0
1FE0
1FE0
1FE0
1FE0
1FE0
1FE0
1FE0
1FF0
1FFF
0FFF
0FFF
07FF
03FF
00FF
ENDCHAR
STARTCHAR 0075
ENCODING 117
SWIDTH 580 0
DWIDTH 29 0
BBX 25 27 2 -1
BITMAP
FF007F80
FF007F80
FF007F80
FF007F80
FF007F80
FF007F80
FF007F80
FF007F80
FF007F80
FF007F80
FF007F80
FF007F80
FF007F80
FF007F80
FF007F80
FF007F80
FF007F80
FF007F80
FF80FF80
FF81FF80
7FFFFF80
7FFFFF80
7FFFFF80
3FFFFF80
1FFF7F80
0FFE7F80
03F00000
ENDCHAR
STARTCHAR 0076
ENCODING 118
SWIDTH 560 0
DWIDTH 28 0
BBX 28 26 0 0
BITMAP
FF800FF0
7F801FE0
7F801FE0
7FC01FE0
3FC03FC0
3FC03FC0
3FE03F80
1FE07F80
1FE07F80
1FE07F00
0FF07F00
0FF0FF00
0FF0FE00
07F0FE00
07F9FE00
03F9FC00
03F9FC00
03FDFC00
01FFF800
01FFF800
01FFF800
00FFF000
00FFF000
00FFE000
007FE000
007FE000
ENDCHAR
STARTCHAR 0077
ENCODING 119
SWIDTH 860 0
DWIDTH 43 0
BBX 43 26 0 0
BITMAP
FF803F803FE0
7F807F803FC0
7F807FC03FC0
7F807FC07FC0
7FC07FC07F80
3FC0FFE07F80
3FC0FFE07F80
3FE0FFE0FF00
1FE1FFE0FF00
1FE1FFF0FF00
1FE1FBF1FE00
0FF1FBF1FE00
0FF3FBF1FE00
0FF3F1F9FC00
07FBF1FBFC00
07FBF1FBFC00
07FFE1FBF800
03FFE0FFF800
03FFE0FFF800
03FFE0FFF000
01FFC07FF000
01FFC07FF000
01FFC07FF000
00FF807FE000
00FF803FE000
00FF803FE000
ENDCHAR
STARTCHAR 0078
ENCODING 120
SWIDTH 560 0
DWIDTH 28 0
BBX 27 26 0 0
BITMAP
7FC03FE0
3FC07FC0
3FE07F80
1FF0FF80
0FF1FF00
0FF9FE00
07FFFC00
03FFFC00
01FFF800
01FFF000
00FFF000
007FE000
007FC000
007FE000
00FFE000
00FFF000
01FFF800
03FFFC00
07FFFC00
07FBFE00
0FF1FF00
1FF0FF00
1FE0FF80
3FC07FC0
7FC03FE0
FF803FE0
ENDCHAR
STARTCHAR 0079
ENCODING 121
SWIDTH 560 0
DWIDTH 28 0
BBX 27 36 0 -10
BITMAP
FF801FE0
7F801FE0
7F801FE0
7FC03FC0
3FC03FC0
3FC03FC0
3FC07F80
1FE07F80
1FE07F80
1FE07F00
0FF0FF00
0FF0FF00
0FF0FE00
07F0FE00
07F9FE00
07F9FC00
03F9FC00
03F9F800
03FFF800
01FFF800
01FFF000
00FFF000
00FFF000
00FFE000
00FFE000
007FE000
007FC000
00FFC000
00FFC000
01FF8000
3FFF8000
3FFF0000
3FFE0000
3FFC0000
3FF80000
3FE00000
ENDCHAR
STARTCHAR 007A
ENCODING 122
SWIDTH 500 0
DWIDTH 25 0
BBX 23 26 1 0
BITMAP
FFFFFE
FFFFFE
FFFFFE
FFFFFE
FFFFFE
FFFFFC
000FF8
001FF0
003FF0
003FE0
007FC0
00FF80
01FF00
03FF00
03FE00
07FC00
0FF800
1FF000
3FF000
3FE000
7FFFFE
FFFFFE
FFFFFE
FFFFFE
FFFFFE
FFFFFE
ENDCHAR
STARTCHAR 007B
ENCODING 123
SWIDTH 380 0
DWIDTH 19 0
BBX 17 49 1 -10
BITMAP
007F80
01FF80
03FF80
03FF80
07FF80
07FF80
07F800
07F000
07F000
07F000
07F000
07F000
07F000
07F000
07F000
07F000
07F000
07F000
0FF000
0FF000
1FF000
FFE000
FFE000
FFC000
FE0000
FFC000
FFE000
FFF000
0FF000
0FF000
07F000
07F000
07F000
07F000
07F000
07F000
07F000
07F000
07F000
07F000
07F000
07F000
07FC00
07FF80
07FF80
03FF80
01FF80
00FF80
003F80
ENDCHAR
STARTCHAR 007C
ENCODING 124
SWIDTH 240 0
DWIDTH 12 0
BBX 6 50 3 -10
BITMAP
FC
FC
FC
FC
FC
FC
FC
FC
FC
FC
FC
FC
FC
FC
FC
FC
FC
FC
FC
FC
FC
FC
FC
FC
FC
FC
FC
FC
FC
FC
FC
FC
FC
FC
FC
FC
FC
FC
FC
FC
FC
FC
FC
FC
FC
FC
FC
FC
FC
FC
ENDCHAR
STARTCHAR 007D
ENCODING 125
SWIDTH 380 0
DWIDTH 19 0
BBX 16 49 1 -10
BITMAP
FF00
FF80
FFC0
FFE0
FFF0
FFF0
0FF0
07F0
07F0
07F0
07F0
07F0
07F0
07F0
07F0
07F0
07F0
07F0
07F0
07F8
07FC
07FF
03FF
01FF
007F
03FF
03FF
07FF
07F8
07F0
07F0
07F0
07F0
07F0
07F0
07F0
07F0
07F0
07F0
07F0
07F0
07F0
1FF0
FFF0
FFE0
FFE0
FFC0
FF80
FE00
ENDCHAR
STARTCHAR 007E
ENCODING 126
SWIDTH 520 0
DWIDTH 26 0
BBX 24 9 1 13
BITMAP
0FE03F
1FF83F
3FFF7F
7FFFFE
7FFFFE
7FFFFE
7E3FFC
FC0FF8
FC01E0
ENDCHAR
STARTCHAR 00A0
ENCODING 160
SWIDTH 240 0
DWIDTH 12 0
BBX 0 0 0 0
BITMAP
ENDCHAR
STARTCHAR 00A1
ENCODING 161
SWIDTH 240 0
DWIDTH 12 0
BBX 9 36 2 -6
BITMAP
FF80
FF80
FF80
FF80
FF80
FF80
FF80
FF80
FF80
0000
0000
0000
0000
3C00
3C00
3E00
7E00
7E00
7E00
7E00
7E00
7E00
7F00
FF00
FF00
FF00
FF00
FF00
FF00
FF00
FF00
FF00
FF00
FF00
FF00
FF00
ENDCHAR
STARTCHAR 00A2
ENCODING 162
SWIDTH 560 0
DWIDTH 28 0
BBX 26 38 1 -6
BITMAP
000E0000
000E0000
000E0000
000E0000
000E0000
007FC000
01FFF000
07FFFC00
0FFFFE00
1FFFFF00
3FFFFF00
3FFFFF80
7FCE7F80
7F8E3FC0
7F8E3FC0
FF0E3FC0
FF0E0000
FF0E0000
FF0E0000
FF0E0000
FF0E0000
FF0E0000
FF0E3FC0
7F8E3FC0
7F8E3FC0
7FCE7F80
3FFFFF80
3FFFFF80
1FFFFF00
0FFFFE00
07FFFC00
01FFF000
007FC000
000E0000
000E0000
000E0000
000E0000
000E0000
ENDCHAR
STARTCHAR 00A3
ENCODING 163
SWIDTH 580 0
DWIDTH 29 0
BBX 27 37 1 0
BITMAP
003FE000
01FFF800
07FFFE00
0FFFFF00
1FFFFF80
1FFFFF80
3FFFFFC0
3FE07FC0
3FE03FC0
3FC03FE0
3FC01FE0
3FC01FE0
3FC00000
3FE00000
3FE00000
1FF00000
1FF00000
1FF00000
FFFFFC00
FFFFFC00
FFFFFC00
FFFFFC00
07FC0000
03FC0000
03FC0000
03FC0000
07F80000
07F80000
0FF00000
3FFFFFE0
7FFFFFE0
7FFFFFE0
7FFFFFE0
7FFFFFE0
7FFFFFE0
7FFFFFE0
7FFFFFE0
ENDCHAR
STARTCHAR 00A4
ENCODING 164
SWIDTH 580 0
DWIDTH 29 0
BBX 27 28 1 4
BITMAP
20000080
700001C0
783F83E0
7CFFF7C0
3FFFFF80
1FFFFF00
0FFFFE00
1FFFFF00
1FF9FF80
3FC07F80
3F803F80
3F801FC0
3F001FC0
3F001FC0
3F001FC0
3F001FC0
3F801FC0
3F803F80
3FC03F80
1FE0FF80
1FFFFF00
0FFFFF00
1FFFFF00
3FFFFF80
7DFFF7C0
F87FC3E0
700001C0
20000080
ENDCHAR
STARTCHAR 00A5
ENCODING 165
SWIDTH 700 0
DWIDTH 35 0
BBX 35 36 0 0
BITMAP
FFC0007FE0
7FC0007FC0
7FE000FFC0
3FF000FF80
1FF001FF00
1FF801FF00
0FF803FE00
0FFC03FE00
07FC07FC00
07FE0FFC00
03FE0FF800
01FF1FF000
01FF1FF000
00FFBFE000
00FFFFE000
007FFFC000
003FFFC000
003FFF8000
001FFF0000
001FFF0000
03FFFFF800
03FFFFF800
03FFFFF800
03FFFFF800
0007FC0000
0007FC0000
0007FC0000
03FFFFF800
03FFFFF800
03FFFFF800
03FFFFF800
0007FC0000
0007FC0000
0007FC0000
0007FC0000
0007FC0000
ENDCHAR
STARTCHAR 00A6
ENCODING 166
SWIDTH 240 0
DWIDTH 12 0
BBX 6 50 3 -10
BITMAP
FC
FC
FC
FC
FC
FC
FC
FC
FC
FC
FC
FC
FC
FC
FC
FC
FC
FC
FC
FC
00
00
00
00
00
00
00
00
00
00
FC
FC
FC
FC
FC
FC
FC
FC
FC
FC
FC
FC
FC
FC
FC
FC
FC
FC
FC
FC
ENDCHAR
STARTCHAR 00A7
ENCODING 167
SWIDTH 600 0
DWIDTH 30 0
BBX 28 47 1 -10
BITMAP
003FE000
01FFF800
07FFFE00
0FFFFF00
0FFFFF00
1FF0FF80
1FE07F80
1FE03F80
1FE03F80
1FE00000
1FF00000
0FF80000
0FFE0000
07FF8000
07FFE000
1FFFF000
3FFFFC00
7FFFFE00
7FCFFF80
FF03FFC0
FF00FFE0
FF007FE0
FF001FF0
FF000FF0
FF8007F0
7FE007F0
3FF007F0
3FFC0FF0
1FFF1FF0
07FFFFE0
03FFFFC0
00FFFF80
007FFF00
001FFE00
0007FF00
0001FF80
0000FF80
00007F80
1FC03F80
1FC03F80
1FE07F80
1FF0FF80
0FFFFF80
0FFFFF00
07FFFE00
01FFFC00
007FF000
ENDCHAR
STARTCHAR 00A8
ENCODING 168
SWIDTH 400 0
DWIDTH 20 0
BBX 18 7 1 29
BITMAP
FF3FC0
FF3FC0
FF3FC0
FF3FC0
FF3FC0
FF3FC0
FF3FC0
ENDCHAR
STARTCHAR 00A9
ENCODING 169
SWIDTH 800 0
DWIDTH 40 0
BBX 38 38 1 -1
BITMAP
0001FF0000
000FFFE000
003FFFF800
00FFFFFC00
01FFFFFF00
03FF83FF80
07FC007FC0
0FF0001FC0
1FE0000FE0
1F80FE07F0
3F83FF83F0
3F0FFFC3F8
7E0FFFE1F8
7E1FFFF1F8
7E3F87F0FC
FC3F03F0FC
FC3F01F8FC
FC3F0000FC
FC3F00007C
FC3F00007C
FC3F0000FC
FC3F01F8FC
FC3F03F0FC
7E3F83F0FC
7E1FFFF1F8
7E0FFFE1F8
3F0FFFC3F8
3F83FF83F0
1F80FE07F0
1FC0000FE0
0FF0001FC0
07FC007FC0
03FF83FF80
01FFFFFF00
00FFFFFC00
003FFFF800
000FFFE000
0001FF0000
ENDCHAR
STARTCHAR 00AA
ENCODING 170
SWIDTH 480 0
DWIDTH 24 0
BBX 23 25 0 12
BITMAP
00FF80
07FFE0
0FFFF8
1FFFF8
3FFFFC
3FC1FC
3F81FC
3F01FC
0001FC
0003FC
01FFFC
0FFFFC
3FFFFC
3FFFFC
7FE1FC
7F01FC
7F01FC
7F01FC
FF01FC
7F07FC
7FFFFC
7FFFFC
3FFEFC
1FFCFE
07F0FE
ENDCHAR
STARTCHAR 00AB
ENCODING 171
SWIDTH 480 0
DWIDTH 24 0
BBX 18 22 3 2
BITMAP
010040
030040
0701C0
0F03C0
1F07C0
3F0FC0
FF1FC0
FF3FC0
FE3F80
FC3F00
F03E00
F03E00
FC3F00
FE3F80
FF3FC0
FF1FC0
3F0FC0
1F07C0
0F03C0
0701C0
030040
010040
ENDCHAR
STARTCHAR 00AC
ENCODING 172
SWIDTH 520 0
DWIDTH 26 0
BBX 24 15 1 8
BITMAP
FFFFFF
FFFFFF
FFFFFF
FFFFFF
FFFFFF
FFFFFF
FFFFFF
00007F
00007F
00007F
00007F
00007F
00007F
00007F
00007F
ENDCHAR
STARTCHAR 00AD
ENCODING 173
SWIDTH 360 0
DWIDTH 18 0
BBX 16 7 1 11
BITMAP
FFFF
FFFF
FFFF
FFFF
FFFF
FFFF
FFFF
ENDCHAR
STARTCHAR 00AE
ENCODING 174
SWIDTH 560 0
DWIDTH 28 0
BBX 26 26 1 11
BITMAP
007F8000
01FFE000
07FFF800
0F807C00
1E001E00
3C000F00
78FF0780
70FFC380
70FFC380
F0E1E3C0
E0E1E1C0
E0E1C1C0
E0FFC1C0
E0FFC1C0
E0FFC1C0
E0E1C1C0
F0E1C3C0
70E1E380
78E1E780
38000700
3C000F00
1F003E00
0FC0FC00
07FFF800
01FFE000
003F0000
ENDCHAR
STARTCHAR 00AF
ENCODING 175
SWIDTH 400 0
DWIDTH 20 0
BBX 16 5 2 29
BITMAP
FFFF
FFFF
FFFF
FFFF
FFFF
ENDCHAR
STARTCHAR 00B0
ENCODING 176
SWIDTH 360 0
DWIDTH 18 0
BBX 16 15 1 22
BITMAP
07E0
1FF8
3FFC
7FFE
7FFE
FC3E
F81F
F81F
F81F
F83F
FC3E
7FFE
3FFC
1FF8
0FF0
ENDCHAR
STARTCHAR 00B1
ENCODING 177
SWIDTH 520 0
DWIDTH 26 0
BBX 24 29 1 0
BITMAP
007F00
007F00
007F00
007F00
007F00
007F00
FFFFFF
FFFFFF
FFFFFF
FFFFFF
FFFFFF
FFFFFF
FFFFFF
007F00
007F00
007F00
007F00
007F00
007F00
000000
000000
000000
FFFFFF
FFFFFF
FFFFFF
FFFFFF
FFFFFF
FFFFFF
FFFFFF
ENDCHAR
STARTCHAR 00B2
ENCODING 178
SWIDTH 360 0
DWIDTH 18 0
BBX 16 22 1 26
BITMAP
0080
0FF8
3FFC
3FFE
7FFF
7E3F
FC1F
F81F
003F
007F
01FE
07FC
1FF8
3FE0
7F80
7E00
FC00
FFFF
FFFF
FFFF
FFFF
FFFF
ENDCHAR
STARTCHAR 00B3
ENCODING 179
SWIDTH 360 0
DWIDTH 18 0
BBX 17 21 1 26
BITMAP
0FF800
3FFC00
7FFE00
7FFF00
7C3F00
FC1F00
001F00
003F00
01FE00
01FC00
01FE00
01FF00
003F00
F81F80
F81F80
FC1F80
FFFF00
7FFF00
7FFE00
1FFC00
07F000
ENDCHAR
STARTCHAR 00B4
ENCODING 180
SWIDTH 400 0
DWIDTH 20 0
BBX 12 7 4 30
BITMAP
0FF0
1FE0
1FC0
3F80
7F00
7F00
FE00
ENDCHAR
STARTCHAR 00B5
ENCODING 181
SWIDTH 580 0
DWIDTH 29 0
BBX 25 36 2 -10
BITMAP
FF007F80
FF007F80
FF007F80
FF007F80
FF007F80
FF007F80
FF007F80
FF007F80
FF007F80
FF007F80
FF007F80
FF007F80
FF007F80
FF007F80
FF007F80
FF007F80
FF007F80
FF007F80
FF80FF80
FF81FF80
FFFFFF80
FFFFFF80
FFFFFF80
FFFFFF80
FFFF7F80
FFFE7F80
FFF80000
FF000000
FF000000
FF000000
FF000000
FF000000
FF000000
FF000000
FF000000
FF000000
ENDCHAR
STARTCHAR 00B6
ENCODING 182
SWIDTH 600 0
DWIDTH 30 0
BBX 26 36 1 0
BITMAP
01FFFFC0
0FFFFFC0
1FFFFFC0
3FFFFFC0
7FFFFFC0
7FFFFFC0
FFFF8FC0
FFFF8FC0
FFFF8FC0
FFFF8FC0
FFFF8FC0
7FFF8FC0
7FFF8FC0
7FFF8FC0
3FFF8FC0
1FFF8FC0
07FF8FC0
007F8FC0
001F8FC0
001F8FC0
001F8FC0
001F8FC0
001F8FC0
001F8FC0
001F8FC0
001F8FC0
001F8FC0
001F8FC0
001F8FC0
001F8FC0
001F8FC0
001F8FC0
001F8FC0
001F8FC0
001F8FC0
001F8FC0
ENDCHAR
STARTCHAR 00B7
ENCODING 183
SWIDTH 240 0
DWIDTH 12 0
BBX 9 9 2 13
BITMAP
FF80
FF80
FF80
FF80
FF80
FF80
FF80
FF80
FF80
ENDCHAR
STARTCHAR 00B8
ENCODING 184
SWIDTH 400 0
DWIDTH 20 0
BBX 12 11 4 -11
BITMAP
1E00
1C00
3F80
3FE0
03E0
03F0
03F0
07E0
FFE0
FFC0
FF00
ENDCHAR
STARTCHAR 00B9
ENCODING 185
SWIDTH 240 0
DWIDTH 12 0
BBX 10 21 1 26
BITMAP
07C0
07C0
0FC0
1FC0
FFC0
FFC0
FFC0
FFC0
0FC0
0FC0
0FC0
0FC0
0FC0
0FC0
0FC0
0FC0
0FC0
0FC0
0FC0
0FC0
0FC0
ENDCHAR
STARTCHAR 00BA
ENCODING 186
SWIDTH 500 0
DWIDTH 25 0
BBX 24 25 1 12
BITMAP
00FE00
07FFC0
0FFFE0
1FFFF8
3FFFF8
7FFFFC
7F81FC
7F01FE
FF00FE
FE00FE
FE00FE
FE00FF
FE007F
FE007F
FE00FE
FE00FE
FE00FE
7F01FE
7F81FC
7FFFFC
3FFFF8
1FFFF8
0FFFE0
07FFC0
00FF00
ENDCHAR
STARTCHAR 00BB
ENCODING 187
SWIDTH 480 0
DWIDTH 24 0
BBX 18 22 3 2
BITMAP
802000
C03000
E03800
F03C00
F83E00
FC3F80
FF3FC0
FF3FC0
7F1FC0
3F07C0
1F03C0
1F03C0
3F07C0
7F1FC0
FF3FC0
FF3FC0
FC3F80
F83E00
F03C00
E03800
C03000
802000
ENDCHAR
STARTCHAR 00BC
ENCODING 188
SWIDTH 720 0
DWIDTH 36 0
BBX 34 36 1 0
BITMAP
07C001F000
07C003E000
0FC003E000
1FC007C000
FFC007C000
FFC00F8000
FFC00F8000
FFC01F0000
0FC01F0000
0FC03E0000
0FC07C0000
0FC07C0000
0FC0F80000
0FC0F80000
0FC1F00000
0FC1F03F00
0FC3E07F00
0FC3E0FF00
0FC7C1FF00
0FC7C1FF00
0FCF83FF00
000F87FF00
001F0FBF00
001F0F3F00
003E1F3F00
003E3E3F00
007C7C3F00
0078783F00
00F87FFFC0
01F07FFFC0
01F07FFFC0
03E07FFFC0
03E0003F00
07C0003F00
07C0003F00
0F80003F00
ENDCHAR
STARTCHAR 00BD
ENCODING 189
SWIDTH 780 0
DWIDTH 39 0
BBX 37 36 1 0
BITMAP
07C001F000
07C001F000
0FC003E000
1FC003E000
FFC007C000
FFC007C000
FFC00F8000
FFC00F8000
0FC01F0000
0FC01E0000
0FC03E0000
0FC07C0000
0FC07C0000
0FC0F80000
0FC0F80000
0FC1F03F00
0FC1F0FFC0
0FC3E1FFE0
0FC3E3FFF0
0FC7C7FFF0
0FC7C7E1F8
000F87C1F8
000F8001F8
001F0003F0
001F000FF0
003E003FE0
003E00FFC0
007C01FF00
00F803FC00
00F803F800
01F007E000
01F007FFF8
03E007FFF8
03E00FFFF8
07C00FFFF8
07C00FFFF8
ENDCHAR
STARTCHAR 00BE
ENCODING 190
SWIDTH 840 0
DWIDTH 42 0
BBX 40 37 1 0
BITMAP
07F0000000
1FFC000F80
3FFE000F80
7FFF001F00
7E3F001F00
FC1F003E00
FC1F003E00
001F007C00
003F007C00
01FE00F800
01FC00F800
01FE01F000
01FF01F000
003F03E000
001F83C000
F81F87C000
F81F8F8000
FC1F8F80FC
FFFF1F01FC
7FFF1F03FC
7FFE3E07FC
1FFC3E0FFC
07F07C1FFC
00007C1EFC
0000F83EFC
0000F87CFC
0001F0F8FC
0001F1F0FC
0003E1E0FC
0003E1FFFF
0007C1FFFF
0007C1FFFF
000F81FFFF
001F0000FC
001F0000FC
003E0000FC
003E0000FC
ENDCHAR
STARTCHAR 00BF
ENCODING 191
SWIDTH 540 0
DWIDTH 27 0
BBX 25 37 1 -7
BITMAP
007FC000
007FC000
007FC000
007FC000
007FC000
007FC000
007FC000
007FC000
007FC000
00000000
00000000
00000000
00000000
007F8000
007F8000
007F8000
007F8000
00FF0000
03FF0000
07FE0000
0FFE0000
3FF80000
3FF00000
7FC00000
FF800000
FF803F80
FF003F80
FF007F80
FF807F80
FF80FF80
FFFFFF80
7FFFFF00
7FFFFF00
3FFFFE00
1FFFFC00
07FFF000
00FF8000
ENDCHAR
STARTCHAR 00C0
ENCODING 192
SWIDTH 740 0
DWIDTH 37 0
BBX 36 45 0 0
BITMAP
007F800000
003FC00000
001FC00000
000FE00000
0007F00000
0003F00000
0003F80000
0000000000
0000000000
0007FE0000
0007FF0000
000FFF0000
000FFF0000
001FFF8000
001FFF8000
001FFFC000
003FFFC000
003FFFC000
003F9FE000
007F9FE000
007F9FE000
007F0FF000
00FF0FF000
00FF0FF800
01FE07F800
01FE07F800
01FE07FC00
03FC03FC00
03FC03FC00
03FC03FE00
07FC01FE00
07F801FF00
07FFFFFF00
0FFFFFFF00
0FFFFFFF80
1FFFFFFF80
1FFFFFFF80
1FFFFFFFC0
3FFFFFFFC0
3FE0003FE0
3FC0003FE0
7FC0003FE0
7F80001FF0
7F80001FF0
FF80001FF0
ENDCHAR
STARTCHAR 00C1
ENCODING 193
SWIDTH 740 0
DWIDTH 37 0
BBX 36 45 0 0
BITMAP
00001FE000
00003FC000
00003F8000
00007F8000
00007F0000
0000FE0000
0001FC0000
0000000000
0000000000
0007FE0000
0007FF0000
000FFF0000
000FFF0000
001FFF8000
001FFF8000
001FFFC000
003FFFC000
003FFFC000
003F9FE000
007F9FE000
007F9FE000
007F0FF000
00FF0FF000
00FF0FF800
01FE07F800
01FE07F800
01FE07FC00
03FC03FC00
03FC03FC00
03FC03FE00
07FC01FE00
07F801FF00
07FFFFFF00
0FFFFFFF00
0FFFFFFF80
1FFFFFFF80
1FFFFFFF80
1FFFFFFFC0
3FFFFFFFC0
3FE0003FE0
3FC0003FE0
7FC0003FE0
7F80001FF0
7F80001FF0
FF80001FF0
ENDCHAR
STARTCHAR 00C2
ENCODING 194
SWIDTH 740 0
DWIDTH 37 0
BBX 36 45 0 0
BITMAP
0007FE0000
000FFF0000
001FFF8000
001FFF8000
003F9FC000
007F0FE000
00FE07F000
0000000000
0000000000
0007FE0000
0007FF0000
000FFF0000
000FFF0000
001FFF8000
001FFF8000
001FFFC000
003FFFC000
003FFFC000
003F9FE000
007F9FE000
007F9FE000
007F0FF000
00FF0FF000
00FF0FF800
01FE07F800
01FE07F800
01FE07FC00
03FC03FC00
03FC03FC00
03FC03FE00
07FC01FE00
07F801FF00
07FFFFFF00
0FFFFFFF00
0FFFFFFF80
1FFFFFFF80
1FFFFFFF80
1FFFFFFFC0
3FFFFFFFC0
3FE0003FE0
3FC0003FE0
7FC0003FE0
7F80001FF0
7F80001FF0
FF80001FF0
ENDCHAR
STARTCHAR 00C3
ENCODING 195
SWIDTH 740 0
DWIDTH 37 0
BBX 36 45 0 0
BITMAP
000F81E000
003FF3E000
003FFFE000
007FFFE000
007FFFC000
007C7FC000
00780F0000
0000000000
0000000000
0007FE0000
0007FF0000
000FFF0000
000FFF0000
001FFF8000
001FFF8000
001FFFC000
003FFFC000
003FFFC000
003F9FE000
007F9FE000
007F9FE000
007F0FF000
00FF0FF000
00FF0FF800
01FE07F800
01FE07F800
01FE07FC00
03FC03FC00
03FC03FC00
03FC03FE00
07FC01FE00
07F801FF00
07FFFFFF00
0FFFFFFF00
0FFFFFFF80
1FFFFFFF80
1FFFFFFF80
1FFFFFFFC0
3FFFFFFFC0
3FE0003FE0
3FC0003FE0
7FC0003FE0
7F80001FF0
7F80001FF0
FF80001FF0
ENDCHAR
STARTCHAR 00C4
ENCODING 196
SWIDTH 740 0
DWIDTH 37 0
BBX 36 45 0 0
BITMAP
007F8FE000
007F8FE000
007F8FE000
007F8FE000
007F8FE000
007F8FE000
007F8FE000
0000000000
0000000000
0007FE0000
0007FF0000
000FFF0000
000FFF0000
001FFF8000
001FFF8000
001FFFC000
003FFFC000
003FFFC000
003F9FE000
007F9FE000
007F9FE000
007F0FF000
00FF0FF000
00FF0FF800
01FE07F800
01FE07F800
01FE07FC00
03FC03FC00
03FC03FC00
03FC03FE00
07FC01FE00
07F801FF00
07FFFFFF00
0FFFFFFF00
0FFFFFFF80
1FFFFFFF80
1FFFFFFF80
1FFFFFFFC0
3FFFFFFFC0
3FE0003FE0
3FC0003FE0
7FC0003FE0
7F80001FF0
7F80001FF0
FF80001FF0
ENDCHAR
STARTCHAR 00C5
ENCODING 197
SWIDTH 740 0
DWIDTH 37 0
BBX 36 46 0 0
BITMAP
0003FC0000
0007FE0000
000FFF0000
001FFF8000
001F0F8000
001F07C000
003E07C000
003E07C000
001E07C000
001F0F8000
001FFF8000
000FFF0000
000FFF0000
000FFF0000
001FFF8000
001FFF8000
001FFFC000
003FFFC000
003FFFC000
003F9FE000
007F9FE000
007F9FE000
007F0FF000
00FF0FF000
00FF0FF800
01FE07F800
01FE07F800
01FE07FC00
03FE03FC00
03FC03FC00
03FC03FE00
07FC01FE00
07F801FF00
07FFFFFF00
0FFFFFFF00
0FFFFFFF80
1FFFFFFF80
1FFFFFFF80
1FFFFFFFC0
3FFFFFFFC0
3FE0003FE0
3FC0003FE0
7FC0003FE0
7F80001FF0
7F80001FF0
FF80001FF0
ENDCHAR
STARTCHAR 00C6
ENCODING 198
SWIDTH 1060 0
DWIDTH 53 0
BBX 52 36 0 0
BITMAP
00007FFFFFFFF0
00007FFFFFFFF0
0000FFFFFFFFF0
0000FFFFFFFFF0
0001FFFFFFFFF0
0001FFFFFFFFF0
0003FFFFFFFFF0
0003FC1FFFFFF0
0007FC1FE00000
0007F81FE00000
000FF81FE00000
000FF01FE00000
001FF01FE00000
001FE01FE00000
003FE01FE00000
003FE01FFFFFC0
007FC01FFFFFC0
007FC01FFFFFC0
00FF801FFFFFC0
00FF801FFFFFC0
01FF001FFFFFC0
01FFFFFFFFFFC0
01FFFFFFE00000
03FFFFFFE00000
03FFFFFFE00000
07FFFFFFE00000
07FFFFFFE00000
0FFFFFFFE00000
0FF0001FFFFFF0
1FF0001FFFFFF0
1FE0001FFFFFF0
3FE0001FFFFFF0
3FC0001FFFFFF0
7FC0001FFFFFF0
7F80001FFFFFF0
FF80001FFFFFF0
ENDCHAR
STARTCHAR 00C7
ENCODING 199
SWIDTH 740 0
DWIDTH 37 0
BBX 35 49 1 -12
BITMAP
0007FC0000
003FFFC000
00FFFFF000
01FFFFF800
03FFFFFC00
07FFFFFE00
0FFFFFFF00
1FFF1FFF80
1FF801FF80
3FF000FFC0
3FE0007FC0
7FE0007FC0
7FC0003FE0
7FC0003FE0
7F80000000
FF80000000
FF80000000
FF80000000
FF80000000
FF80000000
FF80000000
FF80000000
FF80000000
7FC0003FE0
7FC0003FE0
7FC0003FC0
7FE0007FC0
3FE0007FC0
3FF000FFC0
1FF801FF80
1FFF1FFF80
0FFFFFFF00
07FFFFFE00
03FFFFFC00
01FFFFF800
00FFFFF000
003FFFC000
0007FE0000
0000F00000
0001E00000
0001FC0000
0001FE0000
00003F0000
00001F0000
00001F0000
00003F0000
0007FE0000
0007FC0000
0007F00000
ENDCHAR
STARTCHAR 00C8
ENCODING 200
SWIDTH 620 0
DWIDTH 31 0
BBX 27 45 3 0
BITMAP
0FF00000
07F80000
03FC0000
01FC0000
00FE0000
007E0000
003F0000
00000000
00000000
FFFFFFE0
FFFFFFE0
FFFFFFE0
FFFFFFE0
FFFFFFE0
FFFFFFE0
FFFFFFE0
FFFFFFE0
FF000000
FF000000
FF000000
FF000000
FF000000
FF000000
FF000000
FFFFFF80
FFFFFF80
FFFFFF80
FFFFFF80
FFFFFF80
FFFFFF80
FFFFFF80
FF000000
FF000000
FF000000
FF000000
FF000000
FF000000
FFFFFFE0
FFFFFFE0
FFFFFFE0
FFFFFFE0
FFFFFFE0
FFFFFFE0
FFFFFFE0
FFFFFFE0
ENDCHAR
STARTCHAR 00C9
ENCODING 201
SWIDTH 620 0
DWIDTH 31 0
BBX 27 45 3 0
BITMAP
0003FE00
0003FC00
0007F800
000FF000
000FE000
001FC000
001F8000
00000000
00000000
FFFFFFE0
FFFFFFE0
FFFFFFE0
FFFFFFE0
FFFFFFE0
FFFFFFE0
FFFFFFE0
FFFFFFE0
FF000000
FF000000
FF000000
FF000000
FF000000
FF000000
FF000000
FFFFFF80
FFFFFF80
FFFFFF80
FFFFFF80
FFFFFF80
FFFFFF80
FFFFFF80
FF000000
FF000000
FF000000
FF000000
FF000000
FF000000
FFFFFFE0
FFFFFFE0
FFFFFFE0
FFFFFFE0
FFFFFFE0
FFFFFFE0
FFFFFFE0
FFFFFFE0
ENDCHAR
STARTCHAR 00CA
ENCODING 202
SWIDTH 620 0
DWIDTH 31 0
BBX 27 45 3 0
BITMAP
00FFC000
00FFE000
01FFF000
03FFF800
07F3F800
0FE1FC00
1FC0FE00
00000000
00000000
FFFFFFE0
FFFFFFE0
FFFFFFE0
FFFFFFE0
FFFFFFE0
FFFFFFE0
FFFFFFE0
FFFFFFE0
FF000000
FF000000
FF000000
FF000000
FF000000
FF000000
FF000000
FFFFFF80
FFFFFF80
FFFFFF80
FFFFFF80
FFFFFF80
FFFFFF80
FFFFFF80
FF000000
FF000000
FF000000
FF000000
FF000000
FF000000
FFFFFFE0
FFFFFFE0
FFFFFFE0
FFFFFFE0
FFFFFFE0
FFFFFFE0
FFFFFFE0
FFFFFFE0
ENDCHAR
STARTCHAR 00CB
ENCODING 203
SWIDTH 620 0
DWIDTH 31 0
BBX 27 45 3 0
BITMAP
0FF1FC00
0FF1FC00
0FF1FC00
0FF1FC00
0FF1FC00
0FF1FC00
0FF1FC00
00000000
00000000
FFFFFFE0
FFFFFFE0
FFFFFFE0
FFFFFFE0
FFFFFFE0
FFFFFFE0
FFFFFFE0
FFFFFFE0
FF000000
FF000000
FF000000
FF000000
FF000000
FF000000
FF000000
FFFFFF80
FFFFFF80
FFFFFF80
FFFFFF80
FFFFFF80
FFFFFF80
FFFFFF80
FF000000
FF000000
FF000000
FF000000
FF000000
FF000000
FFFFFFE0
FFFFFFE0
FFFFFFE0
FFFFFFE0
FFFFFFE0
FFFFFFE0
FFFFFFE0
FFFFFFE0
ENDCHAR
STARTCHAR 00CC
ENCODING 204
SWIDTH 280 0
DWIDTH 14 0
BBX 11 45 0 0
BITMAP
FE00
FF00
7F00
3F00
3F80
1F80
0FC0
0000
0000
1FE0
1FE0
1FE0
1FE0
1FE0
1FE0
1FE0
1FE0
1FE0
1FE0
1FE0
1FE0
1FE0
1FE0
1FE0
1FE0
1FE0
1FE0
1FE0
1FE0
1FE0
1FE0
1FE0
1FE0
1FE0
1FE0
1FE0
1FE0
1FE0
1FE0
1FE0
1FE0
1FE0
1FE0
1FE0
1FE0
ENDCHAR
STARTCHAR 00CD
ENCODING 205
SWIDTH 280 0
DWIDTH 14 0
BBX 11 45 3 0
BITMAP
1FE0
1FC0
1FC0
3F80
3F00
3F00
7E00
0000
0000
FF00
FF00
FF00
FF00
FF00
FF00
FF00
FF00
FF00
FF00
FF00
FF00
FF00
FF00
FF00
FF00
FF00
FF00
FF00
FF00
FF00
FF00
FF00
FF00
FF00
FF00
FF00
FF00
FF00
FF00
FF00
FF00
FF00
FF00
FF00
FF00
ENDCHAR
STARTCHAR 00CE
ENCODING 206
SWIDTH 280 0
DWIDTH 14 0
BBX 18 45 -2 0
BITMAP
0FF800
0FFC00
1FFE00
3FFE00
3F3F00
7F3F80
FE1FC0
000000
000000
07F800
07F800
07F800
07F800
07F800
07F800
07F800
07F800
07F800
07F800
07F800
07F800
07F800
07F800
07F800
07F800
07F800
07F800
07F800
07F800
07F800
07F800
07F800
07F800
07F800
07F800
07F800
07F800
07F800
07F800
07F800
07F800
07F800
07F800
07F800
07F800
ENDCHAR
STARTCHAR 00CF
ENCODING 207
SWIDTH 280 0
DWIDTH 14 0
BBX 16 45 -1 0
BITMAP
FE7F
FE7F
FE7F
FE7F
FE7F
FE7F
FE7F
0000
0000
0FF0
0FF0
0FF0
0FF0
0FF0
0FF0
0FF0
0FF0
0FF0
0FF0
0FF0
0FF0
0FF0
0FF0
0FF0
0FF0
0FF0
0FF0
0FF0
0FF0
0FF0
0FF0
0FF0
0FF0
0FF0
0FF0
0FF0
0FF0
0FF0
0FF0
0FF0
0FF0
0FF0
0FF0
0FF0
0FF0
ENDCHAR
STARTCHAR 00D0
ENCODING 208
SWIDTH 760 0
DWIDTH 38 0
BBX 37 36 0 0
BITMAP
0FFFFF0000
0FFFFFE000
0FFFFFF800
0FFFFFFC00
0FFFFFFF00
0FFFFFFF80
0FFFFFFF80
0FF007FFC0
0FF000FFE0
0FF0007FE0
0FF0003FE0
0FF0003FF0
0FF0001FF0
0FF0001FF0
0FF0001FF0
0FF0000FF0
FFFFF00FF8
FFFFF00FF8
FFFFF00FF8
FFFFF00FF8
0FF0000FF0
0FF0001FF0
0FF0001FF0
0FF0001FF0
0FF0003FF0
0FF0003FE0
0FF0007FE0
0FF000FFE0
0FF007FFC0
0FFFFFFF80
0FFFFFFF80
0FFFFFFF00
0FFFFFFE00
0FFFFFF800
0FFFFFE000
0FFFFF0000
ENDCHAR
STARTCHAR 00D1
ENCODING 209
SWIDTH 740 0
DWIDTH 37 0
BBX 31 45 3 0
BITMAP
007C0F80
01FF9F80
01FFFF00
03FFFF00
03FFFF00
03E3FE00
03E07800
00000000
00000000
FF8001FE
FFC001FE
FFC001FE
FFE001FE
FFF001FE
FFF001FE
FFF801FE
FFF801FE
FFFC01FE
FFFE01FE
FFFE01FE
FFFF01FE
FFFF01FE
FFFF81FE
FF7FC1FE
FF7FC1FE
FF3FE1FE
FF1FE1FE
FF1FF1FE
FF0FF9FE
FF0FF9FE
FF07FDFE
FF03FDFE
FF03FFFE
FF01FFFE
FF01FFFE
FF00FFFE
FF007FFE
FF007FFE
FF003FFE
FF003FFE
FF001FFE
FF000FFE
FF000FFE
FF0007FE
FF0007FE
ENDCHAR
STARTCHAR 00D2
ENCODING 210
SWIDTH 780 0
DWIDTH 39 0
BBX 37 47 1 -1
BITMAP
007FC00000
003FC00000
001FE00000
000FE00000
0007F00000
0003F80000
0001F80000
0000000000
0000000000
0003FE0000
001FFFC000
007FFFF000
01FFFFFC00
03FFFFFE00
07FFFFFF00
0FFFFFFF80
1FFF8FFF80
1FFC01FFC0
3FF800FFE0
3FF0007FE0
7FE0003FE0
7FC0001FF0
7FC0001FF0
7FC0001FF0
FF80000FF0
FF80000FF8
FF80000FF8
FF80000FF8
FF80000FF8
FF80000FF8
FF80000FF8
FF80000FF0
7FC0001FF0
7FC0001FF0
7FC0001FF0
7FE0003FE0
3FF0007FE0
3FF000FFE0
1FFC01FFC0
1FFF8FFFC0
0FFFFFFF80
07FFFFFF00
03FFFFFE00
01FFFFFC00
00FFFFF000
003FFFC000
0003FE0000
ENDCHAR
STARTCHAR 00D3
ENCODING 211
SWIDTH 780 0
DWIDTH 39 0
BBX 37 47 1 -1
BITMAP
00001FF000
00001FE000
00003FC000
00003F8000
00007F0000
0000FE0000
0000FC0000
0000000000
0000000000
0003FE0000
001FFFC000
007FFFF000
01FFFFFC00
03FFFFFE00
07FFFFFF00
0FFFFFFF80
1FFF8FFF80
1FFC01FFC0
3FF800FFE0
3FF0007FE0
7FE0003FE0
7FC0001FF0
7FC0001FF0
7FC0001FF0
FF80000FF0
FF80000FF8
FF80000FF8
FF80000FF8
FF80000FF8
FF80000FF8
FF80000FF8
FF80000FF0
7FC0001FF0
7FC0001FF0
7FC0001FF0
7FE0003FE0
3FF0007FE0
3FF000FFE0
1FFC01FFC0
1FFF8FFFC0
0FFFFFFF80
07FFFFFF00
03FFFFFE00
01FFFFFC00
00FFFFF000
003FFFC000
0003FE0000
ENDCHAR
STARTCHAR 00D4
ENCODING 212
SWIDTH 780 0
DWIDTH 39 0
BBX 37 47 1 -1
BITMAP
0007FE0000
0007FF0000
000FFF8000
001FFFC000
003FDFE000
007F8FE000
007F07F000
0000000000
0000000000
0003FE0000
001FFFC000
007FFFF000
01FFFFFC00
03FFFFFE00
07FFFFFF00
0FFFFFFF80
1FFF8FFF80
1FFC01FFC0
3FF800FFE0
3FF0007FE0
7FE0003FE0
7FC0001FF0
7FC0001FF0
7FC0001FF0
FF80000FF0
FF80000FF8
FF80000FF8
FF80000FF8
FF80000FF8
FF80000FF8
FF80000FF8
FF80000FF0
7FC0001FF0
7FC0001FF0
7FC0001FF0
7FE0003FE0
3FF0007FE0
3FF000FFE0
1FFC01FFC0
1FFF8FFFC0
0FFFFFFF80
07FFFFFF00
03FFFFFE00
01FFFFFC00
00FFFFF000
003FFFC000
0003FE0000
ENDCHAR
STARTCHAR 00D5
ENCODING 213
SWIDTH 780 0
DWIDTH 39 0
BBX 37 47 1 -1
BITMAP
000F81F000
001FF3F000
003FFFF000
003FFFE000
007FFFE000
007C7FC000
007C0F0000
0000000000
0000000000
0003FE0000
001FFFC000
007FFFF000
01FFFFFC00
03FFFFFE00
07FFFFFF00
0FFFFFFF80
1FFF8FFF80
1FFC01FFC0
3FF800FFE0
3FF0007FE0
7FE0003FE0
7FC0001FF0
7FC0001FF0
7FC0001FF0
FF80000FF0
FF80000FF8
FF80000FF8
FF80000FF8
FF80000FF8
FF80000FF8
FF80000FF8
FF80000FF0
7FC0001FF0
7FC0001FF0
7FC0001FF0
7FE0003FE0
3FF0007FE0
3FF000FFE0
1FFC01FFC0
1FFF8FFFC0
0FFFFFFF80
07FFFFFF00
03FFFFFE00
01FFFFFC00
00FFFFF000
003FFFC000
0003FE0000
ENDCHAR
STARTCHAR 00D6
ENCODING 214
SWIDTH 780 0
DWIDTH 39 0
BBX 37 47 1 -1
BITMAP
007F8FE000
007F8FE000
007F8FE000
007F8FE000
007F8FE000
007F8FE000
007F8FE000
0000000000
0000000000
0003FE0000
001FFFC000
007FFFF000
01FFFFFC00
03FFFFFE00
07FFFFFF00
0FFFFFFF80
1FFF8FFF80
1FFC01FFC0
3FF800FFE0
3FF0007FE0
7FE0003FE0
7FC0001FF0
7FC0001FF0
7FC0001FF0
FF80000FF0
FF80000FF8
FF80000FF8
FF80000FF8
FF80000FF8
FF80000FF8
FF80000FF8
FF80000FF0
7FC0001FF0
7FC0001FF0
7FC0001FF0
7FE0003FE0
3FF0007FE0
3FF000FFE0
1FFC01FFC0
1FFF8FFFC0
0FFFFFFF80
07FFFFFF00
03FFFFFE00
01FFFFFC00
00FFFFF000
003FFFC000
0003FE0000
ENDCHAR
STARTCHAR 00D7
ENCODING 215
SWIDTH 520 0
DWIDTH 26 0
BBX 22 22 2 7
BITMAP
080040
1C00E0
3E01F0
7F03F8
FF87FC
7FCFFC
3FFFF0
1FFFE0
0FFFC0
07FF80
03FF00
03FF00
07FF80
0FFFC0
1FFFE0
3FFFF0
7FCFF8
FF87FC
7F03F8
3E01F0
1C00E0
080040
ENDCHAR
STARTCHAR 00D8
ENCODING 216
SWIDTH 780 0
DWIDTH 39 0
BBX 37 42 1 -3
BITMAP
0000000040
00000000E0
0003FE01F0
001FFFC3F8
007FFFF3F0
01FFFFFFE0
03FFFFFFC0
07FFFFFF80
0FFFFFFF80
1FFF9FFFC0
1FFC01FFC0
3FF800FFE0
3FF001FFE0
7FE003FFF0
7FC007FFF0
7FC00FDFF0
7FC01F9FF0
FF803F8FF0
FF803F0FF8
FF807E0FF8
FF80FC0FF8
FF81F80FF8
FF83F00FF8
FF87E00FF8
FF8FE00FF0
7FCFC01FF0
7FDF801FF0
7FFF001FF0
7FFE003FE0
3FFC007FE0
3FF800FFE0
1FFC01FFC0
1FFF8FFFC0
0FFFFFFF80
0FFFFFFF00
1FFFFFFE00
3FFFFFFC00
7E7FFFF000
FC1FFFC000
7C03FE0000
3800000000
1000000000
ENDCHAR
STARTCHAR 00D9
ENCODING 217
SWIDTH 700 0
DWIDTH 35 0
BBX 31 46 2 -1
BITMAP
03FE0000
01FE0000
00FF0000
007F8000
003F8000
001FC000
000FC000
00000000
00000000
FF8001FE
FF8001FE
FF8001FE
FF8001FE
FF8001FE
FF8001FE
FF8001FE
FF8001FE
FF8001FE
FF8001FE
FF8001FE
FF8001FE
FF8001FE
FF8001FE
FF8001FE
FF8001FE
FF8001FE
FF8001FE
FF8001FE
FF8001FE
FF8001FE
FF8001FE
FF8001FE
FF8001FE
FF8003FE
FF8003FE
7F8003FE
7FC007FC
7FE00FFC
3FFC7FFC
3FFFFFF8
1FFFFFF8
0FFFFFF0
07FFFFE0
03FFFF80
00FFFF00
001FF800
ENDCHAR
STARTCHAR 00DA
ENCODING 218
SWIDTH 700 0
DWIDTH 35 0
BBX 31 46 2 -1
BITMAP
00007F80
0000FF00
0001FE00
0001FC00
0003F800
0003F000
0007E000
00000000
00000000
FF8001FE
FF8001FE
FF8001FE
FF8001FE
FF8001FE
FF8001FE
FF8001FE
FF8001FE
FF8001FE
FF8001FE
FF8001FE
FF8001FE
FF8001FE
FF8001FE
FF8001FE
FF8001FE
FF8001FE
FF8001FE
FF8001FE
FF8001FE
FF8001FE
FF8001FE
FF8001FE
FF8001FE
FF8003FE
FF8003FE
7F8003FE
7FC007FC
7FE00FFC
3FFC7FFC
3FFFFFF8
1FFFFFF8
0FFFFFF0
07FFFFE0
03FFFF80
00FFFF00
001FF800
ENDCHAR
STARTCHAR 00DB
ENCODING 219
SWIDTH 700 0
DWIDTH 35 0
BBX 31 46 2 -1
BITMAP
001FF800
003FF800
007FFC00
00FFFE00
01FE7F00
01FC3F80
03F83F80
00000000
00000000
FF8001FE
FF8001FE
FF8001FE
FF8001FE
FF8001FE
FF8001FE
FF8001FE
FF8001FE
FF8001FE
FF8001FE
FF8001FE
FF8001FE
FF8001FE
FF8001FE
FF8001FE
FF8001FE
FF8001FE
FF8001FE
FF8001FE
FF8001FE
FF8001FE
FF8001FE
FF8001FE
FF8001FE
FF8003FE
FF8003FE
7F8003FE
7FC007FC
7FE00FFC
3FFC7FFC
3FFFFFF8
1FFFFFF8
0FFFFFF0
07FFFFE0
03FFFF80
00FFFF00
001FF800
ENDCHAR
STARTCHAR 00DC
ENCODING 220
SWIDTH 700 0
DWIDTH 35 0
BBX 31 46 2 -1
BITMAP
01FC7F80
01FC7F80
01FC7F80
01FC7F80
01FC7F80
01FC7F80
01FC7F80
00000000
00000000
FF8001FE
FF8001FE
FF8001FE
FF8001FE
FF8001FE
FF8001FE
FF8001FE
FF8001FE
FF8001FE
FF8001FE
FF8001FE
FF8001FE
FF8001FE
FF8001FE
FF8001FE
FF8001FE
FF8001FE
FF8001FE
FF8001FE
FF8001FE
FF8001FE
FF8001FE
FF8001FE
FF8001FE
FF8003FE
FF8003FE
7F8003FE
7FC007FC
7FE00FFC
3FFC7FFC
3FFFFFF8
1FFFFFF8
0FFFFFF0
07FFFFE0
03FFFF80
00FFFF00
001FF800
ENDCHAR
STARTCHAR 00DD
ENCODING 221
SWIDTH 700 0
DWIDTH 35 0
BBX 35 45 0 0
BITMAP
00003FE000
00003FC000
00007F8000
00007F0000
0000FE0000
0001FC0000
0001F80000
0000000000
0000000000
FFC0007FE0
7FC0007FC0
7FE000FFC0
3FF000FF80
1FF001FF00
1FF803FF00
0FF803FE00
07FC07FE00
07FC07FC00
03FE0FF800
03FF0FF800
01FF1FF000
00FF9FF000
00FFBFE000
007FFFC000
007FFFC000
003FFF8000
001FFF8000
001FFF0000
000FFE0000
000FFE0000
0007FC0000
0007FC0000
0007FC0000
0007FC0000
0007FC0000
0007FC0000
0007FC0000
0007FC0000
0007FC0000
0007FC0000
0007FC0000
0007FC0000
0007FC0000
0007FC0000
0007FC0000
ENDCHAR
STARTCHAR 00DE
ENCODING 222
SWIDTH 660 0
DWIDTH 33 0
BBX 29 36 3 0
BITMAP
FF000000
FF000000
FF000000
FF000000
FF000000
FF000000
FFFFF800
FFFFFE00
FFFFFF80
FFFFFFC0
FFFFFFE0
FFFFFFE0
FFFFFFF0
FF003FF0
FF001FF8
FF000FF8
FF000FF8
FF0007F8
FF0007F8
FF000FF8
FF000FF8
FF001FF8
FF003FF0
FFFFFFF0
FFFFFFE0
FFFFFFE0
FFFFFFC0
FFFFFF80
FFFFFE00
FFFFF800
FF000000
FF000000
FF000000
FF000000
FF000000
FF000000
ENDCHAR
STARTCHAR 00DF
ENCODING 223
SWIDTH 600 0
DWIDTH 30 0
BBX 26 37 2 0
BITMAP
00FF0000
07FFE000
0FFFF000
1FFFFC00
3FFFFC00
3FFFFE00
7FFFFF00
7FC0FF00
7F80FF00
FF007F00
FF007F00
FF007F00
FF007F00
FF00FE00
FF01FE00
FF1FFC00
FF1FF800
FF1FFE00
FF1FFF00
FF1FFF80
FF01FF80
FF007FC0
FF003FC0
FF003FC0
FF003FC0
FF003FC0
FF003FC0
FF003FC0
FF003FC0
FF007FC0
FF01FF80
FF1FFF80
FF1FFF00
FF1FFE00
FF1FFC00
FF1FF800
FF1FC000
ENDCHAR
STARTCHAR 00E0
ENCODING 224
SWIDTH 560 0
DWIDTH 28 0
BBX 26 38 1 -1
BITMAP
0FF80000
07F80000
03FC0000
01FC0000
00FE0000
007F0000
003F0000
00000000
00000000
00000000
007FC000
03FFF800
0FFFFE00
1FFFFF00
3FFFFF00
3FFFFF80
3FC07F80
7F807F80
7F807F80
00007F80
0000FF80
00FFFF80
0FFFFF80
1FFFFF80
3FFFFF80
7FFFFF80
FFE07F80
FF807F80
FF007F80
FF007F80
FF00FF80
FF00FF80
FFC7FF80
7FFFFF80
7FFFFF80
3FFFBF80
1FFE3FC0
03F80000
ENDCHAR
STARTCHAR 00E1
ENCODING 225
SWIDTH 560 0
DWIDTH 28 0
BBX 26 38 1 -1
BITMAP
0001FE00
0003FC00
0003F800
0007F000
000FE000
000FC000
001FC000
00000000
00000000
00000000
007FC000
03FFF800
0FFFFE00
1FFFFF00
3FFFFF00
3FFFFF80
3FC07F80
7F807F80
7F807F80
00007F80
0000FF80
00FFFF80
0FFFFF80
1FFFFF80
3FFFFF80
7FFFFF80
FFE07F80
FF807F80
FF007F80
FF007F80
FF00FF80
FF00FF80
FFC7FF80
7FFFFF80
7FFFFF80
3FFFBF80
1FFE3FC0
03F80000
ENDCHAR
STARTCHAR 00E2
ENCODING 226
SWIDTH 560 0
DWIDTH 28 0
BBX 26 38 1 -1
BITMAP
007FC000
00FFE000
01FFF000
03FFF800
07FBFC00
07F1FC00
0FE0FE00
00000000
00000000
00000000
007FC000
03FFF800
0FFFFE00
1FFFFF00
3FFFFF00
3FFFFF80
3FC07F80
7F807F80
7F807F80
00007F80
0000FF80
00FFFF80
0FFFFF80
1FFFFF80
3FFFFF80
7FFFFF80
FFE07F80
FF807F80
FF007F80
FF007F80
FF00FF80
FF00FF80
FFC7FF80
7FFFFF80
7FFFFF80
3FFFBF80
1FFE3FC0
03F80000
ENDCHAR
STARTCHAR 00E3
ENCODING 227
SWIDTH 560 0
DWIDTH 28 0
BBX 26 37 1 -1
BITMAP
01F03E00
03FE7E00
07FFFE00
07FFFC00
0FFFFC00
0F8FF800
0F81E000
00000000
00000000
007FC000
03FFF800
0FFFFE00
1FFFFF00
3FFFFF00
3FFFFF80
3FC07F80
7F807F80
7F807F80
00007F80
0000FF80
00FFFF80
0FFFFF80
1FFFFF80
3FFFFF80
7FFFFF80
FFE07F80
FF807F80
FF007F80
FF007F80
FF00FF80
FF00FF80
FFC7FF80
7FFFFF80
7FFFFF80
3FFFBF80
1FFE3FC0
03F80000
ENDCHAR
STARTCHAR 00E4
ENCODING 228
SWIDTH 560 0
DWIDTH 28 0
BBX 26 37 1 -1
BITMAP
0FF1FE00
0FF1FE00
0FF1FE00
0FF1FE00
0FF1FE00
0FF1FE00
0FF1FE00
00000000
00000000
007FC000
03FFF800
0FFFFE00
1FFFFF00
3FFFFF00
3FFFFF80
3FC07F80
7F807F80
7F807F80
00007F80
0000FF80
00FFFF80
0FFFFF80
1FFFFF80
3FFFFF80
7FFFFF80
FFE07F80
FF807F80
FF007F80
FF007F80
FF00FF80
FF00FF80
FFC7FF80
7FFFFF80
7FFFFF80
3FFFBF80
1FFE3FC0
03F80000
ENDCHAR
STARTCHAR 00E5
ENCODING 229
SWIDTH 560 0
DWIDTH 28 0
BBX 26 45 1 -1
BITMAP
001F0000
007FC000
00FFE000
01FFF000
03FBF800
03E0F800
03E0F800
03E0F800
03E0F800
03E0F800
03FBF800
01FFF000
00FFE000
007FC000
001F0000
00000000
00000000
007FC000
03FFF800
0FFFFE00
1FFFFF00
3FFFFF00
3FFFFF80
3FC07F80
7F807F80
7F807F80
00007F80
0000FF80
00FFFF80
0FFFFF80
1FFFFF80
3FFFFF80
7FFFFF80
FFE07F80
FF807F80
FF007F80
FF007F80
FF00FF80
FF00FF80
FFC7FF80
7FFFFF80
7FFFFF80
3FFFBF80
1FFE3FC0
03F80000
ENDCHAR
STARTCHAR 00E6
ENCODING 230
SWIDTH 900 0
DWIDTH 45 0
BBX 43 28 1 -1
BITMAP
007FC03FC000
03FFF8FFF000
0FFFFFFFFC00
1FFFFFFFFE00
3FFFFFFFFF00
3FFFFFFFFF00
3FC07FE07F80
7F807FC03F80
7F807F801FC0
00007F801FC0
0000FF801FC0
00FFFFFFFFC0
0FFFFFFFFFE0
1FFFFFFFFFE0
3FFFFFFFFFE0
7FFE7FFFFFE0
FFC07F800000
FF007F800000
FF007F800000
FF007FC01FC0
FF00FFC03FC0
FF80FFE07F80
FFC7FFFFFF80
7FFFFFFFFF00
7FFFF7FFFE00
3FFFE3FFFC00
0FFF80FFF800
03FE003FC000
ENDCHAR
STARTCHAR 00E7
ENCODING 231
SWIDTH 560 0
DWIDTH 28 0
BBX 26 39 1 -12
BITMAP
007F8000
01FFF000
07FFFC00
0FFFFE00
1FFFFF00
3FFFFF00
3FFBFF80
7FC07F80
7F803FC0
7F803FC0
FF003FC0
FF000000
FF000000
FF000000
FF000000
FF000000
FF000000
FF003FC0
7F803FC0
7F803FC0
7FC07F80
3FFBFF80
3FFFFF80
1FFFFF00
0FFFFE00
07FFFC00
01FFF000
007FC000
000E0000
001C0000
003F8000
003FE000
0003E000
0003F000
0003F000
0003F000
007FE000
007FC000
007F0000
ENDCHAR
STARTCHAR 00E8
ENCODING 232
SWIDTH 580 0
DWIDTH 29 0
BBX 27 38 1 -1
BITMAP
0FF80000
07F80000
03FC0000
01FC0000
00FE0000
007F0000
003F0000
00000000
00000000
00000000
007F8000
01FFF000
07FFFC00
0FFFFE00
1FFFFF00
3FFFFF00
3FC0FF80
7F803F80
7F803FC0
7F001FC0
FF001FC0
FFFFFFE0
FFFFFFE0
FFFFFFE0
FFFFFFE0
FFFFFFE0
FF000000
7F000000
7F000000
7F803FC0
7FC03FC0
3FE07F80
1FFFFF80
1FFFFF00
0FFFFE00
07FFFC00
01FFF000
007FC000
ENDCHAR
STARTCHAR 00E9
ENCODING 233
SWIDTH 580 0
DWIDTH 29 0
BBX 27 38 1 -1
BITMAP
0001FE00
0003FC00
0003F800
0007F000
000FE000
000FC000
001FC000
00000000
00000000
00000000
007F8000
01FFF000
07FFFC00
0FFFFE00
1FFFFF00
3FFFFF00
3FC0FF80
7F803F80
7F803FC0
7F001FC0
FF001FC0
FFFFFFE0
FFFFFFE0
FFFFFFE0
FFFFFFE0
FFFFFFE0
FF000000
7F000000
7F000000
7F803FC0
7FC03FC0
3FE07F80
1FFFFF80
1FFFFF00
0FFFFE00
07FFFC00
01FFF000
007FC000
ENDCHAR
STARTCHAR 00EA
ENCODING 234
SWIDTH 580 0
DWIDTH 29 0
BBX 27 38 1 -1
BITMAP
007FC000
00FFE000
01FFF000
03FFF800
07FBF800
07F1FC00
0FE0FE00
00000000
00000000
00000000
007F8000
01FFF000
07FFFC00
0FFFFE00
1FFFFF00
3FFFFF00
3FC0FF80
7F803F80
7F803FC0
7F001FC0
FF001FC0
FFFFFFE0
FFFFFFE0
FFFFFFE0
FFFFFFE0
FFFFFFE0
FF000000
7F000000
7F000000
7F803FC0
7FC03FC0
3FE07F80
1FFFFF80
1FFFFF00
0FFFFE00
07FFFC00
01FFF000
007FC000
ENDCHAR
STARTCHAR 00EB
ENCODING 235
SWIDTH 580 0
DWIDTH 29 0
BBX 27 37 1 -1
BITMAP
0FF1FE00
0FF1FE00
0FF1FE00
0FF1FE00
0FF1FE00
0FF1FE00
0FF1FE00
00000000
00000000
007F8000
01FFF000
07FFFC00
0FFFFE00
1FFFFF00
3FFFFF00
3FC0FF80
7F803F80
7F803FC0
7F001FC0
FF001FC0
FFFFFFE0
FFFFFFE0
FFFFFFE0
FFFFFFE0
FFFFFFE0
FF000000
7F000000
7F000000
7F803FC0
7FC03FC0
3FE07F80
1FFFFF80
1FFFFF00
0FFFFE00
07FFFC00
01FFF000
007FC000
ENDCHAR
STARTCHAR 00EC
ENCODING 236
SWIDTH 240 0
DWIDTH 12 0
BBX 11 37 -1 0
BITMAP
FF00
7F00
7F00
3F80
1F80
1F80
0FC0
0000
0000
0000
0000
1FE0
1FE0
1FE0
1FE0
1FE0
1FE0
1FE0
1FE0
1FE0
1FE0
1FE0
1FE0
1FE0
1FE0
1FE0
1FE0
1FE0
1FE0
1FE0
1FE0
1FE0
1FE0
1FE0
1FE0
1FE0
1FE0
ENDCHAR
STARTCHAR 00ED
ENCODING 237
SWIDTH 240 0
DWIDTH 12 0
BBX 11 37 2 0
BITMAP
0FE0
1FE0
1FC0
1F80
3F80
3F00
3E00
0000
0000
0000
0000
FF00
FF00
FF00
FF00
FF00
FF00
FF00
FF00
FF00
FF00
FF00
FF00
FF00
FF00
FF00
FF00
FF00
FF00
FF00
FF00
FF00
FF00
FF00
FF00
FF00
FF00
ENDCHAR
STARTCHAR 00EE
ENCODING 238
SWIDTH 240 0
DWIDTH 12 0
BBX 18 37 -3 0
BITMAP
07FC00
0FFC00
1FFE00
1FFE00
3FFF00
3F3F80
7F1F80
FE1FC0
000000
000000
000000
07F800
07F800
07F800
07F800
07F800
07F800
07F800
07F800
07F800
07F800
07F800
07F800
07F800
07F800
07F800
07F800
07F800
07F800
07F800
07F800
07F800
07F800
07F800
07F800
07F800
07F800
ENDCHAR
STARTCHAR 00EF
ENCODING 239
SWIDTH 240 0
DWIDTH 12 0
BBX 16 36 -2 0
BITMAP
FE7F
FE7F
FE7F
FE7F
FE7F
FE7F
FE7F
0000
0000
0000
0FF0
0FF0
0FF0
0FF0
0FF0
0FF0
0FF0
0FF0
0FF0
0FF0
0FF0
0FF0
0FF0
0FF0
0FF0
0FF0
0FF0
0FF0
0FF0
0FF0
0FF0
0FF0
0FF0
0FF0
0FF0
0FF0
ENDCHAR
STARTCHAR 00F0
ENCODING 240
SWIDTH 580 0
DWIDTH 29 0
BBX 27 37 1 -1
BITMAP
01FF0300
00FFBF00
007FFF00
003FFF00
007FFF00
03FFF800
03FFF800
03FFFC00
03E1FC00
0201FE00
0000FF00
007FFF00
03FFFF80
07FFFF80
0FFFFF80
1FFFFFC0
3FFFFFC0
3FE0FFC0
7FC03FE0
7F803FE0
FF801FE0
FF001FE0
FF001FE0
FF001FE0
FF001FE0
FF001FE0
FF001FE0
7F801FE0
7F803FC0
7FC07FC0
3FF1FFC0
3FFFFF80
1FFFFF00
0FFFFE00
07FFFC00
01FFF800
003FC000
ENDCHAR
STARTCHAR 00F1
ENCODING 241
SWIDTH 580 0
DWIDTH 29 0
BBX 25 36 2 0
BITMAP
03E07C00
07FC7C00
0FFFFC00
0FFFF800
1FFFF800
1F1FF000
1F03E000
00000000
00000000
0007E000
FF1FF800
FF7FFC00
FFFFFE00
FFFFFF00
FFFFFF00
FFFFFF80
FFC0FF80
FF807F80
FF807F80
FF007F80
FF007F80
FF007F80
FF007F80
FF007F80
FF007F80
FF007F80
FF007F80
FF007F80
FF007F80
FF007F80
FF007F80
FF007F80
FF007F80
FF007F80
FF007F80
FF007F80
ENDCHAR
STARTCHAR 00F2
ENCODING 242
SWIDTH 580 0
DWIDTH 29 0
BBX 27 38 1 -1
BITMAP
07F80000
07F80000
03FC0000
01FE0000
00FE0000
007F0000
003F8000
00000000
00000000
00000000
003FC000
01FFF800
07FFFC00
0FFFFE00
1FFFFF00
3FFFFF80
3FF9FFC0
7FC07FC0
7F803FC0
7F801FE0
FF001FE0
FF001FE0
FF001FE0
FF001FE0
FF001FE0
FF001FE0
FF001FE0
FF001FE0
7F801FE0
7F803FC0
7FC07FC0
3FF1FFC0
3FFFFF80
1FFFFF00
0FFFFE00
07FFFC00
01FFF800
003FC000
ENDCHAR
STARTCHAR 00F3
ENCODING 243
SWIDTH 580 0
DWIDTH 29 0
BBX 27 38 1 -1
BITMAP
0001FE00
0003FC00
0003F800
0007F800
0007F000
000FE000
001FC000
00000000
00000000
00000000
003FC000
01FFF800
07FFFC00
0FFFFE00
1FFFFF00
3FFFFF80
3FF9FFC0
7FC07FC0
7F803FC0
7F801FE0
FF001FE0
FF001FE0
FF001FE0
FF001FE0
FF001FE0
FF001FE0
FF001FE0
FF001FE0
7F801FE0
7F803FC0
7FC07FC0
3FF1FFC0
3FFFFF80
1FFFFF00
0FFFFE00
07FFFC00
01FFF800
003FC000
ENDCHAR
STARTCHAR 00F4
ENCODING 244
SWIDTH 580 0
DWIDTH 29 0
BBX 27 38 1 -1
BITMAP
007FC000
00FFE000
01FFF000
03FFF800
03FBFC00
07F1FE00
0FE0FE00
00000000
00000000
00000000
003FC000
01FFF800
07FFFC00
0FFFFE00
1FFFFF00
3FFFFF80
3FF9FFC0
7FC07FC0
7F803FC0
7F801FE0
FF001FE0
FF001FE0
FF001FE0
FF001FE0
FF001FE0
FF001FE0
FF001FE0
FF001FE0
7F801FE0
7F803FC0
7FC07FC0
3FF1FFC0
3FFFFF80
1FFFFF00
0FFFFE00
07FFFC00
01FFF800
003FC000
ENDCHAR
STARTCHAR 00F5
ENCODING 245
SWIDTH 580 0
DWIDTH 29 0
BBX 27 37 1 -1
BITMAP
01F03E00
03FE3E00
07FFFE00
07FFFE00
0FFFFC00
0F8FF800
0F80E000
00000000
00000000
003FC000
01FFF800
07FFFC00
0FFFFE00
1FFFFF00
3FFFFF80
3FF9FFC0
7FC07FC0
7F803FC0
7F801FE0
FF001FE0
FF001FE0
FF001FE0
FF001FE0
FF001FE0
FF001FE0
FF001FE0
FF001FE0
7F801FE0
7F803FC0
7FC07FC0
3FF1FFC0
3FFFFF80
1FFFFF00
0FFFFE00
07FFFC00
01FFF800
003FC000
ENDCHAR
STARTCHAR 00F6
ENCODING 246
SWIDTH 580 0
DWIDTH 29 0
BBX 27 37 1 -1
BITMAP
07F1FE00
07F1FE00
07F1FE00
07F1FE00
07F1FE00
07F1FE00
07F1FE00
00000000
00000000
003FC000
01FFF800
07FFFC00
0FFFFE00
1FFFFF00
3FFFFF80
3FF9FFC0
7FC07FC0
7F803FC0
7F801FE0
FF001FE0
FF001FE0
FF001FE0
FF001FE0
FF001FE0
FF001FE0
FF001FE0
FF001FE0
7F801FE0
7F803FC0
7FC07FC0
3FF1FFC0
3FFFFF80
1FFFFF00
0FFFFE00
07FFFC00
01FFF800
003FC000
ENDCHAR
STARTCHAR 00F7
ENCODING 247
SWIDTH 520 0
DWIDTH 26 0
BBX 24 25 1 5
BITMAP
007F00
007F00
007F00
007F00
007F00
007F00
000000
000000
000000
FFFFFF
FFFFFF
FFFFFF
FFFFFF
FFFFFF
FFFFFF
FFFFFF
000000
000000
000000
007F00
007F00
007F00
007F00
007F00
007F00
ENDCHAR
STARTCHAR 00F8
ENCODING 248
SWIDTH 580 0
DWIDTH 29 0
BBX 27 30 1 -3
BITMAP
000000C0
003FC1E0
01FFFBE0
07FFFFC0
0FFFFF80
1FFFFF00
3FFFFF80
3FE07FC0
7FC07FC0
7F80FFC0
7F01FFE0
FF03FFE0
FF07DFE0
FF0FCFE0
FF0F8FE0
FF1F0FE0
FF3E0FE0
FF7C1FE0
FFF81FE0
7FF81FE0
7FF01FC0
7FE03FC0
3FE07FC0
3FFFFF80
1FFFFF00
3FFFFE00
7FFFFC00
FDFFF800
783FC000
30000000
ENDCHAR
STARTCHAR 00F9
ENCODING 249
SWIDTH 580 0
DWIDTH 29 0
BBX 25 38 2 -1
BITMAP
1FF00000
0FF00000
07F80000
03F80000
01FC0000
00FE0000
007E0000
00000000
00000000
00000000
00000000
FF007F80
FF007F80
FF007F80
FF007F80
FF007F80
FF007F80
FF007F80
FF007F80
FF007F80
FF007F80
FF007F80
FF007F80
FF007F80
FF007F80
FF007F80
FF007F80
FF007F80
FF007F80
FF80FF80
FF81FF80
7FFFFF80
7FFFFF80
7FFFFF80
3FFFFF80
1FFF7F80
0FFE7F80
03F00000
ENDCHAR
STARTCHAR 00FA
ENCODING 250
SWIDTH 580 0
DWIDTH 29 0
BBX 25 38 2 -1
BITMAP
0003FC00
0007F800
000FF000
000FE000
001FC000
001F8000
003F0000
00000000
00000000
00000000
00000000
FF007F80
FF007F80
FF007F80
FF007F80
FF007F80
FF007F80
FF007F80
FF007F80
FF007F80
FF007F80
FF007F80
FF007F80
FF007F80
FF007F80
FF007F80
FF007F80
FF007F80
FF007F80
FF80FF80
FF81FF80
7FFFFF80
7FFFFF80
7FFFFF80
3FFFFF80
1FFF7F80
0FFE7F80
03F00000
ENDCHAR
STARTCHAR 00FB
ENCODING 251
SWIDTH 580 0
DWIDTH 29 0
BBX 25 38 2 -1
BITMAP
00FF8000
01FFC000
03FFE000
07FFF000
0FF7F000
1FE3F800
1FC1FC00
00000000
00000000
00000000
00000000
FF007F80
FF007F80
FF007F80
FF007F80
FF007F80
FF007F80
FF007F80
FF007F80
FF007F80
FF007F80
FF007F80
FF007F80
FF007F80
FF007F80
FF007F80
FF007F80
FF007F80
FF007F80
FF80FF80
FF81FF80
7FFFFF80
7FFFFF80
7FFFFF80
3FFFFF80
1FFF7F80
0FFE7F80
03F00000
ENDCHAR
STARTCHAR 00FC
ENCODING 252
SWIDTH 580 0
DWIDTH 29 0
BBX 25 37 2 -1
BITMAP
1FE3F800
1FE3F800
1FE3F800
1FE3F800
1FE3F800
1FE3F800
1FE3F800
00000000
00000000
00000000
FF007F80
FF007F80
FF007F80
FF007F80
FF007F80
FF007F80
FF007F80
FF007F80
FF007F80
FF007F80
FF007F80
FF007F80
FF007F80
FF007F80
FF007F80
FF007F80
FF007F80
FF007F80
FF80FF80
FF81FF80
7FFFFF80
7FFFFF80
7FFFFF80
3FFFFF80
1FFF7F80
0FFE7F80
03F00000
ENDCHAR
STARTCHAR 00FD
ENCODING 253
SWIDTH 560 0
DWIDTH 28 0
BBX 27 47 0 -10
BITMAP
0001FE00
0003FC00
0003FC00
0007F800
0007F000
000FE000
001FC000
00000000
00000000
00000000
00000000
FF801FE0
7F801FE0
7F801FE0
7FC03FC0
3FC03FC0
3FC03FC0
3FC07F80
1FE07F80
1FE07F80
1FE07F00
0FF0FF00
0FF0FF00
0FF0FE00
07F0FE00
07F9FE00
07F9FC00
03F9FC00
03F9F800
03FFF800
01FFF800
01FFF000
00FFF000
00FFF000
00FFE000
00FFE000
007FE000
007FC000
00FFC000
00FFC000
01FF8000
3FFF8000
3FFF0000
3FFE0000
3FFC0000
3FF80000
3FE00000
ENDCHAR
STARTCHAR 00FE
ENCODING 254
SWIDTH 600 0
DWIDTH 30 0
BBX 27 46 2 -10
BITMAP
FF000000
FF000000
FF000000
FF000000
FF000000
FF000000
FF000000
FF000000
FF000000
FF0FE000
FF3FF800
FF7FFE00
FFFFFF00
FFFFFF00
FFFFFF80
FFF1FFC0
FFC07FC0
FF803FC0
FF803FC0
FF001FE0
FF001FE0
FF001FE0
FF001FE0
FF001FE0
FF001FE0
FF001FE0
FF001FE0
FF803FC0
FF803FC0
FFC07FC0
FFF1FFC0
FFFFFF80
FFFFFF00
FFFFFF00
FF7FFE00
FF3FF800
FF0FE000
FF000000
FF000000
FF000000
FF000000
FF000000
FF000000
FF000000
FF000000
FF000000
ENDCHAR
STARTCHAR 00FF
ENCODING 255
SWIDTH 560 0
DWIDTH 28 0
BBX 27 46 0 -10
BITMAP
07F1FE00
07F1FE00
07F1FE00
07F1FE00
07F1FE00
07F1FE00
07F1FE00
00000000
00000000
00000000
FF801FE0
7F801FE0
7F801FE0
7FC03FC0
3FC03FC0
3FC03FC0
3FC07F80
1FE07F80
1FE07F80
1FE07F00
0FF0FF00
0FF0FF00
0FF0FE00
07F0FE00
07F9FE00
07F9FC00
03F9FC00
03F9F800
03FFF800
01FFF800
01FFF000
00FFF000
00FFF000
00FFE000
00FFE000
007FE000
007FC000
00FFC000
00FFC000
01FF8000
3FFF8000
3FFF0000
3FFE0000
3FFC0000
3FF80000
3FE00000
ENDCHAR
STARTCHAR 0100
ENCODING 256
SWIDTH 740 0
DWIDTH 37 0
BBX 36 43 0 0
BITMAP
003FFFE000
003FFFE000
003FFFE000
003FFFE000
003FFFE000
0000000000
0000000000
0007FE0000
0007FF0000
000FFF0000
000FFF0000
001FFF8000
001FFF8000
001FFFC000
003FFFC000
003FFFC000
003F9FE000
007F9FE000
007F9FE000
007F0FF000
00FF0FF000
00FF0FF800
01FE07F800
01FE07F800
01FE07FC00
03FC03FC00
03FC03FC00
03FC03FE00
07FC01FE00
07F801FF00
07FFFFFF00
0FFFFFFF00
0FFFFFFF80
1FFFFFFF80
1FFFFFFF80
1FFFFFFFC0
3FFFFFFFC0
3FE0003FE0
3FC0003FE0
7FC0003FE0
7F80001FF0
7F80001FF0
FF80001FF0
ENDCHAR
STARTCHAR 0101
ENCODING 257
SWIDTH 560 0
DWIDTH 28 0
BBX 26 35 1 -1
BITMAP
07FFFC00
07FFFC00
07FFFC00
07FFFC00
07FFFC00
00000000
00000000
007FC000
03FFF800
0FFFFE00
1FFFFF00
3FFFFF00
3FFFFF80
3FC07F80
7F807F80
7F807F80
00007F80
0000FF80
00FFFF80
0FFFFF80
1FFFFF80
3FFFFF80
7FFFFF80
FFE07F80
FF807F80
FF007F80
FF007F80
FF00FF80
FF00FF80
FFC7FF80
7FFFFF80
7FFFFF80
3FFFBF80
1FFE3FC0
03F80000
ENDCHAR
STARTCHAR 0102
ENCODING 258
SWIDTH 740 0
DWIDTH 37 0
BBX 36 45 0 0
BITMAP
007E07E000
003F07E000
003FFFC000
001FFF8000
001FFF8000
0007FE0000
0001F80000
0000000000
0000000000
0007FE0000
0007FF0000
000FFF0000
000FFF0000
001FFF8000
001FFF8000
001FFFC000
003FFFC000
003FFFC000
003F9FE000
007F9FE000
007F9FE000
007F0FF000
00FF0FF000
00FF0FF800
01FE07F800
01FE07F800
01FE07FC00
03FC03FC00
03FC03FC00
03FC03FE00
07FC01FE00
07F801FF00
07FFFFFF00
0FFFFFFF00
0FFFFFFF80
1FFFFFFF80
1FFFFFFF80
1FFFFFFFC0
3FFFFFFFC0
3FE0003FE0
3FC0003FE0
7FC0003FE0
7F80001FF0
7F80001FF0
FF80001FF0
ENDCHAR
STARTCHAR 0103
ENCODING 259
SWIDTH 560 0
DWIDTH 28 0
BBX 26 37 1 -1
BITMAP
07C0FC00
07E0FC00
03FFF800
03FFF800
01FFF000
00FFE000
003F8000
00000000
00000000
007FC000
03FFF800
0FFFFE00
1FFFFF00
3FFFFF00
3FFFFF80
3FC07F80
7F807F80
7F807F80
00007F80
0000FF80
00FFFF80
0FFFFF80
1FFFFF80
3FFFFF80
7FFFFF80
FFE07F80
FF807F80
FF007F80
FF007F80
FF00FF80
FF00FF80
FFC7FF80
7FFFFF80
7FFFFF80
3FFFBF80
1FFE3FC0
03F80000
ENDCHAR
STARTCHAR 0104
ENCODING 260
SWIDTH 740 0
DWIDTH 37 0
BBX 37 46 0 -10
BITMAP
0007FE0000
0007FF0000
000FFF0000
000FFF0000
001FFF8000
001FFF8000
001FFFC000
003FFFC000
003FFFC000
003F9FE000
007F9FE000
007F9FE000
007F0FF000
00FF0FF000
00FF0FF800
01FE07F800
01FE07F800
01FE07FC00
03FC03FC00
03FC03FC00
03FC03FE00
07FC01FE00
07F801FF00
07FFFFFF00
0FFFFFFF00
0FFFFFFF80
1FFFFFFF80
1FFFFFFF80
1FFFFFFFC0
3FFFFFFFC0
3FE0003FE0
3FC0003FE0
7FC0003FE0
7F80001FF0
7F80001FF0
FF80001FF0
00000003E0
0000000FC0
0000001F00
0000003F00
0000003F00
0000003F88
0000003FF8
0000001FF8
0000001FF8
00000003F8
ENDCHAR
STARTCHAR 0105
ENCODING 261
SWIDTH 560 0
DWIDTH 28 0
BBX 26 37 1 -10
BITMAP
007FC000
03FFF800
0FFFFE00
1FFFFF00
3FFFFF00
3FFFFF80
3FC07F80
7F807F80
7F807F80
00007F80
0000FF80
007FFF80
07FFFF80
1FFFFF80
3FFFFF80
7FFFFF80
7FE07F80
FF807F80
FF007F80
FF007F80
FF00FF80
FF00FF80
FFC7FF80
7FFFFF80
7FFFFF80
3FFFBF80
1FFE3FC0
03F83FC0
00003F00
00007C00
0000F800
0000F800
0001FC00
0000FFC0
0000FFC0
00007FC0
00001FC0
ENDCHAR
STARTCHAR 0106
ENCODING 262
SWIDTH 740 0
DWIDTH 37 0
BBX 35 47 1 -1
BITMAP
00001FE000
00003FC000
00003F8000
00007F0000
0000FE0000
0000FE0000
0001FC0000
0000000000
0000000000
0007FC0000
003FFFC000
00FFFFF000
01FFFFF800
07FFFFFC00
07FFFFFE00
0FFFFFFF00
1FFF1FFF80
3FF801FF80
3FF000FFC0
3FE0007FC0
7FE0007FC0
7FC0003FE0
7FC0003FE0
7F80000000
FF80000000
FF80000000
FF80000000
FF80000000
FF80000000
FF80000000
FF80000000
FF80000000
7F80003FE0
7FC0003FE0
7FC0003FC0
7FE0007FC0
3FE0007FC0
3FF000FFC0
1FF803FF80
1FFF1FFF80
0FFFFFFF00
07FFFFFE00
03FFFFFC00
01FFFFF800
00FFFFF000
003FFFC000
0007FE0000
ENDCHAR
STARTCHAR 0107
ENCODING 263
SWIDTH 560 0
DWIDTH 28 0
BBX 26 38 1 -1
BITMAP
0001FE00
0003FC00
0007F800
0007F000
000FE000
000FC000
001F8000
00000000
00000000
00000000
007F8000
01FFF000
07FFFC00
0FFFFE00
1FFFFF00
3FFFFF00
3FFBFF80
7FC07F80
7F803FC0
7F803FC0
FF003FC0
FF000000
FF000000
FF000000
FF000000
FF000000
FF000000
FF803FC0
7F803FC0
7F803FC0
7FC07F80
3FFBFF80
3FFFFF00
1FFFFF00
0FFFFE00
07FFFC00
01FFF000
007FC000
ENDCHAR
STARTCHAR 0108
ENCODING 264
SWIDTH 740 0
DWIDTH 37 0
BBX 35 47 1 -1
BITMAP
0007FE0000
000FFF0000
001FFF0000
001FFF8000
003F9FC000
007F0FE000
00FE07F000
0000000000
0000000000
0007FC0000
003FFFC000
00FFFFF000
01FFFFF800
07FFFFFC00
07FFFFFE00
0FFFFFFF00
1FFF1FFF80
3FF801FF80
3FF000FFC0
3FE0007FC0
7FE0007FC0
7FC0003FE0
7FC0003FE0
7F80000000
FF80000000
FF80000000
FF80000000
FF80000000
FF80000000
FF80000000
FF80000000
FF80000000
7F80003FE0
7FC0003FE0
7FC0003FC0
7FE0007FC0
3FE0007FC0
3FF000FFC0
1FF803FF80
1FFF1FFF80
0FFFFFFF00
07FFFFFE00
03FFFFFC00
01FFFFF800
00FFFFF000
003FFFC000
0007FE0000
ENDCHAR
STARTCHAR 0109
ENCODING 265
SWIDTH 560 0
DWIDTH 28 0
BBX 26 38 1 -1
BITMAP
007FC000
00FFE000
01FFF000
03FFF800
07FBF800
07F1FC00
0FE0FE00
00000000
00000000
00000000
007F8000
01FFF000
07FFFC00
0FFFFE00
1FFFFF00
3FFFFF00
3FFBFF80
7FC07F80
7F803FC0
7F803FC0
FF003FC0
FF000000
FF000000
FF000000
FF000000
FF000000
FF000000
FF803FC0
7F803FC0
7F803FC0
7FC07F80
3FFBFF80
3FFFFF00
1FFFFF00
0FFFFE00
07FFFC00
01FFF000
007FC000
ENDCHAR
STARTCHAR 010A
ENCODING 266
SWIDTH 740 0
DWIDTH 37 0
BBX 35 47 1 -1
BITMAP
0003FC0000
0003FC0000
0003FC0000
0003FC0000
0003FC0000
0003FC0000
0003FC0000
0000000000
0000000000
0007FC0000
003FFFC000
00FFFFF000
01FFFFF800
07FFFFFC00
07FFFFFE00
0FFFFFFF00
1FFF1FFF80
3FF801FF80
3FF000FFC0
3FE0007FC0
7FE0007FC0
7FC0003FE0
7FC0003FE0
7F80000000
FF80000000
FF80000000
FF80000000
FF80000000
FF80000000
FF80000000
FF80000000
FF80000000
7F80003FE0
7FC0003FE0
7FC0003FC0
7FE0007FC0
3FE0007FC0
3FF000FFC0
1FF803FF80
1FFF1FFF80
0FFFFFFF00
07FFFFFE00
03FFFFFC00
01FFFFF800
00FFFFF000
003FFFC000
0007FE0000
ENDCHAR
STARTCHAR 010B
ENCODING 267
SWIDTH 560 0
DWIDTH 28 0
BBX 26 37 1 -1
BITMAP
003F8000
003F8000
003F8000
003F8000
003F8000
003F8000
003F8000
00000000
00000000
007F8000
01FFF000
07FFFC00
0FFFFE00
1FFFFF00
3FFFFF00
3FFBFF80
7FC07F80
7F803FC0
7F803FC0
FF003FC0
FF000000
FF000000
FF000000
FF000000
FF000000
FF000000
FF803FC0
7F803FC0
7F803FC0
7FC07F80
3FFBFF80
3FFFFF00
1FFFFF00
0FFFFE00
07FFFC00
01FFF000
007FC000
ENDCHAR
STARTCHAR 010C
ENCODING 268
SWIDTH 740 0
DWIDTH 37 0
BBX 35 47 1 -1
BITMAP
00FE07F000
007F0FE000
003F9FC000
001FFF8000
000FFF0000
000FFF0000
0007FE0000
0000000000
0000000000
0007FC0000
003FFFC000
00FFFFF000
01FFFFF800
07FFFFFC00
07FFFFFE00
0FFFFFFF00
1FFF1FFF80
3FF801FF80
3FF000FFC0
3FE0007FC0
7FE0007FC0
7FC0003FE0
7FC0003FE0
7F80000000
FF80000000
FF80000000
FF80000000
FF80000000
FF80000000
FF80000000
FF80000000
FF80000000
7F80003FE0
7FC0003FE0
7FC0003FC0
7FE0007FC0
3FE0007FC0
3FF000FFC0
1FF803FF80
1FFF1FFF80
0FFFFFFF00
07FFFFFE00
03FFFFFC00
01FFFFF800
00FFFFF000
003FFFC000
0007FE0000
ENDCHAR
STARTCHAR 010D
ENCODING 269
SWIDTH 560 0
DWIDTH 28 0
BBX 26 38 1 -1
BITMAP
0FE0FE00
0FF1FC00
07FBFC00
03FFF800
01FFF000
00FFE000
007FC000
00000000
00000000
00000000
007F8000
01FFF000
07FFFC00
0FFFFE00
1FFFFF00
3FFFFF00
3FFBFF80
7FC07F80
7F803FC0
7F803FC0
FF003FC0
FF000000
FF000000
FF000000
FF000000
FF000000
FF000000
FF803FC0
7F803FC0
7F803FC0
7FC07F80
3FFBFF80
3FFFFF00
1FFFFF00
0FFFFE00
07FFFC00
01FFF000
007FC000
ENDCHAR
STARTCHAR 010E
ENCODING 270
SWIDTH 740 0
DWIDTH 37 0
BBX 32 45 3 0
BITMAP
07F07F00
03F8FF00
01FDFE00
01FFFC00
00FFF800
007FF000
003FE000
00000000
00000000
FFFFE000
FFFFFE00
FFFFFF80
FFFFFFC0
FFFFFFF0
FFFFFFF0
FFFFFFF8
FF007FFC
FF000FFC
FF0007FE
FF0003FE
FF0003FF
FF0001FF
FF0001FF
FF0001FF
FF0001FF
FF0000FF
FF0000FF
FF0000FF
FF0000FF
FF0000FF
FF0001FF
FF0001FF
FF0001FF
FF0003FF
FF0003FE
FF0007FE
FF001FFC
FF007FFC
FFFFFFF8
FFFFFFF0
FFFFFFF0
FFFFFFC0
FFFFFF80
FFFFFE00
FFFFE000
ENDCHAR
STARTCHAR 010F
ENCODING 271
SWIDTH 760 0
DWIDTH 38 0
BBX 37 37 1 -1
BITMAP
00001FE3F8
00001FE3F8
00001FE7F0
00001FE7F0
00001FE7E0
00001FE7E0
00001FE7E0
00001FE7C0
00001FE000
00FE1FE000
03FF9FE000
0FFFDFE000
1FFFFFE000
1FFFFFE000
3FFFFFE000
3FF1FFE000
7FC07FE000
7F803FE000
7F803FE000
FF801FE000
FF001FE000
FF001FE000
FF001FE000
FF001FE000
FF001FE000
FF001FE000
FF001FE000
7F803FE000
7F803FE000
7FC07FE000
3FF1FFE000
3FFFFFE000
1FFFFFE000
1FFFFFE000
0FFFDFE000
03FF9FE000
00FE000000
ENDCHAR
STARTCHAR 0110
ENCODING 272
SWIDTH 760 0
DWIDTH 38 0
BBX 37 36 0 0
BITMAP
0FFFFF0000
0FFFFFE000
0FFFFFF800
0FFFFFFC00
0FFFFFFF00
0FFFFFFF80
0FFFFFFF80
0FF007FFC0
0FF000FFE0
0FF0007FE0
0FF0003FE0
0FF0003FF0
0FF0001FF0
0FF0001FF0
0FF0001FF0
0FF0000FF0
FFFFF00FF8
FFFFF00FF8
FFFFF00FF8
FFFFF00FF8
0FF0000FF0
0FF0001FF0
0FF0001FF0
0FF0001FF0
0FF0003FF0
0FF0003FE0
0FF0007FE0
0FF000FFE0
0FF007FFC0
0FFFFFFF80
0FFFFFFF80
0FFFFFFF00
0FFFFFFE00
0FFFFFF800
0FFFFFE000
0FFFFF0000
ENDCHAR
STARTCHAR 0111
ENCODING 273
SWIDTH 640 0
DWIDTH 32 0
BBX 31 37 1 -1
BITMAP
00001FE0
00001FE0
00001FE0
0003FFFE
0003FFFE
0003FFFE
0003FFFE
00001FE0
00001FE0
00FE1FE0
03FF9FE0
0FFFDFE0
1FFFFFE0
1FFFFFE0
3FFFFFE0
3FF1FFE0
7FC07FE0
7F803FE0
7F803FE0
FF801FE0
FF001FE0
FF001FE0
FF001FE0
FF001FE0
FF001FE0
FF001FE0
FF001FE0
7F803FE0
7F803FE0
7FC07FE0
3FF1FFE0
3FFFFFE0
1FFFFFE0
1FFFFFE0
0FFFDFE0
03FF9FE0
00FE0000
ENDCHAR
STARTCHAR 0112
ENCODING 274
SWIDTH 620 0
DWIDTH 31 0
BBX 27 43 3 0
BITMAP
07FFFC00
07FFFC00
07FFFC00
07FFFC00
07FFFC00
00000000
00000000
FFFFFFE0
FFFFFFE0
FFFFFFE0
FFFFFFE0
FFFFFFE0
FFFFFFE0
FFFFFFE0
FFFFFFE0
FF000000
FF000000
FF000000
FF000000
FF000000
FF000000
FF000000
FFFFFF80
FFFFFF80
FFFFFF80
FFFFFF80
FFFFFF80
FFFFFF80
FFFFFF80
FF000000
FF000000
FF000000
FF000000
FF000000
FF000000
FFFFFFE0
FFFFFFE0
FFFFFFE0
FFFFFFE0
FFFFFFE0
FFFFFFE0
FFFFFFE0
FFFFFFE0
ENDCHAR
STARTCHAR 0113
ENCODING 275
SWIDTH 580 0
DWIDTH 29 0
BBX 27 35 1 -1
BITMAP
07FFFC00
07FFFC00
07FFFC00
07FFFC00
07FFFC00
00000000
00000000
007F8000
01FFF000
07FFFC00
0FFFFE00
1FFFFF00
3FFFFF00
3FC0FF80
7F803F80
7F803FC0
7F001FC0
FF001FC0
FFFFFFE0
FFFFFFE0
FFFFFFE0
FFFFFFE0
FFFFFFE0
FF000000
7F000000
7F000000
7F803FC0
7FC03FC0
3FE07F80
1FFFFF80
1FFFFF00
0FFFFE00
07FFFC00
01FFF000
007FC000
ENDCHAR
STARTCHAR 0114
ENCODING 276
SWIDTH 620 0
DWIDTH 31 0
BBX 27 45 3 0
BITMAP
0FC0FC00
07E0FC00
07FFF800
03FFF800
01FFF000
00FFE000
003F8000
00000000
00000000
FFFFFFE0
FFFFFFE0
FFFFFFE0
FFFFFFE0
FFFFFFE0
FFFFFFE0
FFFFFFE0
FFFFFFE0
FF000000
FF000000
FF000000
FF000000
FF000000
FF000000
FF000000
FFFFFF80
FFFFFF80
FFFFFF80
FFFFFF80
FFFFFF80
FFFFFF80
FFFFFF80
FF000000
FF000000
FF000000
FF000000
FF000000
FF000000
FFFFFFE0
FFFFFFE0
FFFFFFE0
FFFFFFE0
FFFFFFE0
FFFFFFE0
FFFFFFE0
FFFFFFE0
ENDCHAR
STARTCHAR 0115
ENCODING 277
SWIDTH 580 0
DWIDTH 29 0
BBX 27 37 1 -1
BITMAP
07C0FC00
07E0FC00
03FFF800
03FFF800
01FFF000
00FFE000
003F8000
00000000
00000000
007F8000
01FFF000
07FFFC00
0FFFFE00
1FFFFF00
3FFFFF00
3FC0FF80
7F803F80
7F803FC0
7F001FC0
FF001FC0
FFFFFFE0
FFFFFFE0
FFFFFFE0
FFFFFFE0
FFFFFFE0
FF000000
7F000000
7F000000
7F803FC0
7FC03FC0
3FE07F80
1FFFFF80
1FFFFF00
0FFFFE00
07FFFC00
01FFF000
007FC000
ENDCHAR
STARTCHAR 0116
ENCODING 278
SWIDTH 620 0
DWIDTH 31 0
BBX 27 45 3 0
BITMAP
007F8000
007F8000
007F8000
007F8000
007F8000
007F8000
007F8000
00000000
00000000
FFFFFFE0
FFFFFFE0
FFFFFFE0
FFFFFFE0
FFFFFFE0
FFFFFFE0
FFFFFFE0
FFFFFFE0
FF000000
FF000000
FF000000
FF000000
FF000000
FF000000
FF000000
FFFFFF80
FFFFFF80
FFFFFF80
FFFFFF80
FFFFFF80
FFFFFF80
FFFFFF80
FF000000
FF000000
FF000000
FF000000
FF000000
FF000000
FFFFFFE0
FFFFFFE0
FFFFFFE0
FFFFFFE0
FFFFFFE0
FFFFFFE0
FFFFFFE0
FFFFFFE0
ENDCHAR
STARTCHAR 0117
ENCODING 279
SWIDTH 580 0
DWIDTH 29 0
BBX 27 37 1 -1
BITMAP
003F8000
003F8000
003F8000
003F8000
003F8000
003F8000
003F8000
00000000
00000000
007F8000
01FFF000
07FFFC00
0FFFFE00
1FFFFF00
3FFFFF00
3FC0FF80
7F803F80
7F803FC0
7F001FC0
FF001FC0
FFFFFFE0
FFFFFFE0
FFFFFFE0
FFFFFFE0
FFFFFFE0
FF000000
7F000000
7F000000
7F803FC0
7FC03FC0
3FE07F80
1FFFFF80
1FFFFF00
0FFFFE00
07FFFC00
01FFF000
007FC000
ENDCHAR
STARTCHAR 0118
ENCODING 280
SWIDTH 620 0
DWIDTH 31 0
BBX 27 46 3 -10
BITMAP
FFFFFFE0
FFFFFFE0
FFFFFFE0
FFFFFFE0
FFFFFFE0
FFFFFFE0
FFFFFFE0
FFFFFFE0
FF000000
FF000000
FF000000
FF000000
FF000000
FF000000
FF000000
FFFFFF80
FFFFFF80
FFFFFF80
FFFFFF80
FFFFFF80
FFFFFF80
FFFFFF80
FF000000
FF000000
FF000000
FF000000
FF000000
FF000000
FFFFFFE0
FFFFFFE0
FFFFFFE0
FFFFFFE0
FFFFFFE0
FFFFFFE0
FFFFFFE0
FFFFFFE0
00000FC0
00003F00
00007E00
00007C00
0000FC00
0000FE00
0000FFE0
00007FE0
00003FE0
00000FE0
ENDCHAR
STARTCHAR 0119
ENCODING 281
SWIDTH 580 0
DWIDTH 29 0
BBX 27 37 1 -10
BITMAP
007F8000
01FFF000
07FFFC00
0FFFFE00
1FFFFF00
3FFFFF00
3FC0FF80
7F803F80
7F803FC0
7F001FC0
FF001FC0
FFFFFFE0
FFFFFFE0
FFFFFFE0
FFFFFFE0
FFFFFFE0
FF000000
FF000000
7F000000
7F801FC0
7F803FC0
3FC07F80
3FFFFF80
1FFFFF00
0FFFFE00
07FFFC00
01FFF800
007FC000
003F0000
007C0000
00F80000
01F80000
01FC0000
01FFC000
00FFC000
007FC000
001FC000
ENDCHAR
STARTCHAR 011A
ENCODING 282
SWIDTH 620 0
DWIDTH 31 0
BBX 27 45 3 0
BITMAP
1FE0FE00
0FF1FC00
07FBF800
03FFF000
01FFF000
00FFE000
007FC000
00000000
00000000
FFFFFFE0
FFFFFFE0
FFFFFFE0
FFFFFFE0
FFFFFFE0
FFFFFFE0
FFFFFFE0
FFFFFFE0
FF000000
FF000000
FF000000
FF000000
FF000000
FF000000
FF000000
FFFFFF80
FFFFFF80
FFFFFF80
FFFFFF80
FFFFFF80
FFFFFF80
FFFFFF80
FF000000
FF000000
FF000000
FF000000
FF000000
FF000000
FFFFFFE0
FFFFFFE0
FFFFFFE0
FFFFFFE0
FFFFFFE0
FFFFFFE0
FFFFFFE0
FFFFFFE0
ENDCHAR
STARTCHAR 011B
ENCODING 283
SWIDTH 580 0
DWIDTH 29 0
BBX 27 38 1 -1
BITMAP
0FE0FE00
0FF1FC00
07FBFC00
03FFF800
01FFF000
00FFE000
007FC000
00000000
00000000
00000000
007F8000
01FFF000
07FFFC00
0FFFFE00
1FFFFF00
3FFFFF00
3FC0FF80
7F803F80
7F803FC0
7F001FC0
FF001FC0
FFFFFFE0
FFFFFFE0
FFFFFFE0
FFFFFFE0
FFFFFFE0
FF000000
7F000000
7F000000
7F803FC0
7FC03FC0
3FE07F80
1FFFFF80
1FFFFF00
0FFFFE00
07FFFC00
01FFF000
007FC000
ENDCHAR
STARTCHAR 011C
ENCODING 284
SWIDTH 780 0
DWIDTH 39 0
BBX 36 47 1 -1
BITMAP
0007FE0000
000FFF0000
000FFF8000
001FFFC000
003F9FC000
007F0FE000
00FE07F000
0000000000
0000000000
0007FE0000
003FFFC000
00FFFFF000
01FFFFFC00
03FFFFFE00
07FFFFFF00
0FFFFFFF80
1FFF8FFF80
1FFC01FFC0
3FF000FFC0
3FE0007FE0
7FE0003FE0
7FC0003FE0
7FC0000000
7FC0000000
FF80000000
FF80000000
FF801FFFF0
FF801FFFF0
FF801FFFF0
FF801FFFF0
FF801FFFF0
FF801FFFF0
7FC01FFFF0
7FC0001FF0
7FC0001FF0
7FE0003FF0
3FF0003FF0
3FF0007FF0
3FFC01FFF0
1FFF07FFF0
0FFFFFFFF0
0FFFFFFFF0
07FFFFF7F0
03FFFFE7F0
00FFFFC7F0
003FFF03F0
0007F80000
ENDCHAR
STARTCHAR 011D
ENCODING 285
SWIDTH 600 0
DWIDTH 30 0
BBX 27 47 1 -10
BITMAP
007FE000
007FF000
00FFF800
01FFF800
03FDFC00
07F8FE00
0FF07F00
00000000
00000000
00000000
00FE0000
03FF9FE0
0FFFDFE0
1FFFFFE0
1FFFFFE0
3FFFFFE0
7FF1FFE0
7FC07FE0
7F803FE0
FF801FE0
FF001FE0
FF001FE0
FF001FE0
FF001FE0
FF001FE0
FF001FE0
7F801FE0
7F803FE0
7FC07FE0
7FF1FFE0
3FFFFFE0
1FFFFFE0
1FFFFFE0
0FFFDFE0
03FF9FE0
00FE1FE0
00001FE0
00001FE0
7F801FC0
7F803FC0
3FE07FC0
3FFFFF80
1FFFFF80
0FFFFF00
07FFFE00
03FFF800
007FC000
ENDCHAR
STARTCHAR 011E
ENCODING 286
SWIDTH 780 0
DWIDTH 39 0
BBX 36 47 1 -1
BITMAP
007E07E000
003F07E000
003FFFC000
001FFFC000
000FFF8000
0007FF0000
0001FC0000
0000000000
0000000000
0007FE0000
003FFFC000
00FFFFF000
01FFFFFC00
03FFFFFE00
07FFFFFF00
0FFFFFFF80
1FFF8FFF80
1FFC01FFC0
3FF000FFC0
3FE0007FE0
7FE0003FE0
7FC0003FE0
7FC0000000
7FC0000000
FF80000000
FF80000000
FF801FFFF0
FF801FFFF0
FF801FFFF0
FF801FFFF0
FF801FFFF0
FF801FFFF0
7FC01FFFF0
7FC0001FF0
7FC0001FF0
7FE0003FF0
3FF0003FF0
3FF0007FF0
3FFC01FFF0
1FFF07FFF0
0FFFFFFFF0
0FFFFFFFF0
07FFFFF7F0
03FFFFE7F0
00FFFFC7F0
003FFF03F0
0007F80000
ENDCHAR
STARTCHAR 011F
ENCODING 287
SWIDTH 600 0
DWIDTH 30 0
BBX 27 46 1 -10
BITMAP
07E07E00
03F0FC00
03FFFC00
01FFF800
00FFF800
007FE000
001F8000
00000000
00000000
00FE0000
03FF9FE0
0FFFDFE0
1FFFFFE0
1FFFFFE0
3FFFFFE0
7FF1FFE0
7FC07FE0
7F803FE0
FF801FE0
FF001FE0
FF001FE0
FF001FE0
FF001FE0
FF001FE0
FF001FE0
7F801FE0
7F803FE0
7FC07FE0
7FF1FFE0
3FFFFFE0
1FFFFFE0
1FFFFFE0
0FFFDFE0
03FF9FE0
00FE1FE0
00001FE0
00001FE0
7F801FC0
7F803FC0
3FE07FC0
3FFFFF80
1FFFFF80
0FFFFF00
07FFFE00
03FFF800
007FC000
ENDCHAR
STARTCHAR 0120
ENCODING 288
SWIDTH 780 0
DWIDTH 39 0
BBX 36 47 1 -1
BITMAP
0003FC0000
0003FC0000
0003FC0000
0003FC0000
0003FC0000
0003FC0000
0003FC0000
0000000000
0000000000
0007FE0000
003FFFC000
00FFFFF000
01FFFFFC00
03FFFFFE00
07FFFFFF00
0FFFFFFF80
1FFF8FFF80
1FFC01FFC0
3FF000FFC0
3FE0007FE0
7FE0003FE0
7FC0003FE0
7FC0000000
7FC0000000
FF80000000
FF80000000
FF801FFFF0
FF801FFFF0
FF801FFFF0
FF801FFFF0
FF801FFFF0
FF801FFFF0
7FC01FFFF0
7FC0001FF0
7FC0001FF0
7FE0003FF0
3FF0003FF0
3FF0007FF0
3FFC01FFF0
1FFF07FFF0
0FFFFFFFF0
0FFFFFFFF0
07FFFFF7F0
03FFFFE7F0
00FFFFC7F0
003FFF03F0
0007F80000
ENDCHAR
STARTCHAR 0121
ENCODING 289
SWIDTH 600 0
DWIDTH 30 0
BBX 27 46 1 -10
BITMAP
003FC000
003FC000
003FC000
003FC000
003FC000
003FC000
003FC000
00000000
00000000
00FE0000
03FF9FE0
0FFFDFE0
1FFFFFE0
1FFFFFE0
3FFFFFE0
7FF1FFE0
7FC07FE0
7F803FE0
FF801FE0
FF001FE0
FF001FE0
FF001FE0
FF001FE0
FF001FE0
FF001FE0
7F801FE0
7F803FE0
7FC07FE0
7FF1FFE0
3FFFFFE0
1FFFFFE0
1FFFFFE0
0FFFDFE0
03FF9FE0
00FE1FE0
00001FE0
00001FE0
7F801FC0
7F803FC0
3FE07FC0
3FFFFF80
1FFFFF80
0FFFFF00
07FFFE00
03FFF800
007FC000
ENDCHAR
STARTCHAR 0122
ENCODING 290
SWIDTH 780 0
DWIDTH 39 0
BBX 36 51 1 -14
BITMAP
0007FE0000
003FFFC000
00FFFFF000
01FFFFFC00
03FFFFFE00
07FFFFFF00
0FFFFFFF80
1FFF8FFF80
1FFC01FFC0
3FF000FFC0
3FE0007FE0
7FE0003FE0
7FC0003FE0
7FC0000000
7FC0000000
FF80000000
FF80000000
FF801FFFF0
FF801FFFF0
FF801FFFF0
FF801FFFF0
FF801FFFF0
FF801FFFF0
7FC01FFFF0
7FC0001FF0
7FC0001FF0
7FE0003FF0
3FF0003FF0
3FF0007FF0
3FFC01FFF0
1FFF07FFF0
0FFFFFFFF0
0FFFFFFFF0
07FFFFF7F0
03FFFFE7F0
00FFFFC7F0
003FFF03F0
0007F80000
0000000000
0000000000
0001FC0000
0001FC0000
0001FC0000
0001FC0000
0001FC0000
0001FC0000
00003C0000
0000780000
0001F80000
0001F80000
0001E00000
ENDCHAR
STARTCHAR 0123
ENCODING 291
SWIDTH 600 0
DWIDTH 30 0
BBX 27 50 1 -10
BITMAP
0007C000
000FC000
001FC000
001E0000
001E0000
001FC000
001FC000
001FC000
001FC000
001FC000
001FC000
00000000
00000000
00FE0000
03FF9FE0
0FFFDFE0
1FFFFFE0
1FFFFFE0
3FFFFFE0
7FF1FFE0
7FC07FE0
7F803FE0
FF801FE0
FF001FE0
FF001FE0
FF001FE0
FF001FE0
FF001FE0
FF001FE0
7F801FE0
7F803FE0
7FC07FE0
7FF1FFE0
3FFFFFE0
1FFFFFE0
1FFFFFE0
0FFFDFE0
03FF9FE0
00FE1FE0
00001FE0
00001FE0
7F801FC0
7F803FC0
3FE07FC0
3FFFFF80
1FFFFF80
0FFFFF00
07FFFE00
03FFF800
007FC000
ENDCHAR
STARTCHAR 0124
ENCODING 292
SWIDTH 740 0
DWIDTH 37 0
BBX 31 45 3 0
BITMAP
003FF000
003FF800
007FFC00
00FFFE00
01FCFE00
03FC7F00
07F83F80
00000000
00000000
FF0003FE
FF0003FE
FF0003FE
FF0003FE
FF0003FE
FF0003FE
FF0003FE
FF0003FE
FF0003FE
FF0003FE
FF0003FE
FF0003FE
FF0003FE
FF0003FE
FFFFFFFE
FFFFFFFE
FFFFFFFE
FFFFFFFE
FFFFFFFE
FFFFFFFE
FFFFFFFE
FFFFFFFE
FF0003FE
FF0003FE
FF0003FE
FF0003FE
FF0003FE
FF0003FE
FF0003FE
FF0003FE
FF0003FE
FF0003FE
FF0003FE
FF0003FE
FF0003FE
FF0003FE
ENDCHAR
STARTCHAR 0125
ENCODING 293
SWIDTH 580 0
DWIDTH 29 0
BBX 30 45 -3 0
BITMAP
07FC0000
0FFC0000
1FFE0000
3FFF0000
3F3F0000
7F3F8000
FE1FC000
00000000
00000000
07F80000
07F80000
07F80000
07F80000
07F80000
07F80000
07F80000
07F80000
07F80000
07F83F00
07F8FFC0
07FBFFE0
07FFFFF0
07FFFFF8
07FFFFF8
07FFFFFC
07FE07FC
07FC03FC
07FC03FC
07F803FC
07F803FC
07F803FC
07F803FC
07F803FC
07F803FC
07F803FC
07F803FC
07F803FC
07F803FC
07F803FC
07F803FC
07F803FC
07F803FC
07F803FC
07F803FC
07F803FC
ENDCHAR
STARTCHAR 0126
ENCODING 294
SWIDTH 780 0
DWIDTH 39 0
BBX 39 36 0 0
BITMAP
0FF0001FE0
0FF0001FE0
0FF0001FE0
0FF0001FE0
0FF0001FE0
FFFFFFFFFE
FFFFFFFFFE
FFFFFFFFFE
FFFFFFFFFE
0FF0001FE0
0FF0001FE0
0FF0001FE0
0FF0001FE0
0FF0001FE0
0FFFFFFFE0
0FFFFFFFE0
0FFFFFFFE0
0FFFFFFFE0
0FFFFFFFE0
0FFFFFFFE0
0FFFFFFFE0
0FFFFFFFE0
0FF0001FE0
0FF0001FE0
0FF0001FE0
0FF0001FE0
0FF0001FE0
0FF0001FE0
0FF0001FE0
0FF0001FE0
0FF0001FE0
0FF0001FE0
0FF0001FE0
0FF0001FE0
0FF0001FE0
0FF0001FE0
ENDCHAR
STARTCHAR 0127
ENCODING 295
SWIDTH 620 0
DWIDTH 31 0
BBX 28 36 0 0
BITMAP
0FF00000
0FF00000
0FF00000
FFFF8000
FFFF8000
FFFF8000
FFFF8000
0FF00000
0FF00000
0FF0FE00
0FF3FF80
0FF7FFC0
0FFFFFE0
0FFFFFE0
0FFFFFF0
0FFFFFF0
0FFC1FF0
0FF80FF0
0FF00FF0
0FF007F0
0FF007F0
0FF007F0
0FF007F0
0FF007F0
0FF007F0
0FF007F0
0FF007F0
0FF007F0
0FF007F0
0FF007F0
0FF007F0
0FF007F0
0FF007F0
0FF007F0
0FF007F0
0FF007F0
ENDCHAR
STARTCHAR 0128
ENCODING 296
SWIDTH 280 0
DWIDTH 14 0
BBX 15 45 -1 0
BITMAP
1E1E
3F9E
7FFE
7FFE
7FFE
F9FC
F078
0000
0000
0FF0
0FF0
0FF0
0FF0
0FF0
0FF0
0FF0
0FF0
0FF0
0FF0
0FF0
0FF0
0FF0
0FF0
0FF0
0FF0
0FF0
0FF0
0FF0
0FF0
0FF0
0FF0
0FF0
0FF0
0FF0
0FF0
0FF0
0FF0
0FF0
0FF0
0FF0
0FF0
0FF0
0FF0
0FF0
0FF0
ENDCHAR
STARTCHAR 0129
ENCODING 297
SWIDTH 240 0
DWIDTH 12 0
BBX 15 36 -1 0
BITMAP
3C1E
7F3E
FFFC
FFFC
FFFC
F3F8
F0F0
0000
0000
0000
1FE0
1FE0
1FE0
1FE0
1FE0
1FE0
1FE0
1FE0
1FE0
1FE0
1FE0
1FE0
1FE0
1FE0
1FE0
1FE0
1FE0
1FE0
1FE0
1FE0
1FE0
1FE0
1FE0
1FE0
1FE0
1FE0
ENDCHAR
STARTCHAR 012A
ENCODING 298
SWIDTH 280 0
DWIDTH 14 0
BBX 14 43 0 0
BITMAP
FFFC
FFFC
FFFC
FFFC
FFFC
0000
0000
1FE0
1FE0
1FE0
1FE0
1FE0
1FE0
1FE0
1FE0
1FE0
1FE0
1FE0
1FE0
1FE0
1FE0
1FE0
1FE0
1FE0
1FE0
1FE0
1FE0
1FE0
1FE0
1FE0
1FE0
1FE0
1FE0
1FE0
1FE0
1FE0
1FE0
1FE0
1FE0
1FE0
1FE0
1FE0
1FE0
ENDCHAR
STARTCHAR 012B
ENCODING 299
SWIDTH 240 0
DWIDTH 12 0
BBX 14 34 -1 0
BITMAP
FFFC
FFFC
FFFC
FFFC
FFFC
0000
0000
0000
1FE0
1FE0
1FE0
1FE0
1FE0
1FE0
1FE0
1FE0
1FE0
1FE0
1FE0
1FE0
1FE0
1FE0
1FE0
1FE0
1FE0
1FE0
1FE0
1FE0
1FE0
1FE0
1FE0
1FE0
1FE0
1FE0
ENDCHAR
STARTCHAR 012C
ENCODING 300
SWIDTH 280 0
DWIDTH 14 0
BBX 16 45 -1 0
BITMAP
F83F
FC3E
7FFE
7FFE
3FFC
1FF8
07E0
0000
0000
0FF0
0FF0
0FF0
0FF0
0FF0
0FF0
0FF0
0FF0
0FF0
0FF0
0FF0
0FF0
0FF0
0FF0
0FF0
0FF0
0FF0
0FF0
0FF0
0FF0
0FF0
0FF0
0FF0
0FF0
0FF0
0FF0
0FF0
0FF0
0FF0
0FF0
0FF0
0FF0
0FF0
0FF0
0FF0
0FF0
ENDCHAR
STARTCHAR 012D
ENCODING 301
SWIDTH 240 0
DWIDTH 12 0
BBX 16 36 -2 0
BITMAP
FC1F
FC3F
7FFE
7FFE
3FFC
1FF8
07E0
0000
0000
0000
0FF0
0FF0
0FF0
0FF0
0FF0
0FF0
0FF0
0FF0
0FF0
0FF0
0FF0
0FF0
0FF0
0FF0
0FF0
0FF0
0FF0
0FF0
0FF0
0FF0
0FF0
0FF0
0FF0
0FF0
0FF0
0FF0
ENDCHAR
STARTCHAR 012E
ENCODING 302
SWIDTH 280 0
DWIDTH 14 0
BBX 9 46 2 -10
BITMAP
7F80
7F80
7F80
7F80
7F80
7F80
7F80
7F80
7F80
7F80
7F80
7F80
7F80
7F80
7F80
7F80
7F80
7F80
7F80
7F80
7F80
7F80
7F80
7F80
7F80
7F80
7F80
7F80
7F80
7F80
7F80
7F80
7F80
7F80
7F80
7F80
1F00
3E00
7C00
F800
F800
FC00
FF80
7F80
3F80
1F80
ENDCHAR
STARTCHAR 012F
ENCODING 303
SWIDTH 240 0
DWIDTH 12 0
BBX 9 46 1 -10
BITMAP
7F80
7F80
7F80
7F80
7F80
7F80
7F80
0000
0000
0000
7F80
7F80
7F80
7F80
7F80
7F80
7F80
7F80
7F80
7F80
7F80
7F80
7F80
7F80
7F80
7F80
7F80
7F80
7F80
7F80
7F80
7F80
7F80
7F80
7F80
7F80
1F00
3E00
7C00
F800
F800
FC00
FF80
7F80
7F80
1F80
ENDCHAR
STARTCHAR 0130
ENCODING 304
SWIDTH 280 0
DWIDTH 14 0
BBX 8 45 3 0
BITMAP
FF
FF
FF
FF
FF
FF
FF
00
00
FF
FF
FF
FF
FF
FF
FF
FF
FF
FF
FF
FF
FF
FF
FF
FF
FF
FF
FF
FF
FF
FF
FF
FF
FF
FF
FF
FF
FF
FF
FF
FF
FF
FF
FF
FF
ENDCHAR
STARTCHAR 0131
ENCODING 305
SWIDTH 240 0
DWIDTH 12 0
BBX 8 26 2 0
BITMAP
FF
FF
FF
FF
FF
FF
FF
FF
FF
FF
FF
FF
FF
FF
FF
FF
FF
FF
FF
FF
FF
FF
FF
FF
FF
FF
ENDCHAR
STARTCHAR 0132
ENCODING 306
SWIDTH 840 0
DWIDTH 42 0
BBX 37 37 3 -1
BITMAP
FF000007F8
FF000007F8
FF000007F8
FF000007F8
FF000007F8
FF000007F8
FF000007F8
FF000007F8
FF000007F8
FF000007F8
FF000007F8
FF000007F8
FF000007F8
FF000007F8
FF000007F8
FF000007F8
FF000007F8
FF000007F8
FF000007F8
FF000007F8
FF000007F8
FF000007F8
FF000007F8
FF0FF007F8
FF0FF007F8
FF0FF007F8
FF0FF007F8
FF0FF00FF8
FF0FF80FF8
FF07FC3FF0
FF07FFFFF0
FF07FFFFF0
FF03FFFFE0
FF01FFFFC0
FF00FFFF80
FF007FFE00
00000FF800
ENDCHAR
STARTCHAR 0133
ENCODING 307
SWIDTH 500 0
DWIDTH 25 0
BBX 20 46 2 -10
BITMAP
FF07F0
FF07F0
FF07F0
FF07F0
FF07F0
FF07F0
FF07F0
000000
000000
000000
FF07F0
FF07F0
FF07F0
FF07F0
FF07F0
FF07F0
FF07F0
FF07F0
FF07F0
FF07F0
FF07F0
FF07F0
FF07F0
FF07F0
FF07F0
FF07F0
FF07F0
FF07F0
FF07F0
FF07F0
FF07F0
FF07F0
FF07F0
FF07F0
FF07F0
FF07F0
0007F0
0007F0
0007F0
000FF0
007FF0
007FF0
007FF0
007FE0
007FC0
007F00
ENDCHAR
STARTCHAR 0134
ENCODING 308
SWIDTH 560 0
DWIDTH 28 0
BBX 30 46 1 -1
BITMAP
0000FFC0
0000FFC0
0001FFE0
0003FFF0
0003F3F0
0007F3F8
000FE1FC
00000000
00000000
00007F80
00007F80
00007F80
00007F80
00007F80
00007F80
00007F80
00007F80
00007F80
00007F80
00007F80
00007F80
00007F80
00007F80
00007F80
00007F80
00007F80
00007F80
00007F80
00007F80
00007F80
00007F80
00007F80
FF007F80
FF007F80
FF007F80
FF007F80
FF80FF80
FF80FF80
7FC3FF80
7FFFFF00
3FFFFF00
3FFFFE00
1FFFFC00
0FFFF800
03FFF000
00FF8000
ENDCHAR
STARTCHAR 0135
ENCODING 309
SWIDTH 240 0
DWIDTH 12 0
BBX 18 47 -3 -10
BITMAP
07FC00
0FFC00
1FFE00
1FFE00
3FFF00
3F3F80
7F1F80
FE1FC0
000000
000000
000000
07F800
07F800
07F800
07F800
07F800
07F800
07F800
07F800
07F800
07F800
07F800
07F800
07F800
07F800
07F800
07F800
07F800
07F800
07F800
07F800
07F800
07F800
07F800
07F800
07F800
07F800
07F800
07F800
07F800
07F800
3FF800
3FF800
3FF000
3FF000
3FE000
3F8000
ENDCHAR
STARTCHAR 0136
ENCODING 310
SWIDTH 720 0
DWIDTH 36 0
BBX 33 49 3 -13
BITMAP
FF0003FF80
FF0007FF00
FF0007FE00
FF000FFC00
FF001FF800
FF003FF000
FF007FE000
FF00FFC000
FF01FF8000
FF03FF0000
FF07FE0000
FF0FFC0000
FF1FF80000
FF3FF00000
FF7FE00000
FFFFE00000
FFFFF00000
FFFFF80000
FFFFF80000
FFFFFC0000
FFFFFE0000
FFF3FE0000
FFE3FF0000
FFC1FF8000
FF80FF8000
FF00FFC000
FF007FE000
FF003FF000
FF003FF000
FF001FF800
FF000FFC00
FF000FFC00
FF0007FE00
FF0003FF00
FF0003FF00
FF0001FF80
0000000000
0000000000
000FE00000
000FE00000
000FE00000
000FE00000
000FE00000
000FE00000
0001E00000
0001E00000
000FE00000
000FC00000
000F000000
ENDCHAR
STARTCHAR 0137
ENCODING 311
SWIDTH 580 0
DWIDTH 29 0
BBX 27 49 2 -13
BITMAP
FF000000
FF000000
FF000000
FF000000
FF000000
FF000000
FF000000
FF000000
FF000000
FF000000
FF007FC0
FF00FF80
FF01FF00
FF03FE00
FF07FC00
FF0FF800
FF1FF000
FF3FE000
FF3FC000
FF7F8000
FFFF8000
FFFFC000
FFFFC000
FFFFE000
FFFFF000
FFEFF000
FFCFF800
FF87F800
FF07FC00
FF03FE00
FF01FE00
FF01FF00
FF00FF80
FF00FF80
FF007FC0
FF003FE0
00000000
00000000
00000000
003F0000
003F0000
003F0000
003F0000
003F0000
003F0000
000F0000
001F0000
003F0000
003C0000
ENDCHAR
STARTCHAR 0138
ENCODING 312
SWIDTH 580 0
DWIDTH 29 0
BBX 27 26 2 0
BITMAP
FF007FC0
FF00FF80
FF01FF00
FF03FE00
FF07FC00
FF0FF800
FF1FF000
FF3FE000
FF3FC000
FF7F8000
FFFF8000
FFFFC000
FFFFC000
FFFFE000
FFFFF000
FFEFF000
FFCFF800
FF87F800
FF07FC00
FF03FE00
FF01FE00
FF01FF00
FF00FF80
FF00FF80
FF007FC0
FF003FE0
ENDCHAR
STARTCHAR 0139
ENCODING 313
SWIDTH 560 0
DWIDTH 28 0
BBX 24 45 3 0
BITMAP
07F800
0FF000
0FE000
1FC000
3F8000
3F8000
7F0000
000000
000000
FF0000
FF0000
FF0000
FF0000
FF0000
FF0000
FF0000
FF0000
FF0000
FF0000
FF0000
FF0000
FF0000
FF0000
FF0000
FF0000
FF0000
FF0000
FF0000
FF0000
FF0000
FF0000
FF0000
FF0000
FF0000
FF0000
FF0000
FF0000
FFFFFF
FFFFFF
FFFFFF
FFFFFF
FFFFFF
FFFFFF
FFFFFF
FFFFFF
ENDCHAR
STARTCHAR 013A
ENCODING 314
SWIDTH 240 0
DWIDTH 12 0
BBX 11 45 2 0
BITMAP
0FE0
1FE0
1FC0
1F80
3F80
3F00
3E00
0000
0000
FF00
FF00
FF00
FF00
FF00
FF00
FF00
FF00
FF00
FF00
FF00
FF00
FF00
FF00
FF00
FF00
FF00
FF00
FF00
FF00
FF00
FF00
FF00
FF00
FF00
FF00
FF00
FF00
FF00
FF00
FF00
FF00
FF00
FF00
FF00
FF00
ENDCHAR
STARTCHAR 013B
ENCODING 315
SWIDTH 560 0
DWIDTH 28 0
BBX 24 49 3 -13
BITMAP
FF0000
FF0000
FF0000
FF0000
FF0000
FF0000
FF0000
FF0000
FF0000
FF0000
FF0000
FF0000
FF0000
FF0000
FF0000
FF0000
FF0000
FF0000
FF0000
FF0000
FF0000
FF0000
FF0000
FF0000
FF0000
FF0000
FF0000
FF0000
FFFFFF
FFFFFF
FFFFFF
FFFFFF
FFFFFF
FFFFFF
FFFFFF
FFFFFF
000000
000000
007F00
007F00
007F00
007F00
007F00
007F00
000F00
001E00
007E00
007C00
007800
ENDCHAR
STARTCHAR 013C
ENCODING 316
SWIDTH 240 0
DWIDTH 12 0
BBX 8 49 2 -13
BITMAP
FF
FF
FF
FF
FF
FF
FF
FF
FF
FF
FF
FF
FF
FF
FF
FF
FF
FF
FF
FF
FF
FF
FF
FF
FF
FF
FF
FF
FF
FF
FF
FF
FF
FF
FF
FF
00
00
00
7F
7F
7F
7F
7F
7F
0F
3E
7E
78
ENDCHAR
STARTCHAR 013D
ENCODING 317
SWIDTH 560 0
DWIDTH 28 0
BBX 24 36 3 0
BITMAP
FF0FF0
FF0FE0
FF0FE0
FF0FE0
FF0FC0
FF0FC0
FF1F80
FF1F80
FF0000
FF0000
FF0000
FF0000
FF0000
FF0000
FF0000
FF0000
FF0000
FF0000
FF0000
FF0000
FF0000
FF0000
FF0000
FF0000
FF0000
FF0000
FF0000
FF0000
FFFFFF
FFFFFF
FFFFFF
FFFFFF
FFFFFF
FFFFFF
FFFFFF
FFFFFF
ENDCHAR
STARTCHAR 013E
ENCODING 318
SWIDTH 400 0
DWIDTH 20 0
BBX 19 36 2 0
BITMAP
FF1FE0
FF1FC0
FF1FC0
FF1F80
FF3F80
FF3F00
FF3F00
FF3E00
FF0000
FF0000
FF0000
FF0000
FF0000
FF0000
FF0000
FF0000
FF0000
FF0000
FF0000
FF0000
FF0000
FF0000
FF0000
FF0000
FF0000
FF0000
FF0000
FF0000
FF0000
FF0000
FF0000
FF0000
FF0000
FF0000
FF0000
FF0000
ENDCHAR
STARTCHAR 013F
ENCODING 319
SWIDTH 560 0
DWIDTH 28 0
BBX 24 36 3 0
BITMAP
FF0000
FF0000
FF0000
FF0000
FF0000
FF0000
FF0000
FF0000
FF0000
FF0000
FF0000
FF0000
FF0000
FF03FC
FF03FC
FF03FC
FF03FC
FF03FC
FF03FC
FF03FC
FF03FC
FF03FC
FF0000
FF0000
FF0000
FF0000
FF0000
FF0000
FFFFFF
FFFFFF
FFFFFF
FFFFFF
FFFFFF
FFFFFF
FFFFFF
FFFFFF
ENDCHAR
STARTCHAR 0140
ENCODING 320
SWIDTH 500 0
DWIDTH 25 0
BBX 21 36 2 0
BITMAP
FF0000
FF0000
FF0000
FF0000
FF0000
FF0000
FF0000
FF0000
FF0000
FF0000
FF0000
FF0000
FF0000
FF0000
FF0FF8
FF0FF8
FF0FF8
FF0FF8
FF0FF8
FF0FF8
FF0FF8
FF0FF8
FF0FF8
FF0000
FF0000
FF0000
FF0000
FF0000
FF0000
FF0000
FF0000
FF0000
FF0000
FF0000
FF0000
FF0000
ENDCHAR
STARTCHAR 0141
ENCODING 321
SWIDTH 580 0
DWIDTH 29 0
BBX 29 36 0 0
BITMAP
0FF00000
0FF00000
0FF00000
0FF00000
0FF00000
0FF00000
0FF00000
0FF00000
0FF00000
0FF01800
0FF0F800
0FF3F800
0FFFF800
0FFFF800
0FFFC000
0FFF0000
3FFC0000
FFF00000
FFF00000
FFF00000
FFF00000
CFF00000
0FF00000
0FF00000
0FF00000
0FF00000
0FF00000
0FF00000
0FFFFFF8
0FFFFFF8
0FFFFFF8
0FFFFFF8
0FFFFFF8
0FFFFFF8
0FFFFFF8
0FFFFFF8
ENDCHAR
STARTCHAR 0142
ENCODING 322
SWIDTH 300 0
DWIDTH 15 0
BBX 15 36 0 0
BITMAP
0FF0
0FF0
0FF0
0FF0
0FF0
0FF0
0FF0
0FF0
0FF0
0FF0
0FF0
0FF0
0FF2
0FFE
0FFE
0FFE
0FFE
1FFC
7FF0
FFF0
FFF0
FFF0
EFF0
8FF0
0FF0
0FF0
0FF0
0FF0
0FF0
0FF0
0FF0
0FF0
0FF0
0FF0
0FF0
0FF0
ENDCHAR
STARTCHAR 0143
ENCODING 323
SWIDTH 740 0
DWIDTH 37 0
BBX 31 45 3 0
BITMAP
0000FF80
0000FF00
0001FE00
0003FC00
0003F800
0007F000
0007E000
00000000
00000000
FF8001FE
FFC001FE
FFC001FE
FFE001FE
FFF001FE
FFF001FE
FFF801FE
FFF801FE
FFFC01FE
FFFE01FE
FFFE01FE
FFFF01FE
FFFF01FE
FFFF81FE
FF7FC1FE
FF7FC1FE
FF3FE1FE
FF1FE1FE
FF1FF1FE
FF0FF9FE
FF0FF9FE
FF07FDFE
FF03FDFE
FF03FFFE
FF01FFFE
FF01FFFE
FF00FFFE
FF007FFE
FF007FFE
FF003FFE
FF003FFE
FF001FFE
FF000FFE
FF000FFE
FF0007FE
FF0007FE
ENDCHAR
STARTCHAR 0144
ENCODING 324
SWIDTH 580 0
DWIDTH 29 0
BBX 25 37 2 0
BITMAP
0003FC00
0007F800
0007F000
000FE000
001FC000
001F8000
003F8000
00000000
00000000
00000000
0007E000
FF1FF800
FF7FFC00
FFFFFE00
FFFFFF00
FFFFFF00
FFFFFF80
FFC0FF80
FF807F80
FF807F80
FF007F80
FF007F80
FF007F80
FF007F80
FF007F80
FF007F80
FF007F80
FF007F80
FF007F80
FF007F80
FF007F80
FF007F80
FF007F80
FF007F80
FF007F80
FF007F80
FF007F80
ENDCHAR
STARTCHAR 0145
ENCODING 325
SWIDTH 740 0
DWIDTH 37 0
BBX 31 49 3 -13
BITMAP
FF8001FE
FFC001FE
FFC001FE
FFE001FE
FFF001FE
FFF001FE
FFF801FE
FFF801FE
FFFC01FE
FFFE01FE
FFFE01FE
FFFF01FE
FFFF01FE
FFFF81FE
FF7FC1FE
FF7FC1FE
FF3FE1FE
FF1FE1FE
FF1FF1FE
FF0FF9FE
FF0FF9FE
FF07FDFE
FF03FDFE
FF03FFFE
FF01FFFE
FF01FFFE
FF00FFFE
FF007FFE
FF007FFE
FF003FFE
FF003FFE
FF001FFE
FF000FFE
FF000FFE
FF0007FE
FF0007FE
00000000
00000000
000FE000
000FE000
000FE000
000FE000
000FE000
000FE000
0001E000
0003E000
000FC000
000FC000
000F0000
ENDCHAR
STARTCHAR 0146
ENCODING 326
SWIDTH 580 0
DWIDTH 29 0
BBX 25 40 2 -13
BITMAP
0007E000
FF1FF800
FF7FFC00
FFFFFE00
FFFFFF00
FFFFFF00
FFFFFF80
FFC0FF80
FF807F80
FF807F80
FF007F80
FF007F80
FF007F80
FF007F80
FF007F80
FF007F80
FF007F80
FF007F80
FF007F80
FF007F80
FF007F80
FF007F80
FF007F80
FF007F80
FF007F80
FF007F80
FF007F80
00000000
00000000
00000000
007F0000
007F0000
007F0000
007F0000
007F0000
007F0000
000F0000
001F0000
007E0000
007C0000
ENDCHAR
STARTCHAR 0147
ENCODING 327
SWIDTH 740 0
DWIDTH 37 0
BBX 31 45 3 0
BITMAP
03F83F80
03FC7F00
01FEFE00
00FFFE00
007FFC00
003FF800
001FF000
00000000
00000000
FF8001FE
FFC001FE
FFC001FE
FFE001FE
FFF001FE
FFF001FE
FFF801FE
FFF801FE
FFFC01FE
FFFE01FE
FFFE01FE
FFFF01FE
FFFF01FE
FFFF81FE
FF7FC1FE
FF7FC1FE
FF3FE1FE
FF1FE1FE
FF1FF1FE
FF0FF9FE
FF0FF9FE
FF07FDFE
FF03FDFE
FF03FFFE
FF01FFFE
FF01FFFE
FF00FFFE
FF007FFE
FF007FFE
FF003FFE
FF003FFE
FF001FFE
FF000FFE
FF000FFE
FF0007FE
FF0007FE
ENDCHAR
STARTCHAR 0148
ENCODING 328
SWIDTH 580 0
DWIDTH 29 0
BBX 25 37 2 0
BITMAP
1FC1FC00
1FE3FC00
0FF7F800
07FFF000
03FFE000
01FFC000
00FF8000
00000000
00000000
00000000
0007E000
FF1FF800
FF7FFC00
FFFFFE00
FFFFFF00
FFFFFF00
FFFFFF80
FFC0FF80
FF807F80
FF807F80
FF007F80
FF007F80
FF007F80
FF007F80
FF007F80
FF007F80
FF007F80
FF007F80
FF007F80
FF007F80
FF007F80
FF007F80
FF007F80
FF007F80
FF007F80
FF007F80
FF007F80
ENDCHAR
STARTCHAR 0149
ENCODING 329
SWIDTH 780 0
DWIDTH 39 0
BBX 35 36 2 0
BITMAP
FF00000000
FF00000000
FF00000000
FF00000000
FF00000000
FF00000000
FF00000000
FF00000000
1F00000000
1F0001F800
1F3FCFFE00
3E3FDFFF00
FE3FFFFF80
FE3FFFFFC0
FC3FFFFFC0
F03FFFFFC0
003FF87FE0
003FE03FE0
003FE01FE0
003FC01FE0
003FC01FE0
003FC01FE0
003FC01FE0
003FC01FE0
003FC01FE0
003FC01FE0
003FC01FE0
003FC01FE0
003FC01FE0
003FC01FE0
003FC01FE0
003FC01FE0
003FC01FE0
003FC01FE0
003FC01FE0
003FC01FE0
ENDCHAR
STARTCHAR 014A
ENCODING 330
SWIDTH 740 0
DWIDTH 37 0
BBX 31 46 3 -10
BITMAP
FF8001FE
FFC001FE
FFC001FE
FFE001FE
FFF001FE
FFF001FE
FFF801FE
FFFC01FE
FFFC01FE
FFFE01FE
FFFF01FE
FFFF01FE
FFFF81FE
FF7F81FE
FF7FC1FE
FF3FE1FE
FF1FE1FE
FF1FF1FE
FF0FF9FE
FF0FF9FE
FF07FDFE
FF03FDFE
FF03FFFE
FF01FFFE
FF00FFFE
FF00FFFE
FF007FFE
FF003FFE
FF003FFE
FF001FFE
FF000FFE
FF000FFE
FF0007FE
FF0003FE
FF0003FE
FF0001FE
000001FE
000001FE
000001FE
000003FE
00007FFC
00007FFC
00007FF8
00007FF0
00007FE0
00007F80
ENDCHAR
STARTCHAR 014B
ENCODING 331
SWIDTH 580 0
DWIDTH 29 0
BBX 25 37 2 -10
BITMAP
0007E000
FF1FF800
FF7FFC00
FFFFFE00
FFFFFF00
FFFFFF00
FFFFFF80
FFC0FF80
FF807F80
FF807F80
FF007F80
FF007F80
FF007F80
FF007F80
FF007F80
FF007F80
FF007F80
FF007F80
FF007F80
FF007F80
FF007F80
FF007F80
FF007F80
FF007F80
FF007F80
FF007F80
FF007F80
00007F80
00007F80
00007F80
0000FF80
0003FF80
0003FF80
0003FF00
0003FF00
0003FE00
0003F800
ENDCHAR
STARTCHAR 014C
ENCODING 332
SWIDTH 780 0
DWIDTH 39 0
BBX 37 45 1 -1
BITMAP
003FFFE000
003FFFE000
003FFFE000
003FFFE000
003FFFE000
0000000000
0000000000
0003FE0000
001FFFC000
007FFFF000
01FFFFFC00
03FFFFFE00
07FFFFFF00
0FFFFFFF80
1FFF8FFF80
1FFC01FFC0
3FF800FFE0
3FF0007FE0
7FE0003FE0
7FC0001FF0
7FC0001FF0
7FC0001FF0
FF80000FF0
FF80000FF8
FF80000FF8
FF80000FF8
FF80000FF8
FF80000FF8
FF80000FF8
FF80000FF0
7FC0001FF0
7FC0001FF0
7FC0001FF0
7FE0003FE0
3FF0007FE0
3FF000FFE0
1FFC01FFC0
1FFF8FFFC0
0FFFFFFF80
07FFFFFF00
03FFFFFE00
01FFFFFC00
00FFFFF000
003FFFC000
0003FE0000
ENDCHAR
STARTCHAR 014D
ENCODING 333
SWIDTH 580 0
DWIDTH 29 0
BBX 27 35 1 -1
BITMAP
07FFFC00
07FFFC00
07FFFC00
07FFFC00
07FFFC00
00000000
00000000
003FC000
01FFF800
07FFFC00
0FFFFE00
1FFFFF00
3FFFFF80
3FF9FFC0
7FC07FC0
7F803FC0
7F801FE0
FF001FE0
FF001FE0
FF001FE0
FF001FE0
FF001FE0
FF001FE0
FF001FE0
FF001FE0
7F801FE0
7F803FC0
7FC07FC0
3FF1FFC0
3FFFFF80
1FFFFF00
0FFFFE00
07FFFC00
01FFF800
003FC000
ENDCHAR
STARTCHAR 014E
ENCODING 334
SWIDTH 780 0
DWIDTH 39 0
BBX 37 47 1 -1
BITMAP
003E03E000
003F07E000
003FFFC000
001FFFC000
000FFF8000
0007FF0000
0001FC0000
0000000000
0000000000
0003FE0000
001FFFC000
007FFFF000
01FFFFFC00
03FFFFFE00
07FFFFFF00
0FFFFFFF80
1FFF8FFF80
1FFC01FFC0
3FF800FFE0
3FF0007FE0
7FE0003FE0
7FC0001FF0
7FC0001FF0
7FC0001FF0
FF80000FF0
FF80000FF8
FF80000FF8
FF80000FF8
FF80000FF8
FF80000FF8
FF80000FF8
FF80000FF0
7FC0001FF0
7FC0001FF0
7FC0001FF0
7FE0003FE0
3FF0007FE0
3FF000FFE0
1FFC01FFC0
1FFF8FFFC0
0FFFFFFF80
07FFFFFF00
03FFFFFE00
01FFFFFC00
00FFFFF000
003FFFC000
0003FE0000
ENDCHAR
STARTCHAR 014F
ENCODING 335
SWIDTH 580 0
DWIDTH 29 0
BBX 27 37 1 -1
BITMAP
07E07C00
07E0FC00
03FFFC00
03FFF800
01FFF000
00FFE000
003F8000
00000000
00000000
003FC000
01FFF800
07FFFC00
0FFFFE00
1FFFFF00
3FFFFF80
3FF9FFC0
7FC07FC0
7F803FC0
7F801FE0
FF001FE0
FF001FE0
FF001FE0
FF001FE0
FF001FE0
FF001FE0
FF001FE0
FF001FE0
7F801FE0
7F803FC0
7FC07FC0
3FF1FFC0
3FFFFF80
1FFFFF00
0FFFFE00
07FFFC00
01FFF800
003FC000
ENDCHAR
STARTCHAR 0150
ENCODING 336
SWIDTH 780 0
DWIDTH 39 0
BBX 37 47 1 -1
BITMAP
0003FC7F80
0007F8FF00
0007F0FE00
000FE1FC00
001FC3F800
001F83F000
003F07E000
0000000000
0000000000
0003FE0000
001FFFC000
007FFFF000
01FFFFFC00
03FFFFFE00
07FFFFFF00
0FFFFFFF80
1FFF8FFF80
1FFC01FFC0
3FF800FFE0
3FF0007FE0
7FE0003FE0
7FC0001FF0
7FC0001FF0
7FC0001FF0
FF80000FF0
FF80000FF8
FF80000FF8
FF80000FF8
FF80000FF8
FF80000FF8
FF80000FF8
FF80000FF0
7FC0001FF0
7FC0001FF0
7FC0001FF0
7FE0003FE0
3FF0007FE0
3FF000FFE0
1FFC01FFC0
1FFF8FFFC0
0FFFFFFF80
07FFFFFF00
03FFFFFE00
01FFFFFC00
00FFFFF000
003FFFC000
0003FE0000
ENDCHAR
STARTCHAR 0151
ENCODING 337
SWIDTH 580 0
DWIDTH 29 0
BBX 29 38 1 -1
BITMAP
003FC7F8
007F8FF0
00FF1FE0
00FE1FC0
01FC3F80
03F83F00
03F07E00
00000000
00000000
00000000
003FC000
01FFF800
07FFFC00
0FFFFE00
1FFFFF00
3FFFFF80
3FF9FFC0
7FC07FC0
7F803FC0
7F801FE0
FF001FE0
FF001FE0
FF001FE0
FF001FE0
FF001FE0
FF001FE0
FF001FE0
FF001FE0
7F801FE0
7F803FC0
7FC07FC0
3FF1FFC0
3FFFFF80
1FFFFF00
0FFFFE00
07FFFC00
01FFF800
003FC000
ENDCHAR
STARTCHAR 0152
ENCODING 338
SWIDTH 1140 0
DWIDTH 57 0
BBX 55 37 1 -1
BITMAP
0003F800000000
003FFF0FFFFFFE
00FFFFCFFFFFFE
01FFFFEFFFFFFE
03FFFFFFFFFFFE
07FFFFFFFFFFFE
0FFFFFFFFFFFFE
1FFFFFFFFFFFFE
1FFC01FFFFFFFE
3FF800FFF00000
3FF0007FF00000
7FE0003FF00000
7FC0001FF00000
7FC0001FF00000
7FC0001FF00000
FF80000FFFFFF8
FF80000FFFFFF8
FF80000FFFFFF8
FF80000FFFFFF8
FF80000FFFFFF8
FF80000FFFFFF8
FF80000FFFFFF8
FF80001FF00000
7FC0001FF00000
7FC0001FF00000
7FE0003FF00000
3FF0007FF00000
3FF800FFF00000
1FFC01FFFFFFFE
1FFFFFFFFFFFFE
0FFFFFFFFFFFFE
07FFFFFFFFFFFE
03FFFFFFFFFFFE
01FFFFEFFFFFFE
00FFFFCFFFFFFE
001FFF0FFFFFFE
0001F800000000
ENDCHAR
STARTCHAR 0153
ENCODING 339
SWIDTH 960 0
DWIDTH 48 0
BBX 46 28 1 -1
BITMAP
003F8007F000
01FFF03FFE00
07FFFC7FFF80
0FFFFEFFFFC0
1FFFFFFFFFE0
3FFFFFFFFFF0
3FF9FFFC1FF0
7FC07FF007F8
7F803FF007F8
7F801FE003F8
FF001FE003FC
FF001FFFFFFC
FF001FFFFFFC
FF001FFFFFFC
FF001FFFFFFC
FF001FFFFFFC
FF001FE00000
7F801FE00000
7F803FE00000
7F803FF003F8
7FC07FF807F8
3FF1FFFC0FF0
3FFFFFFFFFF0
1FFFFFFFFFE0
0FFFFEFFFFC0
07FFFC7FFF80
01FFF01FFE00
003FC007F800
ENDCHAR
STARTCHAR 0154
ENCODING 340
SWIDTH 680 0
DWIDTH 34 0
BBX 30 45 3 0
BITMAP
0001FE00
0003FC00
0003F800
0007F000
000FE000
000FE000
001FC000
00000000
00000000
FFFFF800
FFFFFF00
FFFFFFC0
FFFFFFE0
FFFFFFF0
FFFFFFF0
FFFFFFF8
FF001FF8
FF000FF8
FF000FF8
FF0007F8
FF0007F8
FF0007F8
FF000FF8
FF000FF8
FF001FF0
FF007FF0
FFFFFFE0
FFFFFF80
FFFFFF00
FFFFFFC0
FFFFFFE0
FFFFFFF0
FF003FF0
FF001FF0
FF000FF8
FF000FF8
FF000FF8
FF000FF8
FF000FF8
FF000FF8
FF000FF8
FF000FF8
FF0007F8
FF0007F8
FF0007FC
ENDCHAR
STARTCHAR 0155
ENCODING 341
SWIDTH 400 0
DWIDTH 20 0
BBX 17 37 2 0
BITMAP
00FF00
00FE00
00FE00
01FC00
01F800
03F800
03F000
000000
000000
000000
000F80
FF3F80
FF7F80
FF7F80
FFFF80
FFFF80
FFFF80
FFF800
FFC000
FF8000
FF8000
FF0000
FF0000
FF0000
FF0000
FF0000
FF0000
FF0000
FF0000
FF0000
FF0000
FF0000
FF0000
FF0000
FF0000
FF0000
FF0000
ENDCHAR
STARTCHAR 0156
ENCODING 342
SWIDTH 680 0
DWIDTH 34 0
BBX 30 49 3 -13
BITMAP
FFFFF800
FFFFFF00
FFFFFFC0
FFFFFFE0
FFFFFFF0
FFFFFFF0
FFFFFFF8
FF001FF8
FF000FF8
FF000FF8
FF0007F8
FF0007F8
FF0007F8
FF000FF8
FF000FF8
FF001FF0
FF007FF0
FFFFFFE0
FFFFFF80
FFFFFF00
FFFFFFC0
FFFFFFE0
FFFFFFF0
FF003FF0
FF001FF0
FF000FF8
FF000FF8
FF000FF8
FF000FF8
FF000FF8
FF000FF8
FF000FF8
FF000FF8
FF0007F8
FF0007F8
FF0007FC
00000000
00000000
000FC000
000FC000
000FC000
000FC000
000FC000
000FC000
0003C000
0003C000
000FC000
000F8000
000F0000
ENDCHAR
STARTCHAR 0157
ENCODING 343
SWIDTH 400 0
DWIDTH 20 0
BBX 17 40 2 -13
BITMAP
000F80
FF3F80
FF7F80
FF7F80
FFFF80
FFFF80
FFFF80
FFF800
FFC000
FF8000
FF8000
FF0000
FF0000
FF0000
FF0000
FF0000
FF0000
FF0000
FF0000
FF0000
FF0000
FF0000
FF0000
FF0000
FF0000
FF0000
FF0000
000000
000000
000000
7F0000
7F0000
7F0000
7F0000
7F0000
7F0000
0F0000
3E0000
7E0000
780000
ENDCHAR
STARTCHAR 0158
ENCODING 344
SWIDTH 680 0
DWIDTH 34 0
BBX 30 45 3 0
BITMAP
0FE0FF00
07F1FE00
03F9FC00
01FFF800
01FFF000
00FFE000
007FE000
00000000
00000000
FFFFF800
FFFFFF00
FFFFFFC0
FFFFFFE0
FFFFFFF0
FFFFFFF0
FFFFFFF8
FF001FF8
FF000FF8
FF000FF8
FF0007F8
FF0007F8
FF0007F8
FF000FF8
FF000FF8
FF001FF0
FF007FF0
FFFFFFE0
FFFFFF80
FFFFFF00
FFFFFFC0
FFFFFFE0
FFFFFFF0
FF003FF0
FF001FF0
FF000FF8
FF000FF8
FF000FF8
FF000FF8
FF000FF8
FF000FF8
FF000FF8
FF000FF8
FF0007F8
FF0007F8
FF0007FC
ENDCHAR
STARTCHAR 0159
ENCODING 345
SWIDTH 400 0
DWIDTH 20 0
BBX 17 37 2 0
BITMAP
FE1F80
7E3F80
7F7F00
3FFE00
1FFE00
1FFC00
0FF800
000000
000000
000000
000F80
FF3F80
FF7F80
FF7F80
FFFF80
FFFF80
FFFF80
FFF800
FFC000
FF8000
FF8000
FF0000
FF0000
FF0000
FF0000
FF0000
FF0000
FF0000
FF0000
FF0000
FF0000
FF0000
FF0000
FF0000
FF0000
FF0000
FF0000
ENDCHAR
STARTCHAR 015A
ENCODING 346
SWIDTH 660 0
DWIDTH 33 0
BBX 31 47 1 -1
BITMAP
0001FF00
0001FE00
0003FC00
0003F800
0007F000
000FE000
000FC000
00000000
00000000
003FF000
01FFFE00
07FFFF80
0FFFFFC0
1FFFFFE0
3FFFFFF0
3FFFFFF0
7FE01FF8
7FC00FF8
7F8007F8
7F8007F8
7F8007F8
7FC00000
7FE00000
7FFC0000
3FFFE000
3FFFFE00
1FFFFF80
0FFFFFE0
07FFFFF0
01FFFFF8
007FFFF8
0003FFFC
00003FFC
000007FC
FF0003FE
FF0003FE
FF0003FE
FF8003FC
7F8007FC
7FE00FFC
7FFFFFFC
3FFFFFF8
1FFFFFF0
0FFFFFE0
07FFFFC0
01FFFF00
003FF800
ENDCHAR
STARTCHAR 015B
ENCODING 347
SWIDTH 520 0
DWIDTH 26 0
BBX 24 38 1 -1
BITMAP
0007FC
0007F8
000FF0
001FE0
001FC0
003F80
003F00
000000
000000
000000
01FF00
0FFFE0
1FFFF8
3FFFFC
7FFFFC
7FC3FE
FF00FE
FF00FF
FF00FF
FF8000
FFE000
7FFF80
7FFFF0
3FFFFC
1FFFFE
07FFFE
00FFFF
0003FF
0000FF
FE00FF
FF007F
FF00FF
FFC1FF
7FFFFE
3FFFFE
1FFFFC
0FFFF0
01FF80
ENDCHAR
STARTCHAR 015C
ENCODING 348
SWIDTH 660 0
DWIDTH 33 0
BBX 31 47 1 -1
BITMAP
003FE000
007FF000
00FFF800
01FFFC00
03FDFE00
07F8FF00
07F07F00
00000000
00000000
003FF000
01FFFE00
07FFFF80
0FFFFFC0
1FFFFFE0
3FFFFFF0
3FFFFFF0
7FE01FF8
7FC00FF8
7F8007F8
7F8007F8
7F8007F8
7FC00000
7FE00000
7FFC0000
3FFFE000
3FFFFE00
1FFFFF80
0FFFFFE0
07FFFFF0
01FFFFF8
007FFFF8
0003FFFC
00003FFC
000007FC
FF0003FE
FF0003FE
FF0003FE
FF8003FC
7F8007FC
7FE00FFC
7FFFFFFC
3FFFFFF8
1FFFFFF0
0FFFFFE0
07FFFFC0
01FFFF00
003FF800
ENDCHAR
STARTCHAR 015D
ENCODING 349
SWIDTH 520 0
DWIDTH 26 0
BBX 24 38 1 -1
BITMAP
01FF80
03FF80
07FFC0
07FFE0
0FE7F0
1FC3F8
3F83FC
000000
000000
000000
01FF00
0FFFE0
1FFFF8
3FFFFC
7FFFFC
7FC3FE
FF00FE
FF00FF
FF00FF
FF8000
FFE000
7FFF80
7FFFF0
3FFFFC
1FFFFE
07FFFE
00FFFF
0003FF
0000FF
FE00FF
FF007F
FF00FF
FFC1FF
7FFFFE
3FFFFE
1FFFFC
0FFFF0
01FF80
ENDCHAR
STARTCHAR 015E
ENCODING 350
SWIDTH 660 0
DWIDTH 33 0
BBX 31 49 1 -12
BITMAP
003FF000
01FFFE00
07FFFF80
0FFFFFC0
1FFFFFE0
3FFFFFF0
3FFFFFF0
7FE01FF8
7FC00FF8
7F8007F8
7F8007F8
7F8007F8
7FC00000
7FE00000
7FFC0000
3FFFE000
3FFFFE00
1FFFFF80
0FFFFFE0
07FFFFF0
01FFFFF8
007FFFF8
0003FFFC
00003FFC
000007FC
FF0003FE
FF0003FE
FF0003FE
FF8003FE
7F8007FC
7FE00FFC
7FFFFFFC
3FFFFFF8
1FFFFFF0
0FFFFFE0
07FFFFC0
01FFFF00
003FF800
0003C000
00078000
0007F000
0007F800
0000FC00
00007C00
00007C00
0000FC00
001FF800
001FF000
001FC000
ENDCHAR
STARTCHAR 015F
ENCODING 351
SWIDTH 520 0
DWIDTH 26 0
BBX 24 39 1 -12
BITMAP
01FF00
0FFFE0
1FFFF8
3FFFFC
7FFFFC
7FC3FE
FF00FE
FF00FF
FF00FF
FF8000
FFE000
7FFF80
7FFFF0
3FFFFC
1FFFFE
07FFFE
00FFFF
0007FF
0000FF
FE00FF
FF007F
FF00FF
FFC1FF
7FFFFE
3FFFFE
3FFFFC
0FFFF0
01FF80
003C00
007800
007F00
007F80
000FC0
0007C0
0007C0
000FC0
01FFC0
01FF80
01FC00
ENDCHAR
STARTCHAR 0160
ENCODING 352
SWIDTH 660 0
DWIDTH 33 0
BBX 31 47 1 -1
BITMAP
07F07F00
03F8FE00
03FDFE00
01FFFC00
00FFF800
007FF000
003FE000
00000000
00000000
003FF000
01FFFE00
07FFFF80
0FFFFFC0
1FFFFFE0
3FFFFFF0
3FFFFFF0
7FE01FF8
7FC00FF8
7F8007F8
7F8007F8
7F8007F8
7FC00000
7FE00000
7FFC0000
3FFFE000
3FFFFE00
1FFFFF80
0FFFFFE0
07FFFFF0
01FFFFF8
007FFFF8
0003FFFC
00003FFC
000007FC
FF0003FE
FF0003FE
FF0003FE
FF8003FC
7F8007FC
7FE00FFC
7FFFFFFC
3FFFFFF8
1FFFFFF0
0FFFFFE0
07FFFFC0
01FFFF00
003FF800
ENDCHAR
STARTCHAR 0161
ENCODING 353
SWIDTH 520 0
DWIDTH 26 0
BBX 24 38 1 -1
BITMAP
3F81FC
1FC3F8
0FE7F0
07FFE0
07FFC0
03FFC0
01FF80
000000
000000
000000
01FF00
0FFFE0
1FFFF8
3FFFFC
7FFFFC
7FC3FE
FF00FE
FF00FF
FF00FF
FF8000
FFE000
7FFF80
7FFFF0
3FFFFC
1FFFFE
07FFFE
00FFFF
0003FF
0000FF
FE00FF
FF007F
FF00FF
FFC1FF
7FFFFE
3FFFFE
1FFFFC
0FFFF0
01FF80
ENDCHAR
STARTCHAR 0162
ENCODING 354
SWIDTH 640 0
DWIDTH 32 0
BBX 30 47 1 -11
BITMAP
FFFFFFFC
FFFFFFFC
FFFFFFFC
FFFFFFFC
FFFFFFFC
FFFFFFFC
FFFFFFFC
FFFFFFFC
001FE000
001FE000
001FE000
001FE000
001FE000
001FE000
001FE000
001FE000
001FE000
001FE000
001FE000
001FE000
001FE000
001FE000
001FE000
001FE000
001FE000
001FE000
001FE000
001FE000
001FE000
001FE000
001FE000
001FE000
001FE000
001FE000
001FE000
001FE000
00070000
000E0000
000FC000
000FF000
0001F800
0000F800
0000F800
0001F800
003FF000
003FE000
003F8000
ENDCHAR
STARTCHAR 0163
ENCODING 355
SWIDTH 360 0
DWIDTH 18 0
BBX 16 45 1 -11
BITMAP
1FE0
1FE0
1FE0
1FE0
1FE0
1FE0
1FE0
1FE0
FFFF
FFFF
FFFF
FFFF
FFFF
FFFF
1FE0
1FE0
1FE0
1FE0
1FE0
1FE0
1FE0
1FE0
1FE0
1FE0
1FE0
1FE0
1FE0
1FF0
1FFF
0FFF
0FFF
07FF
03FF
00FF
00E0
01C0
03F8
03FE
003F
003F
003F
003F
07FE
07FC
07F0
ENDCHAR
STARTCHAR 0164
ENCODING 356
SWIDTH 640 0
DWIDTH 32 0
BBX 30 45 1 0
BITMAP
07F07F80
03F8FF00
01FDFE00
00FFFC00
00FFF800
007FF000
003FF000
00000000
00000000
FFFFFFFC
FFFFFFFC
FFFFFFFC
FFFFFFFC
FFFFFFFC
FFFFFFFC
FFFFFFFC
FFFFFFFC
001FE000
001FE000
001FE000
001FE000
001FE000
001FE000
001FE000
001FE000
001FE000
001FE000
001FE000
001FE000
001FE000
001FE000
001FE000
001FE000
001FE000
001FE000
001FE000
001FE000
001FE000
001FE000
001FE000
001FE000
001FE000
001FE000
001FE000
001FE000
ENDCHAR
STARTCHAR 0165
ENCODING 357
SWIDTH 360 0
DWIDTH 18 0
BBX 22 36 1 0
BITMAP
0003FC
0003F8
1FE3F8
1FE3F0
1FE7F0
1FE7E0
1FE7E0
1FE7C0
1FE000
1FE000
FFFF00
FFFF00
FFFF00
FFFF00
FFFF00
FFFF00
1FE000
1FE000
1FE000
1FE000
1FE000
1FE000
1FE000
1FE000
1FE000
1FE000
1FE000
1FE000
1FE000
1FF000
1FFF00
0FFF00
0FFF00
07FF00
03FF00
00FF00
ENDCHAR
STARTCHAR 0166
ENCODING 358
SWIDTH 640 0
DWIDTH 32 0
BBX 30 36 1 0
BITMAP
FFFFFFFC
FFFFFFFC
FFFFFFFC
FFFFFFFC
FFFFFFFC
FFFFFFFC
FFFFFFFC
FFFFFFFC
001FE000
001FE000
001FE000
001FE000
001FE000
001FE000
001FE000
001FE000
001FE000
0FFFFF80
0FFFFF80
0FFFFF80
0FFFFF80
001FE000
001FE000
001FE000
001FE000
001FE000
001FE000
001FE000
001FE000
001FE000
001FE000
001FE000
001FE000
001FE000
001FE000
001FE000
ENDCHAR
STARTCHAR 0167
ENCODING 359
SWIDTH 360 0
DWIDTH 18 0
BBX 16 34 1 0
BITMAP
1FE0
1FE0
1FE0
1FE0
1FE0
1FE0
1FE0
1FE0
FFFF
FFFF
FFFF
FFFF
FFFF
FFFF
1FE0
1FE0
1FE0
1FE0
FFFF
FFFF
FFFF
FFFF
1FE0
1FE0
1FE0
1FE0
1FE0
1FF0
1FFF
0FFF
0FFF
07FF
03FF
00FF
ENDCHAR
STARTCHAR 0168
ENCODING 360
SWIDTH 700 0
DWIDTH 35 0
BBX 31 46 2 -1
BITMAP
007E0F80
00FF9F80
01FFFF80
01FFFF00
03FFFF00
03E1FE00
03E07C00
00000000
00000000
FF8001FE
FF8001FE
FF8001FE
FF8001FE
FF8001FE
FF8001FE
FF8001FE
FF8001FE
FF8001FE
FF8001FE
FF8001FE
FF8001FE
FF8001FE
FF8001FE
FF8001FE
FF8001FE
FF8001FE
FF8001FE
FF8001FE
FF8001FE
FF8001FE
FF8001FE
FF8001FE
FF8001FE
FF8003FE
FF8003FE
7F8003FE
7FC007FC
7FE00FFC
3FFC7FFC
3FFFFFF8
1FFFFFF8
0FFFFFF0
07FFFFE0
03FFFF80
00FFFF00
001FF800
ENDCHAR
STARTCHAR 0169
ENCODING 361
SWIDTH 580 0
DWIDTH 29 0
BBX 25 37 2 -1
BITMAP
03E07C00
07FCFC00
0FFFF800
1FFFF800
1FFFF800
1F1FF000
1F03E000
00000000
00000000
00000000
FF007F80
FF007F80
FF007F80
FF007F80
FF007F80
FF007F80
FF007F80
FF007F80
FF007F80
FF007F80
FF007F80
FF007F80
FF007F80
FF007F80
FF007F80
FF007F80
FF007F80
FF007F80
FF80FF80
FF81FF80
7FFFFF80
7FFFFF80
7FFFFF80
3FFFFF80
1FFF7F80
0FFE7F80
03F00000
ENDCHAR
STARTCHAR 016A
ENCODING 362
SWIDTH 700 0
DWIDTH 35 0
BBX 31 44 2 -1
BITMAP
01FFFF00
01FFFF00
01FFFF00
01FFFF00
01FFFF00
00000000
00000000
FF8001FE
FF8001FE
FF8001FE
FF8001FE
FF8001FE
FF8001FE
FF8001FE
FF8001FE
FF8001FE
FF8001FE
FF8001FE
FF8001FE
FF8001FE
FF8001FE
FF8001FE
FF8001FE
FF8001FE
FF8001FE
FF8001FE
FF8001FE
FF8001FE
FF8001FE
FF8001FE
FF8001FE
FF8003FE
FF8003FE
7F8003FE
7FC007FC
7FE00FFC
3FFC7FFC
3FFFFFF8
1FFFFFF8
0FFFFFF0
07FFFFE0
03FFFF80
00FFFF00
001FF800
ENDCHAR
STARTCHAR 016B
ENCODING 363
SWIDTH 580 0
DWIDTH 29 0
BBX 25 35 2 -1
BITMAP
0FFFF800
0FFFF800
0FFFF800
0FFFF800
0FFFF800
00000000
00000000
00000000
FF007F80
FF007F80
FF007F80
FF007F80
FF007F80
FF007F80
FF007F80
FF007F80
FF007F80
FF007F80
FF007F80
FF007F80
FF007F80
FF007F80
FF007F80
FF007F80
FF007F80
FF007F80
FF80FF80
FF81FF80
7FFFFF80
7FFFFF80
7FFFFF80
3FFFFF80
1FFF7F80
0FFE7F80
03F00000
ENDCHAR
STARTCHAR 016C
ENCODING 364
SWIDTH 700 0
DWIDTH 35 0
BBX 31 46 2 -1
BITMAP
01F81F00
01F83F00
00FFFF00
00FFFE00
007FFC00
003FF800
000FE000
00000000
00000000
FF8001FE
FF8001FE
FF8001FE
FF8001FE
FF8001FE
FF8001FE
FF8001FE
FF8001FE
FF8001FE
FF8001FE
FF8001FE
FF8001FE
FF8001FE
FF8001FE
FF8001FE
FF8001FE
FF8001FE
FF8001FE
FF8001FE
FF8001FE
FF8001FE
FF8001FE
FF8001FE
FF8001FE
FF8003FE
FF8003FE
7F8003FE
7FC007FC
7FE00FFC
3FFC7FFC
3FFFFFF8
1FFFFFF8
0FFFFFF0
07FFFFE0
03FFFF80
00FFFF00
001FF800
ENDCHAR
STARTCHAR 016D
ENCODING 365
SWIDTH 580 0
DWIDTH 29 0
BBX 25 37 2 -1
BITMAP
0F81F800
0FC1F800
0FFFF000
07FFF000
03FFE000
01FFC000
007F0000
00000000
00000000
00000000
FF007F80
FF007F80
FF007F80
FF007F80
FF007F80
FF007F80
FF007F80
FF007F80
FF007F80
FF007F80
FF007F80
FF007F80
FF007F80
FF007F80
FF007F80
FF007F80
FF007F80
FF007F80
FF80FF80
FF81FF80
7FFFFF80
7FFFFF80
7FFFFF80
3FFFFF80
1FFF7F80
0FFE7F80
03F00000
ENDCHAR
STARTCHAR 016E
ENCODING 366
SWIDTH 700 0
DWIDTH 35 0
BBX 31 47 2 -1
BITMAP
000FE000
003FF800
007FFC00
007FFE00
00FC7E00
00F83E00
00F81E00
00F81E00
00F83E00
00FC7E00
FFFFFFFE
FFFFFDFE
FFBFF9FE
FF8FE1FE
FF8001FE
FF8001FE
FF8001FE
FF8001FE
FF8001FE
FF8001FE
FF8001FE
FF8001FE
FF8001FE
FF8001FE
FF8001FE
FF8001FE
FF8001FE
FF8001FE
FF8001FE
FF8001FE
FF8001FE
FF8001FE
FF8001FE
FF8001FE
FF8003FE
FF8003FE
7F8003FE
7FC007FC
7FE00FFC
3FFC7FFC
3FFFFFF8
1FFFFFF8
0FFFFFF0
07FFFFE0
03FFFF80
00FFFF00
001FF800
ENDCHAR
STARTCHAR 016F
ENCODING 367
SWIDTH 580 0
DWIDTH 29 0
BBX 25 44 2 -1
BITMAP
007F0000
01FFC000
03FFE000
07FFE000
07E3F000
07C1F000
0781F000
0781F000
07C1F000
07E3F000
07FFE000
03FFE000
01FFC000
00FF0000
00000000
00000000
00000000
FF007F80
FF007F80
FF007F80
FF007F80
FF007F80
FF007F80
FF007F80
FF007F80
FF007F80
FF007F80
FF007F80
FF007F80
FF007F80
FF007F80
FF007F80
FF007F80
FF007F80
FF007F80
FF80FF80
FF81FF80
7FFFFF80
7FFFFF80
7FFFFF80
3FFFFF80
1FFF7F80
0FFE7F80
03F00000
ENDCHAR
STARTCHAR 0170
ENCODING 368
SWIDTH 700 0
DWIDTH 35 0
BBX 31 46 2 -1
BITMAP
001FE3FE
003FC3F8
003F87F8
007F0FF0
007E0FE0
00FC1FC0
01F83F80
00000000
00000000
FF8001FE
FF8001FE
FF8001FE
FF8001FE
FF8001FE
FF8001FE
FF8001FE
FF8001FE
FF8001FE
FF8001FE
FF8001FE
FF8001FE
FF8001FE
FF8001FE
FF8001FE
FF8001FE
FF8001FE
FF8001FE
FF8001FE
FF8001FE
FF8001FE
FF8001FE
FF8001FE
FF8001FE
FF8003FE
FF8003FE
7F8003FE
7FC007FC
7FE00FFC
3FFC7FFC
3FFFFFF8
1FFFFFF8
0FFFFFF0
07FFFFE0
03FFFF80
00FFFF00
001FF800
ENDCHAR
STARTCHAR 0171
ENCODING 369
SWIDTH 580 0
DWIDTH 29 0
BBX 28 38 2 -1
BITMAP
00FF9FF0
00FF1FE0
01FE3FC0
03FC3F80
03F87F00
07F0FE00
07E0FC00
00000000
00000000
00000000
00000000
FF007F80
FF007F80
FF007F80
FF007F80
FF007F80
FF007F80
FF007F80
FF007F80
FF007F80
FF007F80
FF007F80
FF007F80
FF007F80
FF007F80
FF007F80
FF007F80
FF007F80
FF007F80
FF80FF80
FF81FF80
7FFFFF80
7FFFFF80
7FFFFF80
3FFFFF80
1FFF7F80
0FFE7F80
03F00000
ENDCHAR
STARTCHAR 0172
ENCODING 370
SWIDTH 700 0
DWIDTH 35 0
BBX 31 46 2 -10
BITMAP
FF8001FE
FF8001FE
FF8001FE
FF8001FE
FF8001FE
FF8001FE
FF8001FE
FF8001FE
FF8001FE
FF8001FE
FF8001FE
FF8001FE
FF8001FE
FF8001FE
FF8001FE
FF8001FE
FF8001FE
FF8001FE
FF8001FE
FF8001FE
FF8001FE
FF8001FE
FF8001FE
FF8001FE
FF8001FE
FF8003FE
7F8003FE
7FC007FC
7FE00FFC
3FFC7FFC
3FFFFFF8
1FFFFFF8
0FFFFFF0
07FFFFE0
03FFFF80
00FFFF00
001FF800
0007E000
000FC000
001F8000
001F8000
001FC000
001FFC00
000FFC00
0007FC00
0001FC00
ENDCHAR
STARTCHAR 0173
ENCODING 371
SWIDTH 580 0
DWIDTH 29 0
BBX 25 36 2 -10
BITMAP
FF007F80
FF007F80
FF007F80
FF007F80
FF007F80
FF007F80
FF007F80
FF007F80
FF007F80
FF007F80
FF007F80
FF007F80
FF007F80
FF007F80
FF007F80
FF007F80
FF007F80
FF007F80
FF80FF80
FF81FF80
7FFFFF80
7FFFFF80
7FFFFF80
3FFFFF80
1FFF7F80
0FFE7F80
03F03F00
0000FC00
0001F800
0001F000
0003F000
0003F800
0003FF80
0001FF80
0000FF80
00003F80
ENDCHAR
STARTCHAR 0174
ENCODING 372
SWIDTH 1000 0
DWIDTH 50 0
BBX 50 45 0 0
BITMAP
00000FFC000000
00001FFC000000
00003FFE000000
00007FFF000000
00007F3F800000
0000FE1FC00000
0001FC0FE00000
00000000000000
00000000000000
FF800FF8007FC0
FF800FF800FF80
7F800FFC00FF80
7FC00FFC00FF80
7FC00FFC00FF00
7FC01FFC00FF00
3FC01FFE01FF00
3FE01FFE01FF00
3FE01FFE01FE00
1FE03FFE01FE00
1FE03FFE03FE00
1FF03FFF03FE00
1FF03F7F03FC00
0FF07F7F03FC00
0FF07F3F07FC00
0FF87F3F87F800
0FF87F3F87F800
07F87E3F87F800
07F8FE3F8FF800
07F8FE1F8FF000
03FCFE1FCFF000
03FCFE1FCFF000
03FCFC1FCFF000
03FDFC0FDFE000
01FFFC0FDFE000
01FFFC0FDFE000
01FFF80FFFC000
01FFF80FFFC000
00FFF807FFC000
00FFF807FFC000
00FFF007FF8000
007FF007FF8000
007FF003FF8000
007FF003FF8000
007FF003FF0000
003FE003FF0000
ENDCHAR
STARTCHAR 0175
ENCODING 373
SWIDTH 860 0
DWIDTH 43 0
BBX 43 37 0 0
BITMAP
00007FC00000
0000FFE00000
0001FFF00000
0003FFF80000
0007FBF80000
0007F1FC0000
000FE0FE0000
000000000000
000000000000
000000000000
000000000000
FF803F803FE0
7F807F803FC0
7F807FC03FC0
7F807FC07FC0
7FC07FC07F80
3FC0FFE07F80
3FC0FFE07F80
3FE0FFE0FF00
1FE1FFE0FF00
1FE1FFF0FF00
1FE1FBF1FE00
0FF1FBF1FE00
0FF3FBF1FE00
0FF3F1F9FC00
07FBF1FBFC00
07FBF1FBFC00
07FFE1FBF800
03FFE0FFF800
03FFE0FFF800
03FFE0FFF000
01FFC07FF000
01FFC07FF000
01FFC07FF000
00FF807FE000
00FF803FE000
00FF803FE000
ENDCHAR
STARTCHAR 0176
ENCODING 374
SWIDTH 700 0
DWIDTH 35 0
BBX 35 45 0 0
BITMAP
0007FC0000
000FFE0000
001FFF0000
003FFF8000
007FBFC000
00FF1FC000
00FE0FE000
0000000000
0000000000
FFC0007FE0
7FC0007FC0
7FE000FFC0
3FF000FF80
1FF001FF00
1FF803FF00
0FF803FE00
07FC07FE00
07FC07FC00
03FE0FF800
03FF0FF800
01FF1FF000
00FF9FF000
00FFBFE000
007FFFC000
007FFFC000
003FFF8000
001FFF8000
001FFF0000
000FFE0000
000FFE0000
0007FC0000
0007FC0000
0007FC0000
0007FC0000
0007FC0000
0007FC0000
0007FC0000
0007FC0000
0007FC0000
0007FC0000
0007FC0000
0007FC0000
0007FC0000
0007FC0000
0007FC0000
ENDCHAR
STARTCHAR 0177
ENCODING 375
SWIDTH 560 0
DWIDTH 28 0
BBX 27 47 0 -10
BITMAP
007FC000
00FFE000
01FFF000
01FFF800
03FBFC00
07F1FE00
0FE0FE00
00000100
00000000
00000000
00000000
FF801FE0
7F801FE0
7F801FE0
7FC03FC0
3FC03FC0
3FC03FC0
3FC07F80
1FE07F80
1FE07F80
1FE07F00
0FF0FF00
0FF0FF00
0FF0FE00
07F0FE00
07F9FE00
07F9FC00
03F9FC00
03F9F800
03FFF800
01FFF800
01FFF000
00FFF000
00FFF000
00FFE000
00FFE000
007FE000
007FC000
00FFC000
00FFC000
01FF8000
3FFF8000
3FFF0000
3FFE0000
3FFC0000
3FF80000
3FE00000
ENDCHAR
STARTCHAR 0178
ENCODING 376
SWIDTH 700 0
DWIDTH 35 0
BBX 35 45 0 0
BITMAP
00FF1FE000
00FF1FE000
00FF1FE000
00FF1FE000
00FF1FE000
00FF1FE000
00FF1FE000
0000000000
0000000000
FFC0007FE0
7FC0007FC0
7FE000FFC0
3FF000FF80
1FF001FF00
1FF803FF00
0FF803FE00
07FC07FE00
07FC07FC00
03FE0FF800
03FF0FF800
01FF1FF000
00FF9FF000
00FFBFE000
007FFFC000
007FFFC000
003FFF8000
001FFF8000
001FFF0000
000FFE0000
000FFE0000
0007FC0000
0007FC0000
0007FC0000
0007FC0000
0007FC0000
0007FC0000
0007FC0000
0007FC0000
0007FC0000
0007FC0000
0007FC0000
0007FC0000
0007FC0000
0007FC0000
0007FC0000
ENDCHAR
STARTCHAR 0179
ENCODING 377
SWIDTH 640 0
DWIDTH 32 0
BBX 30 45 1 0
BITMAP
0000FF80
0000FE00
0001FE00
0003FC00
0003F800
0007F000
000FE000
00000000
00000000
7FFFFFFC
7FFFFFFC
7FFFFFFC
7FFFFFFC
7FFFFFFC
7FFFFFFC
7FFFFFFC
7FFC9FF8
00003FF0
00007FE0
0000FFC0
0001FFC0
0003FF80
0007FF00
0007FE00
000FFC00
001FF800
003FF800
007FF000
00FFE000
00FFC000
01FF8000
03FF0000
07FF0000
0FFE0000
1FFC0000
1FF80000
3FF00000
7FE0FFFC
FFFFFFFC
FFFFFFFC
FFFFFFFC
FFFFFFFC
FFFFFFFC
FFFFFFFC
FFFFFFFC
ENDCHAR
STARTCHAR 017A
ENCODING 378
SWIDTH 500 0
DWIDTH 25 0
BBX 23 37 1 0
BITMAP
0007F8
000FF0
000FE0
001FE0
003FC0
003F80
007F00
000000
000000
000000
000000
FFFFFE
FFFFFE
FFFFFE
FFFFFE
FFFFFE
FFFFFC
000FF8
001FF0
003FF0
003FE0
007FC0
00FF80
01FF00
03FF00
03FE00
07FC00
0FF800
1FF000
3FF000
3FE000
7FFFFE
FFFFFE
FFFFFE
FFFFFE
FFFFFE
FFFFFE
ENDCHAR
STARTCHAR 017B
ENCODING 379
SWIDTH 640 0
DWIDTH 32 0
BBX 30 45 1 0
BITMAP
001FE000
001FE000
001FE000
001FE000
001FE000
001FE000
001FE000
00000000
00000000
7FFFFFFC
7FFFFFFC
7FFFFFFC
7FFFFFFC
7FFFFFFC
7FFFFFFC
7FFFFFFC
7FFC9FF8
00003FF0
00007FE0
0000FFC0
0001FFC0
0003FF80
0007FF00
0007FE00
000FFC00
001FF800
003FF800
007FF000
00FFE000
00FFC000
01FF8000
03FF0000
07FF0000
0FFE0000
1FFC0000
1FF80000
3FF00000
7FE0FFFC
FFFFFFFC
FFFFFFFC
FFFFFFFC
FFFFFFFC
FFFFFFFC
FFFFFFFC
FFFFFFFC
ENDCHAR
STARTCHAR 017C
ENCODING 380
SWIDTH 500 0
DWIDTH 25 0
BBX 23 36 1 0
BITMAP
00FF00
00FF00
00FF00
00FF00
00FF00
00FF00
00FF00
000000
000000
000000
FFFFFE
FFFFFE
FFFFFE
FFFFFE
FFFFFE
FFFFFC
000FF8
001FF0
003FF0
003FE0
007FC0
00FF80
01FF00
03FF00
03FE00
07FC00
0FF800
1FF000
3FF000
3FE000
7FFFFE
FFFFFE
FFFFFE
FFFFFE
FFFFFE
FFFFFE
ENDCHAR
STARTCHAR 017D
ENCODING 381
SWIDTH 640 0
DWIDTH 32 0
BBX 30 45 1 0
BITMAP
07F83F80
03F87F00
01FCFE00
00FFFC00
007FFC00
003FF800
003FF000
00000000
00000000
7FFFFFFC
7FFFFFFC
7FFFFFFC
7FFFFFFC
7FFFFFFC
7FFFFFFC
7FFFFFFC
7FFC9FF8
00003FF0
00007FE0
0000FFC0
0001FFC0
0003FF80
0007FF00
0007FE00
000FFC00
001FF800
003FF800
007FF000
00FFE000
00FFC000
01FF8000
03FF0000
07FF0000
0FFE0000
1FFC0000
1FF80000
3FF00000
7FE0FFFC
FFFFFFFC
FFFFFFFC
FFFFFFFC
FFFFFFFC
FFFFFFFC
FFFFFFFC
FFFFFFFC
ENDCHAR
STARTCHAR 017E
ENCODING 382
SWIDTH 500 0
DWIDTH 25 0
BBX 23 37 1 0
BITMAP
3F83FC
1FC3F8
1FE7F0
0FFFE0
07FFC0
03FF80
01FF80
000000
000000
000000
000000
FFFFFE
FFFFFE
FFFFFE
FFFFFE
FFFFFE
FFFFFC
000FF8
001FF0
003FF0
003FE0
007FC0
00FF80
01FF00
03FF00
03FE00
07FC00
0FF800
1FF000
3FF000
3FE000
7FFFFE
FFFFFE
FFFFFE
FFFFFE
FFFFFE
FFFFFE
ENDCHAR
STARTCHAR 018F
ENCODING 399
SWIDTH 740 0
DWIDTH 37 0
BBX 35 38 1 -1
BITMAP
0007FC0000
003FFF8000
00FFFFE000
03FFFFF000
07FFFFFC00
0FFFFFFE00
0FFFFFFF00
1FFF1FFF00
3FF803FF80
3FE001FF80
3FE000FFC0
7FC0007FC0
0000007FC0
0000003FE0
0000003FE0
0000003FE0
0000003FE0
FFFFFFFFE0
FFFFFFFFE0
FFFFFFFFE0
FFFFFFFFE0
FFFFFFFFE0
FF80003FE0
7F80003FE0
7F80003FE0
7FC0007FC0
7FC0007FC0
3FE000FFC0
3FF001FF80
1FF803FF80
1FFE0FFF00
0FFFFFFE00
07FFFFFE00
03FFFFFC00
01FFFFF000
00FFFFE000
003FFF8000
0007FC0000
ENDCHAR
STARTCHAR 0192
ENCODING 402
SWIDTH 540 0
DWIDTH 27 0
BBX 25 47 1 -10
BITMAP
00007F80
0003FF80
0007FF80
000FFF80
000FFF80
001FFF80
001FF800
001FF000
003FE000
003FE000
003FE000
003FE000
003FC000
003FC000
003FC000
0FFFFE00
0FFFFE00
0FFFFE00
0FFFFE00
0FFFFE00
0FFFFE00
00FF8000
00FF8000
00FF8000
00FF8000
00FF0000
00FF0000
00FF0000
01FF0000
01FF0000
01FF0000
01FF0000
01FE0000
01FE0000
01FE0000
03FE0000
03FE0000
03FE0000
03FE0000
07FC0000
0FFC0000
FFFC0000
FFF80000
FFF80000
FFF00000
FFE00000
FF000000
ENDCHAR
STARTCHAR 01F4
ENCODING 500
SWIDTH 780 0
DWIDTH 39 0
BBX 36 47 1 -1
BITMAP
00001FF000
00001FE000
00003FC000
00007F8000
00007F0000
0000FE0000
0001FC0000
0000000000
0000000000
0007FE0000
003FFFC000
00FFFFF000
01FFFFFC00
03FFFFFE00
07FFFFFF00
0FFFFFFF80
1FFF8FFF80
1FFC01FFC0
3FF000FFC0
3FE0007FE0
7FE0003FE0
7FC0003FE0
7FC0000000
7FC0000000
FF80000000
FF80000000
FF801FFFF0
FF801FFFF0
FF801FFFF0
FF801FFFF0
FF801FFFF0
FF801FFFF0
7FC01FFFF0
7FC0001FF0
7FC0001FF0
7FE0003FF0
3FF0003FF0
3FF0007FF0
3FFC01FFF0
1FFF07FFF0
0FFFFFFFF0
0FFFFFFFF0
07FFFFF7F0
03FFFFE7F0
00FFFFC7F0
003FFF03F0
0007F80000
ENDCHAR
STARTCHAR 01F5
ENCODING 501
SWIDTH 600 0
DWIDTH 30 0
BBX 27 47 1 -10
BITMAP
0001FF00
0001FE00
0003FC00
0003F800
0007F000
000FE000
000FC000
00000000
00000000
00000000
00FE0000
03FF9FE0
0FFFDFE0
1FFFFFE0
1FFFFFE0
3FFFFFE0
7FF1FFE0
7FC07FE0
7F803FE0
FF801FE0
FF001FE0
FF001FE0
FF001FE0
FF001FE0
FF001FE0
FF001FE0
7F801FE0
7F803FE0
7FC07FE0
7FF1FFE0
3FFFFFE0
1FFFFFE0
1FFFFFE0
0FFFDFE0
03FF9FE0
00FE1FE0
00001FE0
00001FE0
7F801FC0
7F803FC0
3FE07FC0
3FFFFF80
1FFFFF80
0FFFFF00
07FFFE00
03FFF800
007FC000
ENDCHAR
STARTCHAR 01FA
ENCODING 506
SWIDTH 740 0
DWIDTH 37 0
BBX 36 52 0 0
BITMAP
00001FF000
00001FE000
00003FC000
00003F8000
00007F0000
0000FE0000
0000FE0000
0003FC0000
0007FE0000
000FFF0000
001FFF8000
001F0F8000
003F07C000
003E07C000
003E07C000
001F07C000
001F9F8000
001FFF8000
000FFF0000
000FFF0000
000FFF8000
001FFF8000
001FFF8000
001FFFC000
003FFFC000
003FDFE000
007F9FE000
007F9FE000
007F8FF000
00FF0FF000
00FF0FF000
00FF07F800
01FE07F800
01FE07FC00
03FE03FC00
03FC03FC00
03FC03FE00
07FC01FE00
07F801FE00
07FFFFFF00
0FFFFFFF00
0FFFFFFF80
0FFFFFFF80
1FFFFFFF80
1FFFFFFFC0
3FFFFFFFC0
3FE0003FC0
3FC0003FE0
7FC0003FE0
7F80001FF0
7F80001FF0
FF80001FF0
ENDCHAR
STARTCHAR 01FB
ENCODING 507
SWIDTH 560 0
DWIDTH 28 0
BBX 26 54 1 -1
BITMAP
0001FE00
0003FC00
0003F800
0007F000
000FE000
000FC000
001FC000
00000000
00000000
001F0000
007FC000
00FFE000
01FFF000
03FBF800
03E0F800
03E0F800
03E0F800
03E0F800
03E0F800
03FBF800
01FFF000
00FFE000
007FC000
001F0000
00000000
00000000
007FC000
03FFF800
0FFFFE00
1FFFFF00
3FFFFF00
3FFFFF80
3FC07F80
7F807F80
7F807F80
00007F80
0000FF80
00FFFF80
0FFFFF80
1FFFFF80
3FFFFF80
7FFFFF80
FFE07F80
FF807F80
FF007F80
FF007F80
FF00FF80
FF00FF80
FFC7FF80
7FFFFF80
7FFFFF80
3FFFBF80
1FFE3FC0
03F80000
ENDCHAR
STARTCHAR 01FC
ENCODING 508
SWIDTH 1060 0
DWIDTH 53 0
BBX 52 45 0 0
BITMAP
000000001FF000
000000001FC000
000000003FC000
000000007F8000
000000007F0000
00000000FE0000
00000001FC0000
00000000000000
00000000000000
00007FFFFFFFF0
00007FFFFFFFF0
0000FFFFFFFFF0
0000FFFFFFFFF0
0001FFFFFFFFF0
0001FFFFFFFFF0
0003FFFFFFFFF0
0003FC1FFFFFF0
0007FC1FE00000
0007F81FE00000
000FF81FE00000
000FF01FE00000
001FF01FE00000
001FE01FE00000
003FE01FE00000
003FE01FFFFFC0
007FC01FFFFFC0
007FC01FFFFFC0
00FF801FFFFFC0
00FF801FFFFFC0
01FF001FFFFFC0
01FFFFFFFFFFC0
01FFFFFFE00000
03FFFFFFE00000
03FFFFFFE00000
07FFFFFFE00000
07FFFFFFE00000
0FFFFFFFE00000
0FF0001FFFFFF0
1FF0001FFFFFF0
1FE0001FFFFFF0
3FE0001FFFFFF0
3FC0001FFFFFF0
7FC0001FFFFFF0
7F80001FFFFFF0
FF80001FFFFFF0
ENDCHAR
STARTCHAR 01FD
ENCODING 509
SWIDTH 900 0
DWIDTH 45 0
BBX 43 38 1 -1
BITMAP
000001FE0000
000003FC0000
000003FC0000
000007F80000
000007F00000
00000FE00000
00001FC00000
000000000000
000000000000
000000000000
007FC03FC000
03FFF8FFF000
0FFFFFFFFC00
1FFFFFFFFE00
3FFFFFFFFF00
3FFFFFFFFF00
3FC07FE07F80
7F807FC03F80
7F807F801FC0
00007F801FC0
0000FF801FC0
00FFFFFFFFC0
0FFFFFFFFFE0
1FFFFFFFFFE0
3FFFFFFFFFE0
7FFE7FFFFFE0
FFC07F800000
FF007F800000
FF007F800000
FF007FC01FC0
FF00FFC03FC0
FF80FFE07F80
FFC7FFFFFF80
7FFFFFFFFF00
7FFFF7FFFE00
3FFFE3FFFC00
0FFF80FFF800
03FE003FC000
ENDCHAR
STARTCHAR 01FE
ENCODING 510
SWIDTH 780 0
DWIDTH 39 0
BBX 37 49 1 -3
BITMAP
00001FF000
00001FE000
00003FC000
00003F8000
00007F0000
0000FE0000
0000FC0000
0000000000
0000000040
0003FE00F0
001FFFC1F8
007FFFF3F0
01FFFFFFE0
03FFFFFFC0
07FFFFFF80
0FFFFFFF80
1FFF9FFFC0
1FFC01FFC0
3FF800FFE0
3FF001FFE0
7FE003FFF0
7FC007FFF0
7FC00FDFF0
7FC01F9FF0
FF803F8FF0
FF803F0FF8
FF807E0FF8
FF80FC0FF8
FF81F80FF8
FF83F00FF8
FF87E00FF8
FF8FE00FF0
7FCFC01FF0
7FDF801FF0
7FFF001FF0
7FFE003FE0
3FFC007FE0
3FF800FFE0
1FFC01FFC0
1FFF8FFFC0
0FFFFFFF80
0FFFFFFF00
1FFFFFFE00
3FFFFFFC00
7E7FFFF000
FC1FFFC000
7C03FE0000
3800000000
1000000000
ENDCHAR
STARTCHAR 01FF
ENCODING 511
SWIDTH 580 0
DWIDTH 29 0
BBX 27 39 1 -3
BITMAP
0001FE00
0003FC00
0003F800
0007F800
0007F000
000FE000
001FC000
00000000
00000080
000001C0
003FC1E0
01FFFBE0
07FFFFC0
0FFFFF80
1FFFFF00
3FFFFF80
3FE07FC0
7FC07FC0
7F80FFC0
7F01FFE0
FF03FFE0
FF07DFE0
FF0FCFE0
FF0F8FE0
FF1F0FE0
FF3E0FE0
FF7C1FE0
FFF81FE0
7FF81FE0
7FF01FC0
7FE03FC0
3FE07FC0
3FFFFF80
1FFFFF00
3FFFFE00
7FFFFC00
FDFFF800
783FC000
30000000
ENDCHAR
STARTCHAR 0218
ENCODING 536
SWIDTH 660 0
DWIDTH 33 0
BBX 31 51 1 -14
BITMAP
003FF000
01FFFE00
07FFFF80
0FFFFFC0
1FFFFFE0
3FFFFFF0
3FFFFFF0
7FE01FF8
7FC00FF8
7F8007F8
7F8007F8
7F8007F8
7FC00000
7FE00000
7FFC0000
3FFFE000
3FFFFE00
1FFFFF80
0FFFFFE0
07FFFFF0
01FFFFF8
007FFFF8
0003FFFC
00003FFC
000007FC
FF0003FE
FF0003FE
FF0003FE
FF8003FC
7F8007FC
7FE00FFC
7FFFFFFC
3FFFFFF8
1FFFFFF0
0FFFFFE0
07FFFFC0
01FFFF00
003FF800
00000000
00000000
0007E000
0007E000
0007E000
0007E000
0007E000
0007E000
0001E000
0001E000
0007E000
0007C000
00078000
ENDCHAR
STARTCHAR 0219
ENCODING 537
SWIDTH 520 0
DWIDTH 26 0
BBX 24 41 1 -14
BITMAP
01FF00
0FFFE0
1FFFF8
3FFFFC
7FFFFC
7FC3FE
FF00FE
FF00FF
FF00FF
FF8000
FFE000
7FFF80
7FFFF0
3FFFFC
1FFFFE
07FFFE
00FFFF
0003FF
0000FF
FE00FF
FF007F
FF00FF
FFC1FF
7FFFFE
3FFFFE
1FFFFC
0FFFF0
01FF80
000000
000000
000000
007F00
007F00
007F00
007F00
007F00
007F00
000F00
003E00
007E00
007800
ENDCHAR
STARTCHAR 021A
ENCODING 538
SWIDTH 640 0
DWIDTH 32 0
BBX 30 49 1 -13
BITMAP
FFFFFFFC
FFFFFFFC
FFFFFFFC
FFFFFFFC
FFFFFFFC
FFFFFFFC
FFFFFFFC
FFFFFFFC
001FE000
001FE000
001FE000
001FE000
001FE000
001FE000
001FE000
001FE000
001FE000
001FE000
001FE000
001FE000
001FE000
001FE000
001FE000
001FE000
001FE000
001FE000
001FE000
001FE000
001FE000
001FE000
001FE000
001FE000
001FE000
001FE000
001FE000
001FE000
00000000
00000000
001FC000
001FC000
001FC000
001FC000
001FC000
001FC000
0003C000
0003C000
001FC000
001F8000
001F0000
ENDCHAR
STARTCHAR 021B
ENCODING 539
SWIDTH 360 0
DWIDTH 18 0
BBX 16 47 1 -13
BITMAP
1FE0
1FE0
1FE0
1FE0
1FE0
1FE0
1FE0
1FE0
FFFF
FFFF
FFFF
FFFF
FFFF
FFFF
1FE0
1FE0
1FE0
1FE0
1FE0
1FE0
1FE0
1FE0
1FE0
1FE0
1FE0
1FE0
1FE0
1FF0
1FFF
0FFF
0FFF
07FF
03FF
00FF
0000
0000
0000
03F8
03F8
03F8
03F8
03F8
03F8
0078
00F8
03F0
03E0
ENDCHAR
STARTCHAR 0237
ENCODING 567
SWIDTH 240 0
DWIDTH 12 0
BBX 11 36 -1 -10
BITMAP
1FE0
1FE0
1FE0
1FE0
1FE0
1FE0
1FE0
1FE0
1FE0
1FE0
1FE0
1FE0
1FE0
1FE0
1FE0
1FE0
1FE0
1FE0
1FE0
1FE0
1FE0
1FE0
1FE0
1FE0
1FE0
1FE0
1FE0
1FE0
1FE0
1FE0
FFE0
FFE0
FFC0
FFC0
FF80
FE00
ENDCHAR
STARTCHAR 0259
ENCODING 601
SWIDTH 580 0
DWIDTH 29 0
BBX 27 28 1 -1
BITMAP
003F8000
01FFF000
07FFFC00
0FFFFE00
1FFFFF00
3FFFFF80
3FE0FF80
7F803FC0
7F803FC0
00001FC0
00001FE0
00001FE0
FFFFFFE0
FFFFFFE0
FFFFFFE0
FFFFFFE0
7FFFFFE0
7F001FE0
7F001FC0
7F801FC0
3FC03FC0
3FE07F80
1FFFFF80
1FFFFF00
0FFFFE00
07FFFC00
01FFF000
003FC000
ENDCHAR
STARTCHAR 02B0
ENCODING 688
SWIDTH 460 0
DWIDTH 23 0
BBX 22 32 1 13
BITMAP
FE0000
FE0000
FE0000
FE0000
FE0000
FE0000
FE0000
FE0000
FE1F80
FE7FC0
FEFFF0
FFFFF0
FFFFF8
FFFFF8
FF87F8
FF03F8
FE03FC
FE01FC
FE01FC
FE01FC
FE01FC
FE01FC
FE01FC
FE01FC
FE01FC
FE01FC
FE01FC
FE01FC
FE01FC
FE01FC
FE01FC
FE01FC
ENDCHAR
STARTCHAR 02B3
ENCODING 691
SWIDTH 320 0
DWIDTH 16 0
BBX 15 24 1 13
BITMAP
003E
FE7E
FEFE
FFFE
FFFE
FFFE
FFF0
FF80
FF00
FE00
FE00
FE00
FE00
FE00
FE00
FE00
FE00
FE00
FE00
FE00
FE00
FE00
FE00
FE00
ENDCHAR
STARTCHAR 02C6
ENCODING 710
SWIDTH 400 0
DWIDTH 20 0
BBX 20 7 0 30
BITMAP
07FE00
0FFF00
0FFF00
1FFF80
3F9FC0
7F0FE0
FE07F0
ENDCHAR
STARTCHAR 02C7
ENCODING 711
SWIDTH 400 0
DWIDTH 20 0
BBX 20 7 0 30
BITMAP
FE07F0
7F0FE0
3F9FC0
1FFF80
1FFF80
0FFF00
07FE00
ENDCHAR
STARTCHAR 02C9
ENCODING 713
SWIDTH 400 0
DWIDTH 20 0
BBX 16 5 2 29
BITMAP
FFFF
FFFF
FFFF
FFFF
FFFF
ENDCHAR
STARTCHAR 02D8
ENCODING 728
SWIDTH 400 0
DWIDTH 20 0
BBX 18 8 1 28
BITMAP
FC0FC0
FC0FC0
7E1F80
7FFF80
3FFF00
1FFE00
0FFC00
00C000
ENDCHAR
STARTCHAR 02D9
ENCODING 729
SWIDTH 400 0
DWIDTH 20 0
BBX 8 7 6 29
BITMAP
FF
FF
FF
FF
FF
FF
FF
ENDCHAR
STARTCHAR 02DA
ENCODING 730
SWIDTH 400 0
DWIDTH 20 0
BBX 16 14 2 29
BITMAP
07E0
1FF8
3FFC
7FFE
7E7E
FC3E
F81F
F81F
F81F
7C3E
7FFE
3FFC
1FF8
0FF0
ENDCHAR
STARTCHAR 02DB
ENCODING 731
SWIDTH 400 0
DWIDTH 20 0
BBX 10 10 5 -10
BITMAP
1F80
7E00
7C00
F800
F800
FC00
FFC0
FFC0
7FC0
1FC0
ENDCHAR
STARTCHAR 02DC
ENCODING 732
SWIDTH 400 0
DWIDTH 20 0
BBX 18 7 1 29
BITMAP
1F03C0
7FE7C0
7FFFC0
FFFFC0
FFFF80
F8FF80
F01E00
ENDCHAR
STARTCHAR 02DD
ENCODING 733
SWIDTH 400 0
DWIDTH 20 0
BBX 24 7 -2 30
BITMAP
0FF1FF
1FE1FE
1FE3FC
3FC7F8
3F87F0
7F0FE0
FE0FC0
ENDCHAR
STARTCHAR 02E2
ENCODING 738
SWIDTH 460 0
DWIDTH 23 0
BBX 21 25 1 12
BITMAP
03FE00
1FFF80
3FFFC0
7FFFE0
7FFFF0
FE07F0
FE03F0
FE03F8
FF0000
FFE000
7FFF00
7FFFC0
3FFFE0
1FFFF0
07FFF8
001FF8
0003F8
FE03F8
FE03F8
FE03F8
FFFFF8
7FFFF0
3FFFE0
1FFFC0
03FE00
ENDCHAR
STARTCHAR 0300
ENCODING 768
SWIDTH 0 0
DWIDTH 0 0
BBX 12 7 -6 30
BITMAP
FF00
7F80
3FC0
1FC0
0FE0
07E0
03F0
ENDCHAR
STARTCHAR 0301
ENCODING 769
SWIDTH 0 0
DWIDTH 0 0
BBX 12 7 -6 30
BITMAP
0FF0
1FE0
3FC0
3F80
7F00
7E00
FC00
ENDCHAR
STARTCHAR 0302
ENCODING 770
SWIDTH 0 0
DWIDTH 0 0
BBX 20 7 -10 30
BITMAP
07FE00
0FFF00
0FFF00
1FFF80
3F9FC0
7F0FE0
FE07F0
ENDCHAR
STARTCHAR 0303
ENCODING 771
SWIDTH 0 0
DWIDTH 0 0
BBX 18 7 -9 29
BITMAP
1F03C0
7FE7C0
7FFFC0
FFFFC0
FFFF80
F8FF80
F01E00
ENDCHAR
STARTCHAR 0304
ENCODING 772
SWIDTH 0 0
DWIDTH 0 0
BBX 16 5 -8 29
BITMAP
FFFF
FFFF
FFFF
FFFF
FFFF
ENDCHAR
STARTCHAR 0306
ENCODING 774
SWIDTH 0 0
DWIDTH 0 0
BBX 18 8 -9 28
BITMAP
FC0FC0
FC0FC0
7E1F80
7FFF80
3FFF00
1FFE00
0FFC00
00C000
ENDCHAR
STARTCHAR 0307
ENCODING 775
SWIDTH 0 0
DWIDTH 0 0
BBX 8 7 -4 29
BITMAP
FF
FF
FF
FF
FF
FF
FF
ENDCHAR
STARTCHAR 0308
ENCODING 776
SWIDTH 0 0
DWIDTH 0 0
BBX 18 7 -9 29
BITMAP
FE3FC0
FE3FC0
FE3FC0
FE3FC0
FE3FC0
FE3FC0
FE3FC0
ENDCHAR
STARTCHAR 030A
ENCODING 778
SWIDTH 0 0
DWIDTH 0 0
BBX 16 14 -8 29
BITMAP
07E0
1FF8
3FFC
7FFE
7E7E
FC3E
F81F
F81F
F81F
7C3E
7FFE
3FFC
1FF8
0FF0
ENDCHAR
STARTCHAR 030B
ENCODING 779
SWIDTH 0 0
DWIDTH 0 0
BBX 24 7 -12 30
BITMAP
0FF1FF
1FE1FE
1FC3FC
3FC7F8
3F87F0
7F0FE0
FE0FC0
ENDCHAR
STARTCHAR 030C
ENCODING 780
SWIDTH 0 0
DWIDTH 0 0
BBX 20 7 -10 30
BITMAP
FE07F0
7F0FE0
3F9FC0
1FFF80
1FFF80
0FFF00
07FE00
ENDCHAR
STARTCHAR 0312
ENCODING 786
SWIDTH 0 0
DWIDTH 0 0
BBX 6 10 -3 29
BITMAP
3C
FC
F8
F0
FC
FC
FC
FC
FC
FC
ENDCHAR
STARTCHAR 0313
ENCODING 787
SWIDTH 0 0
DWIDTH 0 0
BBX 6 10 -3 29
BITMAP
FC
FC
FC
FC
FC
FC
3C
7C
FC
F0
ENDCHAR
STARTCHAR 0323
ENCODING 803
SWIDTH 0 0
DWIDTH 0 0
BBX 8 7 -4 -10
BITMAP
FF
FF
FF
FF
FF
FF
FF
ENDCHAR
STARTCHAR 0324
ENCODING 804
SWIDTH 0 0
DWIDTH 0 0
BBX 18 7 -9 -10
BITMAP
FE3FC0
FE3FC0
FE3FC0
FE3FC0
FE3FC0
FE3FC0
FE3FC0
ENDCHAR
STARTCHAR 0325
ENCODING 805
SWIDTH 0 0
DWIDTH 0 0
BBX 16 14 -8 -17
BITMAP
07E0
1FF8
3FFC
7FFE
7E7E
7C3E
F81F
F81F
781E
7C3E
7FFE
3FFC
1FF8
0FF0
ENDCHAR
STARTCHAR 0326
ENCODING 806
SWIDTH 0 0
DWIDTH 0 0
BBX 6 10 -3 -13
BITMAP
FC
FC
FC
FC
FC
FC
3C
7C
FC
F0
ENDCHAR
STARTCHAR 0327
ENCODING 807
SWIDTH 0 0
DWIDTH 0 0
BBX 12 11 -6 -11
BITMAP
1E00
1C00
3F80
3FE0
03E0
03F0
03F0
07E0
FFE0
FFC0
FF00
ENDCHAR
STARTCHAR 0328
ENCODING 808
SWIDTH 0 0
DWIDTH 0 0
BBX 10 10 -5 -10
BITMAP
1F80
7E00
7C00
F800
F800
FC00
FFC0
FFC0
7FC0
1FC0
ENDCHAR
STARTCHAR 032E
ENCODING 814
SWIDTH 0 0
DWIDTH 0 0
BBX 18 7 -9 -10
BITMAP
FC0FC0
7E1F80
7FFF80
3FFF00
1FFE00
0FFC00
03F000
ENDCHAR
STARTCHAR 0331
ENCODING 817
SWIDTH 0 0
DWIDTH 0 0
BBX 16 5 -8 -8
BITMAP
FFFF
FFFF
FFFF
FFFF
FFFF
ENDCHAR
STARTCHAR 0335
ENCODING 821
SWIDTH 0 0
DWIDTH 0 0
BBX 18 4 -9 12
BITMAP
FFFFC0
FFFFC0
FFFFC0
FFFFC0
ENDCHAR
STARTCHAR 0337
ENCODING 823
SWIDTH 0 0
DWIDTH 0 0
BBX 28 30 -14 -2
BITMAP
00000080
000001C0
000001F0
000003E0
000007C0
00000F80
00001F00
00003E00
00007C00
0000F800
0001F800
0001F000
0003E000
0007C000
000F8000
001F0000
003E0000
007C0000
00F80000
01F80000
01F00000
03E00000
07C00000
0F800000
1F000000
3E000000
7C000000
F8000000
38000000
10000000
ENDCHAR
STARTCHAR 0338
ENCODING 824
SWIDTH 0 0
DWIDTH 0 0
BBX 36 41 -18 -3
BITMAP
0000000040
00000000E0
00000001F0
00000003F0
00000007E0
0000000FC0
0000001F80
0000003F00
0000007F00
0000007E00
000000FC00
000001F800
000003F000
000007E000
00000FC000
00001F8000
00003F8000
00003F0000
00007E0000
0000FC0000
0001F80000
0003F00000
0007E00000
000FC00000
001FC00000
001F800000
003F000000
007E000000
00FC000000
01F8000000
03F0000000
07E0000000
0FC0000000
0FC0000000
1F80000000
3F00000000
7E00000000
FC00000000
F800000000
7000000000
2000000000
ENDCHAR
STARTCHAR 0394
ENCODING 916
SWIDTH 700 0
DWIDTH 35 0
BBX 32 36 1 0
BITMAP
001FF800
001FFC00
003FFC00
003FFE00
007FFE00
007FFE00
007FFF00
00FFFF00
00FFFF00
00FE7F80
01FE7F80
01FE7FC0
03FE3FC0
03FC3FC0
03FC3FE0
07F81FE0
07F81FF0
07F81FF0
0FF00FF0
0FF00FF8
1FF007F8
1FE007F8
1FE007FC
3FE003FC
3FC003FE
3FC003FE
7FC001FE
7F8001FF
FF8001FF
FFFFFFFF
FFFFFFFF
FFFFFFFF
FFFFFFFF
FFFFFFFF
FFFFFFFF
FFFFFFFF
ENDCHAR
STARTCHAR 03A9
ENCODING 937
SWIDTH 780 0
DWIDTH 39 0
BBX 37 37 1 0
BITMAP
0007FF0000
003FFFE000
00FFFFF800
03FFFFFE00
07FFFFFF00
0FFFFFFF80
1FFFFFFFC0
1FFF87FFE0
3FFC00FFE0
3FF0007FF0
7FE0003FF0
7FE0001FF0
7FC0001FF8
7FC0000FF8
7F80000FF8
7F80000FF8
7F80000FF8
7F80000FF8
7F80000FF8
7F80000FF8
7F80000FF0
7FC0000FF0
3FC0000FF0
3FC0001FE0
1FE0001FE0
1FE0003FC0
0FF0003F80
07F8007F00
03FC00FE00
01FE01FC00
FFFF87FFF8
FFFF87FFF8
FFFF87FFF8
FFFF87FFF8
FFFF87FFF8
FFFF87FFF8
FFFF87FFF8
ENDCHAR
STARTCHAR 03BC
ENCODING 956
SWIDTH 580 0
DWIDTH 29 0
BBX 25 36 2 -10
BITMAP
FF007F80
FF007F80
FF007F80
FF007F80
FF007F80
FF007F80
FF007F80
FF007F80
FF007F80
FF007F80
FF007F80
FF007F80
FF007F80
FF007F80
FF007F80
FF007F80
FF007F80
FF007F80
FF80FF80
FF81FF80
FFFFFF80
FFFFFF80
FFFFFF80
FFFFFF80
FFFF7F80
FFFE7F80
FFF80000
FF000000
FF000000
FF000000
FF000000
FF000000
FF000000
FF000000
FF000000
FF000000
ENDCHAR
STARTCHAR 03C0
ENCODING 960
SWIDTH 640 0
DWIDTH 32 0
BBX 30 26 1 0
BITMAP
FFFFFFFC
FFFFFFFC
FFFFFFFC
FFFFFFFC
FFFFFFFC
FFFFFFFC
1FE01FC0
1FE01FC0
1FE01FC0
1FE01FC0
1FE01FC0
1FE01FC0
1FE01FC0
1FE01FC0
1FE01FC0
1FE01FC0
1FE01FC0
1FE01FC0
1FE01FC0
1FE01FC0
1FE01FFC
1FE01FFC
1FE01FFC
1FE01FFC
1FE00FFC
1FE003FC
ENDCHAR
STARTCHAR 1D48
ENCODING 7496
SWIDTH 500 0
DWIDTH 25 0
BBX 23 33 1 12
BITMAP
0000FE
0000FE
0000FE
0000FE
0000FE
0000FE
0000FE
0000FE
03F8FE
0FFEFE
1FFFFE
3FFFFE
3FFFFE
7FFFFE
7F83FE
FF01FE
FF00FE
FE00FE
FE00FE
FE00FE
FE00FE
FE00FE
FE00FE
FE00FE
FE00FE
FF01FE
7F83FE
7FFFFE
3FFFFE
3FFFFE
1FFFFE
0FFEFE
03F800
ENDCHAR
STARTCHAR 1D57
ENCODING 7511
SWIDTH 320 0
DWIDTH 16 0
BBX 14 30 1 13
BITMAP
1FC0
1FC0
1FC0
1FC0
1FC0
1FC0
1FC0
FFFC
FFFC
FFFC
FFFC
FFFC
1FC0
1FC0
1FC0
1FC0
1FC0
1FC0
1FC0
1FC0
1FC0
1FC0
1FC0
1FC0
1FF0
1FFC
1FFC
0FFC
07FC
01FC
ENDCHAR
STARTCHAR 1E80
ENCODING 7808
SWIDTH 1000 0
DWIDTH 50 0
BBX 50 45 0 0
BITMAP
0001FF00000000
00007F80000000
00007F80000000
00003FC0000000
00001FC0000000
00000FE0000000
000007F0000000
00000000000000
00000000000000
FF800FF8007FC0
FF800FF800FF80
7F800FFC00FF80
7FC00FFC00FF80
7FC00FFC00FF00
7FC01FFC00FF00
3FC01FFE01FF00
3FE01FFE01FF00
3FE01FFE01FE00
1FE03FFE01FE00
1FE03FFE03FE00
1FF03FFF03FE00
1FF03F7F03FC00
0FF07F7F03FC00
0FF07F3F07FC00
0FF87F3F87F800
0FF87F3F87F800
07F87E3F87F800
07F8FE3F8FF800
07F8FE1F8FF000
03FCFE1FCFF000
03FCFE1FCFF000
03FCFC1FCFF000
03FDFC0FDFE000
01FFFC0FDFE000
01FFFC0FDFE000
01FFF80FFFC000
01FFF80FFFC000
00FFF807FFC000
00FFF807FFC000
00FFF007FF8000
007FF007FF8000
007FF003FF8000
007FF003FF8000
007FF003FF0000
003FE003FF0000
ENDCHAR
STARTCHAR 1E81
ENCODING 7809
SWIDTH 860 0
DWIDTH 43 0
BBX 43 37 0 0
BITMAP
000FF8000000
0007F8000000
0003FC000000
0001FC000000
0000FE000000
00007F000000
00003F000000
000000000000
000000000000
000000000000
000000000000
FF803F803FE0
7F807F803FC0
7F807FC03FC0
7F807FC07FC0
7FC07FC07F80
3FC0FFE07F80
3FC0FFE07F80
3FE0FFE0FF00
1FE1FFE0FF00
1FE1FFF0FF00
1FE1FBF1FE00
0FF1FBF1FE00
0FF3FBF1FE00
0FF3F1F9FC00
07FBF1FBFC00
07FBF1FBFC00
07FFE1FBF800
03FFE0FFF800
03FFE0FFF800
03FFE0FFF000
01FFC07FF000
01FFC07FF000
01FFC07FF000
00FF807FE000
00FF803FE000
00FF803FE000
ENDCHAR
STARTCHAR 1E82
ENCODING 7810
SWIDTH 1000 0
DWIDTH 50 0
BBX 50 45 0 0
BITMAP
0000003FC00000
0000007F800000
0000007F000000
000000FE000000
000001FC000000
000001F8000000
000003F0000000
00000000000000
00000000000000
FF800FF8007FC0
FF800FF800FF80
7F800FFC00FF80
7FC00FFC00FF80
7FC00FFC00FF00
7FC01FFC00FF00
3FC01FFE01FF00
3FE01FFE01FF00
3FE01FFE01FE00
1FE03FFE01FE00
1FE03FFE03FE00
1FF03FFF03FE00
1FF03F7F03FC00
0FF07F7F03FC00
0FF07F3F07FC00
0FF87F3F87F800
0FF87F3F87F800
07F87E3F87F800
07F8FE3F8FF800
07F8FE1F8FF000
03FCFE1FCFF000
03FCFE1FCFF000
03FCFC1FCFF000
03FDFC0FDFE000
01FFFC0FDFE000
01FFFC0FDFE000
01FFF80FFFC000
01FFF80FFFC000
00FFF807FFC000
00FFF807FFC000
00FFF007FF8000
007FF007FF8000
007FF003FF8000
007FF003FF8000
007FF003FF0000
003FE003FF0000
ENDCHAR
STARTCHAR 1E83
ENCODING 7811
SWIDTH 860 0
DWIDTH 43 0
BBX 43 37 0 0
BITMAP
000001FE0000
000003FC0000
000007F80000
000007F00000
00000FE00000
00000FC00000
00001F800000
000000000000
000000000000
000000000000
000000000000
FF803F803FE0
7F807F803FC0
7F807FC03FC0
7F807FC07FC0
7FC07FC07F80
3FC0FFE07F80
3FC0FFE07F80
3FE0FFE0FF00
1FE1FFE0FF00
1FE1FFF0FF00
1FE1FBF1FE00
0FF1FBF1FE00
0FF3FBF1FE00
0FF3F1F9FC00
07FBF1FBFC00
07FBF1FBFC00
07FFE1FBF800
03FFE0FFF800
03FFE0FFF800
03FFE0FFF000
01FFC07FF000
01FFC07FF000
01FFC07FF000
00FF807FE000
00FF803FE000
00FF803FE000
ENDCHAR
STARTCHAR 1E84
ENCODING 7812
SWIDTH 1000 0
DWIDTH 50 0
BBX 50 45 0 0
BITMAP
0000FE3FC00000
0000FE3FC00000
0000FE3FC00000
0000FE3FC00000
0000FE3FC00000
0000FE3FC00000
0000FE3FC00000
00000000000000
00000000000000
FF800FF8007FC0
FF800FF800FF80
7F800FFC00FF80
7FC00FFC00FF80
7FC00FFC00FF00
7FC01FFC00FF00
3FC01FFE01FF00
3FE01FFE01FF00
3FE01FFE01FE00
1FE03FFE01FE00
1FE03FFE03FE00
1FF03FFF03FE00
1FF03F7F03FC00
0FF07F7F03FC00
0FF07F3F07FC00
0FF87F3F87F800
0FF87F3F87F800
07F87E3F87F800
07F8FE3F8FF800
07F8FE1F8FF000
03FCFE1FCFF000
03FCFE1FCFF000
03FCFC1FCFF000
03FDFC0FDFE000
01FFFC0FDFE000
01FFFC0FDFE000
01FFF80FFFC000
01FFF80FFFC000
00FFF807FFC000
00FFF807FFC000
00FFF007FF8000
007FF007FF8000
007FF003FF8000
007FF003FF8000
007FF003FF0000
003FE003FF0000
ENDCHAR
STARTCHAR 1E85
ENCODING 7813
SWIDTH 860 0
DWIDTH 43 0
BBX 43 36 0 0
BITMAP
000FF1FC0000
000FF1FC0000
000FF1FC0000
000FF1FC0000
000FF1FC0000
000FF1FC0000
000FF1FC0000
000000000000
000000000000
000000000000
FF803F803FE0
7F807F803FC0
7F807FC03FC0
7F807FC07FC0
7FC07FC07F80
3FC0FFE07F80
3FC0FFE07F80
3FE0FFE0FF00
1FE1FFE0FF00
1FE1FFF0FF00
1FE1FBF1FE00
0FF1FBF1FE00
0FF3FBF1FE00
0FF3F1F9FC00
07FBF1FBFC00
07FBF1FBFC00
07FFE1FBF800
03FFE0FFF800
03FFE0FFF800
03FFE0FFF000
01FFC07FF000
01FFC07FF000
01FFC07FF000
00FF807FE000
00FF803FE000
00FF803FE000
ENDCHAR
STARTCHAR 1E9E
ENCODING 7838
SWIDTH 720 0
DWIDTH 36 0
BBX 33 37 2 0
BITMAP
001FFFC000
00FFFFFE00
03FFFFFE00
07FFFFFE00
0FFFFFFE00
1FFFFFFE00
3FFFFFFE00
3FF003FE00
7FE007FC00
7FC00FF800
7F801FF000
FF803FE000
FF803FE000
FF807FC000
FF80FF8000
FF81FF0000
FF81FFE000
FF81FFF800
FF81FFFC00
FF81FFFE00
FF81FFFE00
FF81FFFF00
FF8003FF00
FF8001FF80
FF8000FF80
FF8000FF80
FF8000FF80
FF8000FF80
FF8001FF00
FF8003FF00
FF87FFFF00
FF87FFFE00
FF87FFFE00
FF87FFFC00
FF87FFF000
FF87FFE000
FF87FE0000
ENDCHAR
STARTCHAR 1EF2
ENCODING 7922
SWIDTH 700 0
DWIDTH 35 0
BBX 35 45 0 0
BITMAP
00FF800000
007F800000
003FC00000
001FC00000
000FE00000
0007F00000
0003F00000
0000000000
0000000000
FFC0007FE0
7FC0007FC0
7FE000FFC0
3FF000FF80
1FF001FF00
1FF803FF00
0FF803FE00
07FC07FE00
07FC07FC00
03FE0FF800
03FF0FF800
01FF1FF000
00FF9FF000
00FFBFE000
007FFFC000
007FFFC000
003FFF8000
001FFF8000
001FFF0000
000FFE0000
000FFE0000
0007FC0000
0007FC0000
0007FC0000
0007FC0000
0007FC0000
0007FC0000
0007FC0000
0007FC0000
0007FC0000
0007FC0000
0007FC0000
0007FC0000
0007FC0000
0007FC0000
0007FC0000
ENDCHAR
STARTCHAR 1EF3
ENCODING 7923
SWIDTH 560 0
DWIDTH 28 0
BBX 27 47 0 -10
BITMAP
07F80000
07FC0000
03FC0000
01FE0000
00FE0000
007F0000
003F8000
00000000
00000000
00000000
00000000
FF801FE0
7F801FE0
7F801FE0
7FC03FC0
3FC03FC0
3FC03FC0
3FC07F80
1FE07F80
1FE07F80
1FE07F00
0FF0FF00
0FF0FF00
0FF0FE00
07F0FE00
07F9FE00
07F9FC00
03F9FC00
03F9F800
03FFF800
01FFF800
01FFF000
00FFF000
00FFF000
00FFE000
00FFE000
007FE000
007FC000
00FFC000
00FFC000
01FF8000
3FFF8000
3FFF0000
3FFE0000
3FFC0000
3FF80000
3FE00000
ENDCHAR
STARTCHAR 2009
ENCODING 8201
SWIDTH 240 0
DWIDTH 12 0
BBX 0 0 0 0
BITMAP
ENDCHAR
STARTCHAR 2011
ENCODING 8209
SWIDTH 360 0
DWIDTH 18 0
BBX 16 7 1 11
BITMAP
FFFF
FFFF
FFFF
FFFF
FFFF
FFFF
FFFF
ENDCHAR
STARTCHAR 2013
ENCODING 8211
SWIDTH 520 0
DWIDTH 26 0
BBX 24 7 1 11
BITMAP
FFFFFF
FFFFFF
FFFFFF
FFFFFF
FFFFFF
FFFFFF
FFFFFF
ENDCHAR
STARTCHAR 2014
ENCODING 8212
SWIDTH 980 0
DWIDTH 49 0
BBX 47 7 1 11
BITMAP
FFFFFFFFFFFE
FFFFFFFFFFFE
FFFFFFFFFFFE
FFFFFFFFFFFE
FFFFFFFFFFFE
FFFFFFFFFFFE
FFFFFFFFFFFE
ENDCHAR
STARTCHAR 2018
ENCODING 8216
SWIDTH 240 0
DWIDTH 12 0
BBX 8 16 2 20
BITMAP
0F
3F
7F
FF
F8
F8
F0
F0
FF
FF
FF
FF
FF
FF
FF
FF
ENDCHAR
STARTCHAR 2019
ENCODING 8217
SWIDTH 240 0
DWIDTH 12 0
BBX 8 16 2 20
BITMAP
FF
FF
FF
FF
FF
FF
FF
FF
1F
1F
1F
3E
FE
FE
FC
F0
ENDCHAR
STARTCHAR 201A
ENCODING 8218
SWIDTH 240 0
DWIDTH 12 0
BBX 8 16 2 -8
BITMAP
FF
FF
FF
FF
FF
FF
FF
FF
1F
1F
1F
3E
FE
FE
FC
F0
ENDCHAR
STARTCHAR 201C
ENCODING 8220
SWIDTH 440 0
DWIDTH 22 0
BBX 18 16 2 20
BITMAP
0F03C0
3F0FC0
7F1FC0
FF1FC0
F81F00
F83E00
F03E00
F03E00
FF3FC0
FF3FC0
FF3FC0
FF3FC0
FF3FC0
FF3FC0
FF3FC0
FF3FC0
ENDCHAR
STARTCHAR 201D
ENCODING 8221
SWIDTH 440 0
DWIDTH 22 0
BBX 18 16 2 20
BITMAP
FF3FC0
FF3FC0
FF3FC0
FF3FC0
FF3FC0
FF3FC0
FF3FC0
FF3FC0
1F03C0
1F03C0
1F07C0
3E07C0
FE3FC0
FE3F80
FC3F00
F03C00
ENDCHAR
STARTCHAR 201E
ENCODING 8222
SWIDTH 440 0
DWIDTH 22 0
BBX 18 16 2 -8
BITMAP
FF3FC0
FF3FC0
FF3FC0
FF3FC0
FF3FC0
FF3FC0
FF3FC0
FF3FC0
1F03C0
1F03C0
1F07C0
3E07C0
FE3FC0
FE3F80
FC3F00
F03C00
ENDCHAR
STARTCHAR 2020
ENCODING 8224
SWIDTH 600 0
DWIDTH 30 0
BBX 29 43 1 -7
BITMAP
003FC000
003FC000
003FC000
003FC000
003FC000
003FC000
003FC000
003FC000
003FC000
003FC000
FFFFFFF8
FFFFFFF8
FFFFFFF8
FFFFFFF8
FFFFFFF8
FFFFFFF8
FFFFFFF8
003FC000
003FC000
003FC000
003FC000
003FC000
003FC000
003FC000
003FC000
003FC000
003FC000
003FC000
003FC000
003FC000
003FC000
003FC000
003FC000
003FC000
003FC000
003FC000
003FC000
003FC000
003FC000
003FC000
003FC000
003FC000
003FC000
ENDCHAR
STARTCHAR 2021
ENCODING 8225
SWIDTH 600 0
DWIDTH 30 0
BBX 29 43 1 -7
BITMAP
003FC000
003FC000
003FC000
003FC000
003FC000
003FC000
003FC000
003FC000
003FC000
003FC000
FFFFFFF8
FFFFFFF8
FFFFFFF8
FFFFFFF8
FFFFFFF8
FFFFFFF8
FFFFFFF8
003FC000
003FC000
003FC000
003FC000
003FC000
003FC000
003FC000
003FC000
003FC000
FFFFFFF8
FFFFFFF8
FFFFFFF8
FFFFFFF8
FFFFFFF8
FFFFFFF8
FFFFFFF8
003FC000
003FC000
003FC000
003FC000
003FC000
003FC000
003FC000
003FC000
003FC000
003FC000
ENDCHAR
STARTCHAR 2022
ENCODING 8226
SWIDTH 420 0
DWIDTH 21 0
BBX 15 15 3 7
BITMAP
FFFE
FFFE
FFFE
FFFE
FFFE
FFFE
FFFE
FFFE
FFFE
FFFE
FFFE
FFFE
FFFE
FFFE
FFFE
ENDCHAR
STARTCHAR 2026
ENCODING 8230
SWIDTH 780 0
DWIDTH 39 0
BBX 35 9 2 0
BITMAP
FF87FC3FE0
FF87FC3FE0
FF87FC3FE0
FF87FC3FE0
FF87FC3FE0
FF87FC3FE0
FF87FC3FE0
FF87FC3FE0
FF87FC3FE0
ENDCHAR
STARTCHAR 2030
ENCODING 8240
SWIDTH 1300 0
DWIDTH 65 0
BBX 63 38 1 -1
BITMAP
03F0000000000000
0FFC000F80000000
3FFE000F80000000
3FFF001F00000000
7FFF801F00000000
7E1F803E00000000
FC0F803E00000000
FC0F807C00000000
FC0FC07C00000000
FC0FC0F800000000
FC0FC0F800000000
FC0FC1F000000000
FC0FC1F000000000
FC0FC3E000000000
FC0FC3E000000000
FC0F87C030000200
7E1F87C3FE003FE0
7FFF8F87FF00FFF0
3FFF0F0FFF81FFF8
3FFE1F1FFFC1FFFC
1FFC3E1F8FC3F8FC
07F83E3F07E3F07E
00007C3F07E3F07E
00007C3E03E3E07E
0000F83E03E3E07E
0000F83E03E7E03E
0001F03E03E7E03E
0001F03E03E7E03E
0003E03E03E7E03E
0003E03E03E3E07E
0007C03F07E3E07E
0007C03F07E3F07E
000F803F07E3F0FC
000F801FFFC1FFFC
001F001FFFC1FFF8
001E000FFF80FFF8
003E0007FF007FF0
00000001FC001FC0
ENDCHAR
STARTCHAR 2039
ENCODING 8249
SWIDTH 280 0
DWIDTH 14 0
BBX 8 22 3 2
BITMAP
01
03
07
0F
1F
3F
FF
FF
FE
FC
F0
F0
FC
FE
FF
FF
3F
1F
0F
07
03
01
ENDCHAR
STARTCHAR 203A
ENCODING 8250
SWIDTH 280 0
DWIDTH 14 0
BBX 8 22 3 2
BITMAP
80
C0
E0
F0
F8
FC
FF
FF
7F
3F
1F
1F
3F
7F
FF
FF
FC
F8
F0
E0
C0
80
ENDCHAR
STARTCHAR 203D
ENCODING 8253
SWIDTH 540 0
DWIDTH 27 0
BBX 25 37 1 0
BITMAP
003E0000
03FFF000
0FFFF800
1FFFFE00
3FFFFF00
7FFFFF00
7FFFFF80
7FC1FF80
FF80FF80
FF1E7F80
FF3E7F80
FF3E7F80
003EFF80
003EFF80
007FFF00
007FFE00
007FFE00
007FF800
007FF000
007FE000
007FC000
007F8000
007F0000
007F0000
007F0000
00000000
00000000
00000000
00FF8000
00FF8000
00FF8000
00FF8000
00FF8000
00FF8000
00FF8000
00FF8000
00FF8000
ENDCHAR
STARTCHAR 2044
ENCODING 8260
SWIDTH 320 0
DWIDTH 16 0
BBX 24 36 -4 0
BITMAP
00001F
00003E
00003E
00007C
00007C
0000F8
0000F8
0001F0
0001E0
0003E0
0007C0
0007C0
000F80
000F80
001F00
001F00
003E00
003E00
007C00
007C00
00F800
00F800
01F000
01F000
03E000
03C000
07C000
0F8000
0F8000
1F0000
1F0000
3E0000
3E0000
7C0000
7C0000
F80000
ENDCHAR
STARTCHAR 2070
ENCODING 8304
SWIDTH 400 0
DWIDTH 20 0
BBX 18 22 1 26
BITMAP
008000
0FF800
1FFE00
3FFF00
7FFF00
7E1F80
7C1F80
FC0F80
FC0FC0
FC0FC0
FC0FC0
FC0FC0
FC0FC0
FC0FC0
FC0FC0
FC0F80
7E1F80
7FFF80
3FFF00
3FFE00
0FFC00
07F000
ENDCHAR
STARTCHAR 2074
ENCODING 8308
SWIDTH 380 0
DWIDTH 19 0
BBX 18 21 1 26
BITMAP
007E00
00FE00
01FE00
01FE00
03FE00
07FE00
0FBE00
1F3E00
3E3E00
3C3E00
7C3E00
F83E00
FFFFC0
FFFFC0
FFFFC0
FFFFC0
007E00
007E00
007E00
007E00
007E00
ENDCHAR
STARTCHAR 2075
ENCODING 8309
SWIDTH 360 0
DWIDTH 18 0
BBX 16 21 1 26
BITMAP
3FFE
3FFE
3FFE
3FFE
7FFE
7C00
7C00
7FF0
7FFC
7FFE
FFFE
FC3F
001F
001F
001F
F81F
FE7F
7FFE
7FFC
1FF8
07E0
ENDCHAR
STARTCHAR 2076
ENCODING 8310
SWIDTH 360 0
DWIDTH 18 0
BBX 17 21 1 26
BITMAP
07F000
1FFC00
3FFE00
3FFF00
7E3F00
7C1F00
F80000
F9F800
FFFC00
FFFE00
FFFF00
FE3F00
FC1F80
FC0F80
FC0F80
7C1F80
7E3F00
3FFF00
3FFE00
1FFC00
07F000
ENDCHAR
STARTCHAR 2077
ENCODING 8311
SWIDTH 320 0
DWIDTH 16 0
BBX 15 21 1 26
BITMAP
FFFE
FFFE
FFFE
FFFE
FFFE
00FC
00F8
01F0
03F0
03E0
07E0
07C0
0FC0
0F80
0F80
1F80
1F80
1F80
1F80
1F80
1F80
ENDCHAR
STARTCHAR 2078
ENCODING 8312
SWIDTH 380 0
DWIDTH 19 0
BBX 17 22 1 26
BITMAP
07F000
1FFC00
3FFE00
7FFF00
7E3F00
7C1F00
7C1F00
7C1F00
7E3F00
3FFE00
1FFC00
3FFE00
7FFF00
FC1F80
F80F80
F80F80
FC1F80
FE3F80
7FFF00
7FFF00
3FFC00
07F000
ENDCHAR
STARTCHAR 2079
ENCODING 8313
SWIDTH 360 0
DWIDTH 18 0
BBX 17 21 1 26
BITMAP
0FF000
3FF800
7FFC00
FFFE00
FC3F00
F81F00
F81F00
F81F00
F83F00
FC7F80
FFFF80
7FFF80
3FFF00
0FDF00
001F00
F81F00
FC3E00
7FFE00
7FFC00
3FF800
07E000
ENDCHAR
STARTCHAR 207A
ENCODING 8314
SWIDTH 320 0
DWIDTH 16 0
BBX 14 14 1 30
BITMAP
0780
0780
0780
0780
0780
FFFC
FFFC
FFFC
FFFC
0780
0780
0780
0780
0780
ENDCHAR
STARTCHAR 207B
ENCODING 8315
SWIDTH 320 0
DWIDTH 16 0
BBX 14 4 1 35
BITMAP
FFFC
FFFC
FFFC
FFFC
ENDCHAR
STARTCHAR 207D
ENCODING 8317
SWIDTH 180 0
DWIDTH 9 0
BBX 8 28 1 23
BITMAP
1F
3F
3E
3E
7E
7C
7C
7C
FC
FC
F8
F8
F8
F8
F8
F8
F8
F8
FC
FC
7C
7C
7C
7E
3E
3E
3F
1F
ENDCHAR
STARTCHAR 207E
ENCODING 8318
SWIDTH 180 0
DWIDTH 9 0
BBX 8 28 0 23
BITMAP
F8
7C
7C
7C
3E
3E
3E
3F
3F
1F
1F
1F
1F
1F
1F
1F
1F
1F
1F
3F
3E
3E
3E
7E
7C
7C
7C
F8
ENDCHAR
STARTCHAR 207F
ENCODING 8319
SWIDTH 460 0
DWIDTH 23 0
BBX 22 24 1 13
BITMAP
FE1F80
FE7FC0
FEFFF0
FFFFF0
FFFFF8
FFFFF8
FF87F8
FF03F8
FE03FC
FE01FC
FE01FC
FE01FC
FE01FC
FE01FC
FE01FC
FE01FC
FE01FC
FE01FC
FE01FC
FE01FC
FE01FC
FE01FC
FE01FC
FE01FC
ENDCHAR
STARTCHAR 2080
ENCODING 8320
SWIDTH 400 0
DWIDTH 20 0
BBX 18 22 1 -10
BITMAP
008000
0FF800
1FFE00
3FFF00
7FFF00
7E1F80
7C1F80
FC0F80
FC0FC0
FC0FC0
FC0FC0
FC0FC0
FC0FC0
FC0FC0
FC0FC0
FC0F80
7E1F80
7FFF80
3FFF00
3FFE00
0FFC00
07F000
ENDCHAR
STARTCHAR 2081
ENCODING 8321
SWIDTH 240 0
DWIDTH 12 0
BBX 10 21 1 -10
BITMAP
07C0
07C0
0FC0
1FC0
FFC0
FFC0
FFC0
FFC0
0FC0
0FC0
0FC0
0FC0
0FC0
0FC0
0FC0
0FC0
0FC0
0FC0
0FC0
0FC0
0FC0
ENDCHAR
STARTCHAR 2082
ENCODING 8322
SWIDTH 360 0
DWIDTH 18 0
BBX 16 22 1 -10
BITMAP
0080
0FF8
3FFC
3FFE
7FFF
7E3F
FC3F
F81F
003F
007F
01FE
07FC
0FF8
3FF0
3FC0
7F00
7E00
FFFF
FFFF
FFFF
FFFF
FFFF
ENDCHAR
STARTCHAR 2083
ENCODING 8323
SWIDTH 360 0
DWIDTH 18 0
BBX 17 22 1 -11
BITMAP
0FF800
3FFC00
7FFE00
7FFF00
7C3F00
FC1F00
FC1F00
003F00
01FE00
01FC00
01FE00
01FF00
003F00
F81F80
F81F80
F81F80
FC3F80
FFFF00
7FFF00
3FFE00
1FF800
01C000
ENDCHAR
STARTCHAR 2084
ENCODING 8324
SWIDTH 380 0
DWIDTH 19 0
BBX 18 21 1 -10
BITMAP
007E00
00FE00
01FE00
01FE00
03FE00
07FE00
0FBE00
1F3E00
3E3E00
3C3E00
7C3E00
F83E00
FFFFC0
FFFFC0
FFFFC0
FFFFC0
007E00
007E00
007E00
007E00
007E00
ENDCHAR
STARTCHAR 2085
ENCODING 8325
SWIDTH 360 0
DWIDTH 18 0
BBX 16 21 1 -10
BITMAP
3FFE
3FFE
3FFE
3FFE
7FFE
7C00
7C00
7FF0
7FFC
7FFE
FFFE
FC3F
001F
001F
001F
F81F
FC3F
7FFE
7FFE
3FFC
0FF0
ENDCHAR
STARTCHAR 2086
ENCODING 8326
SWIDTH 360 0
DWIDTH 18 0
BBX 17 21 1 -10
BITMAP
07F000
1FFC00
3FFE00
3FFF00
7E3F00
7C1F00
F80000
F9F800
FFFC00
FFFE00
FFFF00
FE3F00
FC1F80
FC0F80
FC0F80
FC1F80
7E3F00
7FFF00
3FFE00
1FFC00
07F800
ENDCHAR
STARTCHAR 2087
ENCODING 8327
SWIDTH 320 0
DWIDTH 16 0
BBX 15 21 1 -10
BITMAP
FFFE
FFFE
FFFE
FFFE
FFFE
00FC
00F8
01F0
03F0
03E0
07E0
07C0
0FC0
0F80
0F80
1F80
1F80
1F80
1F80
1F80
1F80
ENDCHAR
STARTCHAR 2088
ENCODING 8328
SWIDTH 380 0
DWIDTH 19 0
BBX 17 21 1 -10
BITMAP
07F000
1FFC00
3FFE00
7FFF00
7C3F00
7C1F00
7C1F00
7C1F00
7FFE00
3FFE00
3FFC00
7FFF00
FC1F00
F81F80
F80F80
F81F80
FC1F80
FFFF00
7FFF00
3FFE00
0FF800
ENDCHAR
STARTCHAR 2089
ENCODING 8329
SWIDTH 360 0
DWIDTH 18 0
BBX 17 21 1 -10
BITMAP
0FF000
3FF800
7FFC00
FFFE00
FC3F00
F81F00
F81F00
F81F00
F83F00
FC7F80
FFFF80
7FFF80
3FFF00
0FDF00
001F00
F81F00
FC3E00
7FFE00
7FFC00
3FF800
0FE000
ENDCHAR
STARTCHAR 208A
ENCODING 8330
SWIDTH 320 0
DWIDTH 16 0
BBX 14 13 1 -6
BITMAP
0780
0780
0780
0780
FFFC
FFFC
FFFC
FFFC
0780
0780
0780
0780
0780
ENDCHAR
STARTCHAR 208B
ENCODING 8331
SWIDTH 320 0
DWIDTH 16 0
BBX 14 4 1 -1
BITMAP
FFFC
FFFC
FFFC
FFFC
ENDCHAR
STARTCHAR 208C
ENCODING 8332
SWIDTH 320 0
DWIDTH 16 0
BBX 14 11 1 -5
BITMAP
FFFC
FFFC
FFFC
FFFC
0000
0000
0000
FFFC
FFFC
FFFC
FFFC
ENDCHAR
STARTCHAR 208D
ENCODING 8333
SWIDTH 180 0
DWIDTH 9 0
BBX 8 29 1 -14
BITMAP
1F
3F
3E
3E
7E
7C
7C
7C
7C
FC
FC
F8
F8
F8
F8
F8
F8
F8
FC
FC
7C
7C
7C
7C
7E
3E
3E
3F
1F
ENDCHAR
STARTCHAR 208E
ENCODING 8334
SWIDTH 180 0
DWIDTH 9 0
BBX 8 29 0 -14
BITMAP
F8
7C
7C
7C
3E
3E
3E
3E
3F
3F
1F
1F
1F
1F
1F
1F
1F
1F
1F
3F
3F
3E
3E
3E
7E
7C
7C
7C
F8
ENDCHAR
STARTCHAR 2099
ENCODING 8345
SWIDTH 460 0
DWIDTH 23 0
BBX 22 23 1 -10
BITMAP
FE1F80
FE7FE0
FEFFF0
FFFFF0
FFFFF8
FFFFF8
FF87F8
FF03F8
FE03FC
FE01FC
FE01FC
FE01FC
FE01FC
FE01FC
FE01FC
FE01FC
FE01FC
FE01FC
FE01FC
FE01FC
FE01FC
FE01FC
FE01FC
ENDCHAR
STARTCHAR 20AC
ENCODING 8364
SWIDTH 740 0
DWIDTH 37 0
BBX 36 38 0 -1
BITMAP
0000FF8000
0007FFF000
001FFFF800
003FFFFE00
007FFFFF00
00FFFFFF80
01FFFFFF80
01FFC1FFC0
03FF007FE0
03FE003FE0
07FC001FE0
07FC001FF0
07F8000FF0
FFFFF80000
FFFFF80000
FFFFF80000
FFFFF80000
0FF0000000
0FF0000000
0FF0000000
0FF0000000
FFFFF80000
FFFFF80000
FFFFF80000
FFFFF80FF0
07F8000FF0
07FC001FF0
07FC001FE0
03FE003FE0
03FF007FE0
01FFC1FFC0
01FFFFFFC0
00FFFFFF80
007FFFFF00
003FFFFE00
001FFFFC00
0007FFF000
0000FF8000
ENDCHAR
STARTCHAR 20B8
ENCODING 8376
SWIDTH 640 0
DWIDTH 32 0
BBX 30 36 1 0
BITMAP
FFFFFFFC
FFFFFFFC
FFFFFFFC
FFFFFFFC
FFFFFFFC
FFFFFFFC
FFFFFFFC
FFFFFFFC
00000000
00000000
00000000
00000000
FFFFFFFC
FFFFFFFC
FFFFFFFC
FFFFFFFC
FFFFFFFC
FFFFFFFC
FFFFFFFC
FFFFFFFC
001FE000
001FE000
001FE000
001FE000
001FE000
001FE000
001FE000
001FE000
001FE000
001FE000
001FE000
001FE000
001FE000
001FE000
001FE000
001FE000
ENDCHAR
STARTCHAR 20B9
ENCODING 8377
SWIDTH 620 0
DWIDTH 31 0
BBX 27 36 3 0
BITMAP
FFFFFFE0
FFFFFFE0
FFFFFFE0
FFFFFFE0
FFFFF800
001FFC00
0007FC00
0003FE00
0003FE00
FFFFFFE0
FFFFFFE0
FFFFFFE0
FFFFFFE0
0003FE00
0003FE00
0007FC00
001FFC00
FFFFF800
FFFFF000
FFFFE000
FFFFC000
FFFE0000
FFE00000
7FF00000
3FF80000
1FFC0000
0FFE0000
07FF0000
03FF8000
01FF8000
00FFC000
007FE000
003FF000
001FF800
000FFC00
0007FE00
ENDCHAR
STARTCHAR 20BA
ENCODING 8378
SWIDTH 640 0
DWIDTH 32 0
BBX 31 36 0 0
BITMAP
0FF00000
0FF00000
0FF01800
0FF0F800
0FF3F800
0FFFF800
0FFFC000
0FFF0000
0FFC0000
3FF01800
FFF07800
FFF1F800
FFF7F800
CFFFF000
0FFFC000
0FFE0000
0FF80000
7FF001FE
FFF001FE
FFF003FE
FFF003FE
CFF003FE
0FF003FE
0FF007FC
0FF007FC
0FF00FFC
0FF01FF8
0FF07FF8
0FF3FFF0
0FFFFFE0
0FFFFFC0
0FFFFF80
0FFFFF00
0FFFFE00
0FFFF800
0FFF8000
ENDCHAR
STARTCHAR 20BC
ENCODING 8380
SWIDTH 780 0
DWIDTH 39 0
BBX 35 36 2 0
BITMAP
0003FC0000
0003FC0000
0003FC0000
0003FC0000
0003FC0000
0003FC0000
0003FC0000
0003FC0000
0003FC0000
007FFFE000
03FFFFF800
0FFFFFFE00
1FFFFFFF00
1FFFFFFF80
3FFFFFFFC0
7FFFFFFFC0
7FE3FCFFC0
7FC3FC3FE0
FF83FC3FE0
FF83FC1FE0
FF03FC1FE0
FF03FC1FE0
FF03FC1FE0
FF03FC1FE0
FF03FC1FE0
FF03FC1FE0
FF03FC1FE0
FF03FC1FE0
FF03FC1FE0
FF03FC1FE0
FF03FC1FE0
FF03FC1FE0
FF00001FE0
FF00001FE0
FF00001FE0
FF00001FE0
ENDCHAR
STARTCHAR 20BF
ENCODING 8383
SWIDTH 680 0
DWIDTH 34 0
BBX 30 48 3 -6
BITMAP
01E1E000
01E1E000
01E1E000
01E1E000
01E1E000
01E1E000
FFFFF800
FFFFFF00
FFFFFF80
FFFFFFE0
FFFFFFE0
FFFFFFF0
FFFFFFF0
FF001FF0
FF000FF8
FF000FF8
FF000FF0
FF000FF0
FF000FF0
FF001FF0
FF007FE0
FFFFFFC0
FFFFFF80
FFFFFF80
FFFFFFE0
FFFFFFF0
FFFFFFF0
FF001FF8
FF000FF8
FF0007FC
FF0007FC
FF0007FC
FF0007FC
FF0007FC
FF000FFC
FFFFFFF8
FFFFFFF8
FFFFFFF0
FFFFFFF0
FFFFFFC0
FFFFFF80
FFFFFC00
01E1E000
01E1E000
01E1E000
01E1E000
01E1E000
01E1E000
ENDCHAR
STARTCHAR 2105
ENCODING 8453
SWIDTH 1020 0
DWIDTH 51 0
BBX 49 38 1 -1
BITMAP
01FC0000000000
07FF0001F00000
1FFFC003E00000
3FFFC003E00000
3FFFE007C00000
7F07F007C00000
7E03F00F800000
FC01F01F800000
FC00001F000000
FC00003E000000
FC00003E000000
FC00007C000000
FC00007C000000
FC0000F8000000
FC01F0F8000000
7E03F1F0000000
7E03F1F03F8000
7FDFE3E0FFF000
3FFFE3E3FFF800
1FFFC7C7FFFC00
0FFF87C7FFFE00
03FE0F8FE0FE00
00000F8FC07F00
00001F1F803F00
00001F1F803F00
00003E1F801F00
00007C1F801F80
00007C1F801F80
0000F81F801F00
0000F81F801F00
0001F01F803F00
0001F00FC03F00
0003E00FE0FE00
0003E007FFFE00
0007C007FFFC00
0007C003FFF800
000F8000FFF000
000000003F8000
ENDCHAR
STARTCHAR 2113
ENCODING 8467
SWIDTH 500 0
DWIDTH 25 0
BBX 22 38 1 -1
BITMAP
003F80
00FFE0
01FFF0
03FFF0
07FFF8
07FFF8
07F8F8
07F0FC
0FF0FC
0FF07C
0FF07C
0FF0FC
0FF0F8
0FF0F8
0FF0F8
0FF1F8
0FF1F0
0FF3F0
0FF7E0
0FFFE0
0FFFC0
0FFF80
0FFF00
1FFE00
FFFC00
FFF000
FFF000
FFF000
0FF000
0FF000
0FF000
0FF830
07FFF0
07FFF8
03FFF8
03FFF0
01FFE0
007F00
ENDCHAR
STARTCHAR 2116
ENCODING 8470
SWIDTH 1160 0
DWIDTH 58 0
BBX 54 37 3 0
BITMAP
0000000000FE00
FF8001FE03FFC0
FFC001FE07FFE0
FFC001FE0FFFF0
FFE001FE1FFFF8
FFF001FE3FFFF8
FFF001FE3FC3FC
FFF801FE3F81FC
FFFC01FE3F01FC
FFFC01FE7F00FC
FFFE01FE7F00FC
FFFF01FE7F00FC
FFFF01FE3F01FC
FFFF81FE3F81FC
FF7F81FE3FC3FC
FF7FC1FE3FFFF8
FF3FE1FE1FFFF8
FF3FE1FE0FFFF0
FF1FF1FE07FFE0
FF0FF1FE03FFC0
FF0FF9FE00FE00
FF07F9FE000000
FF07FDFE000000
FF03FDFE000000
FF01FFFE000000
FF01FFFE000000
FF00FFFE000000
FF00FFFE000000
FF007FFE000000
FF007FFE000000
FF003FFE000000
FF001FFE000000
FF001FFE000000
FF000FFE000000
FF000FFE000000
FF0007FE000000
FF0007FE000000
ENDCHAR
STARTCHAR 2117
ENCODING 8471
SWIDTH 800 0
DWIDTH 40 0
BBX 38 38 1 -1
BITMAP
0003FE0000
001FFFC000
007FFFF000
00FFFFFC00
03FFFFFE00
07FF87FF00
0FF8007F80
0FE0003FC0
1FC0000FE0
3F8FFC07E0
3F0FFF83F0
7F0FFFC3F0
7E0FFFE1F8
7E0FFFE1F8
FC0FC3F0F8
FC0FC1F0FC
FC0FC1F0FC
FC0FC1F0FC
FC0FC3F0FC
FC0FFFF0FC
FC0FFFE0FC
FC0FFFC0FC
FC0FFF80FC
FC0FFC00F8
7C0FC001F8
7E0FC001F8
7E0FC003F8
3F0FC003F0
3F8FC007F0
1FC0000FE0
1FE0001FC0
0FF8007FC0
07FF07FF80
03FFFFFF00
00FFFFFC00
007FFFF800
001FFFE000
0003FF0000
ENDCHAR
STARTCHAR 2122
ENCODING 8482
SWIDTH 580 0
DWIDTH 29 0
BBX 27 13 1 23
BITMAP
FFE7C3E0
FFE7C3E0
FFE7C7E0
0E07E7E0
0E07E7E0
0E07EEE0
0E07EEE0
0E077EE0
0E077EE0
0E077CE0
0E073CE0
0E073CE0
0E0738E0
ENDCHAR
STARTCHAR 2126
ENCODING 8486
SWIDTH 780 0
DWIDTH 39 0
BBX 37 37 1 0
BITMAP
0007FF0000
003FFFE000
00FFFFF800
03FFFFFE00
07FFFFFF00
0FFFFFFF80
1FFFFFFFC0
1FFF87FFE0
3FFC00FFE0
3FF0007FF0
7FE0003FF0
7FE0001FF0
7FC0001FF8
7FC0000FF8
7F80000FF8
7F80000FF8
7F80000FF8
7F80000FF8
7F80000FF8
7F80000FF8
7F80000FF0
7FC0000FF0
3FC0000FF0
3FC0001FE0
1FE0001FE0
1FE0003FC0
0FF0003F80
07F8007F00
03FC00FE00
01FE01FC00
FFFF87FFF8
FFFF87FFF8
FFFF87FFF8
FFFF87FFF8
FFFF87FFF8
FFFF87FFF8
FFFF87FFF8
ENDCHAR
STARTCHAR 212E
ENCODING 8494
SWIDTH 920 0
DWIDTH 46 0
BBX 41 38 2 -1
BITMAP
0000FFC00000
000FF3F80000
003E001E0000
00F800078000
01E00003C000
03C00000E000
078000007000
0F0000007800
1F0000007C00
1F0000007C00
3F0000007E00
3F0000007E00
7F0000007F00
7F0000007F00
7F0000007F00
7F0000007F80
7F0000007F80
7F0000007F80
FFFFFFFFFF80
FF0000000000
7F0000000000
7F0000000000
7F0000000000
7F0000000000
7F0000000000
3F0000000000
3F0000000000
3F0000000000
1F0000000000
0F0000000000
0F0000000000
078000007800
03C00000E000
01E00003C000
00F000078000
003E001E0000
000FE3F80000
0000FFC00000
ENDCHAR
STARTCHAR 2153
ENCODING 8531
SWIDTH 780 0
DWIDTH 39 0
BBX 37 37 1 -1
BITMAP
07C001F000
07C003E000
0FC003E000
1FC007C000
FFC007C000
FFC00F8000
FFC00F8000
FFC01F0000
0FC01F0000
0FC03E0000
0FC07C0000
0FC07C0000
0FC0F80000
0FC0F80000
0FC1F00000
0FC1F0FF80
0FC3E3FFE0
0FC3E3FFE0
0FC7C7FFF0
0FC7C7E3F0
0FCF8FC1F0
000F8FC1F0
001F0001F0
001F001FE0
003E001FC0
003E001FE0
007C001FF0
00780003F0
00F80F81F8
01F00F81F8
01F00F81F8
03E00FC1F8
03E00FFFF0
07C007FFF0
07C003FFE0
0F8001FFC0
0000007F00
ENDCHAR
STARTCHAR 2154
ENCODING 8532
SWIDTH 920 0
DWIDTH 46 0
BBX 44 38 1 -1
BITMAP
07F000000000
1FFC0003E000
3FFE0007C000
7FFE0007C000
7FFF000F8000
FC3F000F8000
FC1F001F0000
F83F001F0000
003F003E0000
007E003E0000
01FE007C0000
07FC00FC0000
1FF800F80000
3FE001F00000
3F8001F00000
7F0003E00000
FE0003E1FF00
FFFF07C3FFC0
FFFF07C7FFE0
FFFF0F8FFFE0
FFFF0F8FC3F0
FFFF1F0F83F0
00001F0F83F0
00003E0003E0
00003E003FE0
00007C003F80
00007C003FC0
0000F8003FE0
0000F80003F0
0001F01F03F0
0003E01F01F0
0003E01F81F0
0007C01F83F0
0007C00FFFF0
000F800FFFE0
000F8007FFE0
001F0003FFC0
00000000FF00
ENDCHAR
STARTCHAR 2155
ENCODING 8533
SWIDTH 800 0
DWIDTH 40 0
BBX 38 37 1 -1
BITMAP
07C000F800
07C001F000
0FC001F000
1FC003E000
FFC003E000
FFC007C000
FFC007C000
FFC00F8000
0FC00F8000
0FC01F0000
0FC03E0000
0FC03E0000
0FC07C0000
0FC07C0000
0FC0F80000
0FC0F8FFF8
0FC1F0FFF8
0FC1F0FFF8
0FC3E0FFF8
0FC3E1FFF8
0FC7C1F000
0007C1F000
000F81F7C0
000F81FFF0
001F01FFF8
001F03FFF8
003E03F0FC
007C03E07C
007C00007C
00F800007C
00F803E07C
01F003F0FC
01F003F9FC
03E001FFF8
03E000FFF8
07C0007FE0
0000001F80
ENDCHAR
STARTCHAR 2156
ENCODING 8534
SWIDTH 920 0
DWIDTH 46 0
BBX 45 38 1 -1
BITMAP
07F000000000
1FFC0003E000
3FFE0007C000
7FFE0007C000
7FFF000F8000
FC3F000F8000
FC1F001F0000
F83F001F0000
003F003E0000
007E003E0000
01FE007C0000
07FC007C0000
1FF800F80000
3FE000F80000
3F8001F00000
7F0003E00000
FE0003E3FFF0
FFFF07C3FFF0
FFFF07C3FFF0
FFFF0F83FFF0
FFFF0F83FFF0
FFFF1F03E000
00001F07C000
00003E07DF00
00003E07FFC0
00007C07FFE0
00007C07FFF0
0000F807C3F0
0000F80F81F0
0001F00001F8
0001F00001F8
0003E00F81F0
0003C00FC1F0
0007C007E7F0
000F8007FFE0
000F8003FFE0
001F0001FFC0
000000007F00
ENDCHAR
STARTCHAR 2157
ENCODING 8535
SWIDTH 900 0
DWIDTH 45 0
BBX 43 38 1 -1
BITMAP
07F000000000
1FFC0007C000
3FFE000F8000
7FFF000F0000
7E3F001F0000
FC1F003E0000
FC1F003E0000
001F007C0000
003F007C0000
01FE00F80000
01FC00F80000
01FE01F00000
01FF01F00000
003F03E00000
F81F83E00000
F81F87C00000
F81F87C00000
FC1F8F87FFC0
FFFF0F87FFC0
7FFF1F07FFC0
3FFE1F0FFFC0
1FFC3E0FFFC0
07F07C0F8000
00007C0F8000
0000F80FFE00
0000F80FFF80
0001F01FFFC0
0001F01FFFC0
0003E01F87E0
0003E00003E0
0007C00003E0
0007C00003E0
000F801F07E0
000F801FCFE0
001F000FFFC0
001F000FFF80
003E0007FF00
00000001FC00
ENDCHAR
STARTCHAR 2158
ENCODING 8536
SWIDTH 920 0
DWIDTH 46 0
BBX 44 37 1 -1
BITMAP
007E0003E000
00FE0007C000
01FE00078000
01FE000F8000
03FE001F0000
07FE001F0000
0FBE003E0000
1F3E003E0000
3E3E007C0000
3C3E007C0000
7C3E00F80000
F83E00F80000
FFFFC1F00000
FFFFC1F00000
FFFFC3E00000
FFFFC3E3FFE0
007E07C3FFE0
007E07C3FFE0
007E0F87FFE0
007E0F87FFE0
007E1F07C000
00003E07C000
00003E07DE00
00007C07FF80
00007C0FFFC0
0000F80FFFE0
0000F80FC3F0
0001F00F81F0
0001F00001F0
0003E00001F0
0003E00F81F0
0007C00F83F0
0007C00FE7F0
000F8007FFE0
000F8007FFC0
001F0001FF80
000000007E00
ENDCHAR
STARTCHAR 2159
ENCODING 8537
SWIDTH 780 0
DWIDTH 39 0
BBX 37 37 1 -1
BITMAP
07C001F000
07C001F000
0FC003E000
1FC003E000
FFC007C000
FFC00F8000
FFC00F8000
FFC01F0000
0FC01F0000
0FC03E0000
0FC03E0000
0FC07C0000
0FC07C0000
0FC0F80000
0FC0F80000
0FC1F07F00
0FC1F0FFC0
0FC3E1FFE0
0FC3E3FFF0
0FC7C7E1F0
0FC7C7C1F8
000F87C000
000F0F9F80
001F0FFFC0
003E0FFFE0
003E0FFFF0
007C0FE3F8
007C0FC1F8
00F80FC0F8
00F80FC0F8
01F007C0F8
01F007C1F8
03E003F3F0
03E003FFF0
07C001FFE0
07C000FFC0
0000003F00
ENDCHAR
STARTCHAR 215A
ENCODING 8538
SWIDTH 860 0
DWIDTH 43 0
BBX 41 37 1 -1
BITMAP
3FFE001F0000
3FFE001F0000
3FFE003E0000
3FFE003E0000
7FFE007C0000
7C00007C0000
7C0000F80000
7DE000F80000
7FFC01F00000
7FFE01F00000
FFFE03E00000
FC3F03E00000
F81F07C00000
001F07C00000
001F0F800000
F81F0F83F000
FC3F1F0FFC00
FE7F1E1FFF00
7FFE3E3FFF00
3FFC7C3F1F80
1FF87C7E0F80
07E0F87C0000
0000F87C0000
0001F07DF800
0001F07FFE00
0003E07FFF00
0003E0FFFF80
0007C0FE1F80
0007C07C0F80
000F807C0F80
000F807C0F80
001F007E0F80
001F003F3F80
003E003FFF00
003C001FFF00
007C000FFE00
00000003F800
ENDCHAR
STARTCHAR 215B
ENCODING 8539
SWIDTH 780 0
DWIDTH 39 0
BBX 37 37 1 -1
BITMAP
07C001F000
07C003E000
0FC003E000
1FC007C000
FFC007C000
FFC00F8000
FFC00F8000
FFC01F0000
0FC01F0000
0FC03E0000
0FC07C0000
0FC07C0000
0FC0F80000
0FC0F80000
0FC1F00000
0FC1F07F00
0FC3E1FFC0
0FC3E3FFE0
0FC7C7FFF0
0FC7C7E1F0
0FCF87C1F0
000F87C1F0
001F07C1F0
001F03FFF0
003E01FFE0
003E01FFE0
007C07FFF0
007807E1F8
00F80FC0F8
01F00F80F8
01F00F80F8
03E00FC1F8
03E00FE3F8
07C007FFF8
07C003FFF0
0F8001FFE0
0000007F80
ENDCHAR
STARTCHAR 215C
ENCODING 8540
SWIDTH 900 0
DWIDTH 45 0
BBX 43 38 1 -1
BITMAP
07F000000000
1FFC000F8000
3FFE000F8000
7FFF001F0000
7E3F001F0000
FC1F003E0000
FC1F003E0000
001F007C0000
003F00780000
01FE00F80000
01FC01F00000
01FE01F00000
01FF03E00000
003F03E00000
F81F87C00000
F81F87C00000
F81F8F81F800
FC1F8F87FF00
FFFF1F0FFF80
7FFF1F1FFF80
3FFE3E1F0FC0
1FFC3E3E07C0
07F07C3E07C0
00007C1F07C0
0000F81F0F80
0000F81FFF80
0001F007FF00
0001E01FFF80
0003E03FFFC0
0007C03E07C0
0007C03E07E0
000F803E07E0
000F803E07E0
001F003F8FC0
001F003FFFC0
003E001FFF80
003E000FFF00
00000003FC00
ENDCHAR
STARTCHAR 215D
ENCODING 8541
SWIDTH 880 0
DWIDTH 44 0
BBX 42 37 1 -1
BITMAP
3FFE001F0000
3FFE001F0000
3FFE003E0000
3FFE003E0000
7FFE007C0000
7C00007C0000
7C0000F80000
7DE000F80000
7FFC01F00000
7FFE01F00000
FFFE03E00000
FC3F03C00000
F81F07C00000
001F0F800000
001F0F800000
F81F1F03F800
FC3F1F0FFE00
FE7F3E1FFF00
7FFE3E3FFF00
3FFC7C3E1F80
1FF87C3E0F80
07E0F83C0F80
0000F83E0F80
0001F03E1F00
0001F01FFF00
0003E00FFE00
0003E03FFF00
0007C07FFF80
0007C07E0FC0
000F807C0FC0
001F007C07C0
001F007C0FC0
003E007F1FC0
003E007FFF80
007C003FFF00
007C001FFE00
00000007F800
ENDCHAR
STARTCHAR 215E
ENCODING 8542
SWIDTH 800 0
DWIDTH 40 0
BBX 38 37 1 -1
BITMAP
FFFE01F000
FFFE03E000
FFFE03E000
FFFE07C000
FFFE07C000
00FC0F8000
00F80F8000
01F01F0000
03F01F0000
03E03E0000
07E03E0000
07C07C0000
0FC07C0000
0FC0F80000
0F80F00000
0F81F03F80
1F83E1FFE0
1F83E3FFF0
1F87C3FFF0
1F87C7E1F8
1F8F87C0F8
000F87C0F8
001F03E1F0
001F03FFF0
003E01FFE0
003E01FFE0
007C03FFF0
007C07E1F8
00F807C0F8
00F80FC0FC
01F00FC0FC
01F007C0FC
03E007E1F8
07C007FFF8
07C003FFF0
0F8001FFE0
0000007F80
ENDCHAR
STARTCHAR 2190
ENCODING 8592
SWIDTH 960 0
DWIDTH 48 0
BBX 36 36 6 0
BITMAP
0007FE0000
000FFC0000
001FF80000
003FF00000
003FF00000
007FE00000
00FFC00000
01FF800000
01FF800000
03FF000000
07FE000000
0FFC000000
0FFC000000
1FF8000000
3FFFFFFFF0
7FFFFFFFF0
7FFFFFFFF0
FFFFFFFFF0
FFFFFFFFF0
7FFFFFFFF0
3FFFFFFFF0
3FF0000000
1FF8000000
0FFC000000
07FE000000
07FE000000
03FF000000
01FF800000
00FFC00000
00FFC00000
007FE00000
003FF00000
001FF80000
001FF80000
000FFC0000
0007FE0000
ENDCHAR
STARTCHAR 2191
ENCODING 8593
SWIDTH 960 0
DWIDTH 48 0
BBX 36 37 6 0
BITMAP
0000600000
0000F00000
0001F80000
0007FE0000
000FFF0000
001FFF8000
007FFFC000
00FFFFF000
01FFFFF800
07FFFFFC00
0FFFFFFF00
1FFFFFFF80
7FFFFFFFC0
FFFBFDFFF0
FFE3FCFFF0
FFC3FC3FF0
FF83FC1FF0
FE03FC0FF0
FC03FC03F0
F803FC01F0
E003FC00F0
C003FC0030
8003FC0010
0003FC0000
0003FC0000
0003FC0000
0003FC0000
0003FC0000
0003FC0000
0003FC0000
0003FC0000
0003FC0000
0003FC0000
0003FC0000
0003FC0000
0003FC0000
0003FC0000
ENDCHAR
STARTCHAR 2192
ENCODING 8594
SWIDTH 960 0
DWIDTH 48 0
BBX 36 36 6 0
BITMAP
0007FE0000
0003FF0000
0001FF8000
0001FF8000
0000FFC000
00007FE000
00003FF000
00003FF000
00001FF800
00000FFC00
000007FE00
000007FE00
000003FF00
000001FF80
FFFFFFFFC0
FFFFFFFFC0
FFFFFFFFE0
FFFFFFFFF0
FFFFFFFFE0
FFFFFFFFE0
FFFFFFFFC0
000001FF80
000001FF80
000003FF00
000007FE00
00000FFC00
00000FFC00
00001FF800
00003FF000
00007FE000
00007FE000
0000FFC000
0001FF8000
0001FF0000
0003FF0000
0007FE0000
ENDCHAR
STARTCHAR 2193
ENCODING 8595
SWIDTH 960 0
DWIDTH 48 0
BBX 36 37 6 -1
BITMAP
0003FC0000
0003FC0000
0003FC0000
0003FC0000
0003FC0000
0003FC0000
0003FC0000
0003FC0000
0003FC0000
0003FC0000
0003FC0000
0003FC0000
0003FC0000
0003FC0000
8003FC0010
C003FC0030
E003FC00F0
F803FC01F0
FC03FC03F0
FE03FC0FF0
FF83FC1FF0
FFC3FC3FF0
FFE3FCFFF0
FFFBFDFFF0
7FFFFFFFC0
1FFFFFFF80
0FFFFFFF00
07FFFFFC00
01FFFFF800
00FFFFF000
007FFFC000
001FFF8000
000FFF0000
0007FE0000
0001F80000
0000F00000
0000600000
ENDCHAR
STARTCHAR 2194
ENCODING 8596
SWIDTH 960 0
DWIDTH 48 0
BBX 48 36 0 0
BITMAP
001FF00FF000
001FE00FF800
003FE007FC00
007FC003FC00
007F8003FE00
00FF8001FF00
01FF0000FF00
01FE0000FF80
03FE00007FC0
07FC00003FC0
07F800003FE0
0FF800001FF0
1FF000000FF0
1FE000000FF8
3FFFFFFFFFFC
7FFFFFFFFFFC
7FFFFFFFFFFE
FFFFFFFFFFFF
7FFFFFFFFFFE
7FFFFFFFFFFE
3FFFFFFFFFFC
3FE0000007F8
1FF000000FF8
0FF000001FF0
0FF800001FE0
07FC00003FE0
03FC00007FC0
03FE00007FC0
01FF0000FF80
00FF0000FF00
00FF8001FF00
007F8003FE00
007FC003FC00
003FE007FC00
001FE00FF800
001FF00FF000
ENDCHAR
STARTCHAR 2195
ENCODING 8597
SWIDTH 960 0
DWIDTH 48 0
BBX 36 52 6 -8
BITMAP
0000600000
0000F00000
0001F80000
0007FE0000
000FFF0000
001FFF8000
007FFFC000
00FFFFF000
01FFFFF800
07FFFFFC00
0FFFFFFF00
1FFFFFFF80
7FFFFFFFC0
FFFBFDFFF0
FFE3FCFFF0
FFC3FC3FF0
FF83FC1FF0
FE03FC0FF0
FC03FC03F0
F803FC01F0
E003FC00F0
C003FC0030
8003FC0010
0003FC0000
0003FC0000
0003FC0000
0003FC0000
0003FC0000
0003FC0000
8003FC0010
C003FC0030
E003FC00F0
F803FC01F0
FC03FC03F0
FE03FC0FF0
FF83FC1FF0
FFC3FC3FF0
FFE3FCFFF0
FFFBFDFFF0
7FFFFFFFC0
1FFFFFFF80
0FFFFFFF00
07FFFFFC00
01FFFFF800
00FFFFF000
007FFFC000
001FFF8000
000FFF0000
0007FE0000
0001F80000
0000F00000
0000600000
ENDCHAR
STARTCHAR 2196
ENCODING 8598
SWIDTH 960 0
DWIDTH 48 0
BBX 33 33 8 1
BITMAP
FFFFFFC000
FFFFFFE000
FFFFFFF000
FFFFFFF800
FFFFFFFC00
FFFFFFFE00
FFFFFFFF00
FFF8000080
FFFC000000
FFFE000000
FFFF000000
FFFF800000
FFFFC00000
FEFFE00000
FE7FF00000
FE3FF80000
FE1FFC0000
FE0FFE0000
FE07FF0000
FE03FF8000
FE01FFC000
FE00FFE000
FE007FF000
FE003FF800
FE001FFC00
FE000FFE00
FE0007FF00
7E0003FE00
3E0001FC00
1E0000F800
0E00007000
0200002000
0200000000
ENDCHAR
STARTCHAR 2197
ENCODING 8599
SWIDTH 960 0
DWIDTH 48 0
BBX 33 33 7 1
BITMAP
03FFFFFF80
07FFFFFF80
0FFFFFFF80
1FFFFFFF80
3FFFFFFF80
3FFFFFFF80
7FFFFFFF80
80000FFF80
00001FFF80
00003FFF80
00007FFF80
0000FFFF80
0001FFFF80
0003FFBF80
0007FF3F80
000FFE3F80
001FFC3F80
003FF83F80
007FF03F80
00FFE03F80
01FFC03F80
03FF803F80
07FF003F80
0FFE003F80
1FFC003F80
3FF8003F80
7FF0003F80
3FE0003F00
1FC0003C00
0F80003800
0700003000
0200002000
0000004000
ENDCHAR
STARTCHAR 2198
ENCODING 8600
SWIDTH 960 0
DWIDTH 48 0
BBX 33 33 7 2
BITMAP
0000004000
0200002000
0700003000
0F80003800
1FC0003C00
3FE0003F00
7FF0003F80
3FF8003F80
1FFC003F80
0FFE003F80
07FF003F80
03FF803F80
01FFC03F80
00FFE03F80
007FF03F80
003FF83F80
001FFC3F80
000FFE3F80
0007FF3F80
0003FFBF80
0001FFFF80
0000FFFF80
00007FFF80
00003FFF80
00001FFF80
00000FFF80
FFFFFFFF80
7FFFFFFF80
3FFFFFFF80
1FFFFFFF80
0FFFFFFF80
07FFFFFF80
03FFFFFF80
ENDCHAR
STARTCHAR 2199
ENCODING 8601
SWIDTH 960 0
DWIDTH 48 0
BBX 33 33 8 2
BITMAP
0200000000
0200002000
0E00007000
1E0000F800
3E0001FC00
7E0003FE00
FE0007FF00
FE000FFE00
FE001FFC00
FE003FF800
FE007FF000
FE00FFE000
FE01FFC000
FE03FF8000
FE07FF0000
FE0FFE0000
FE1FFC0000
FE3FF80000
FE7FF00000
FEFFE00000
FFFFC00000
FFFF800000
FFFF000000
FFFE000000
FFFC000000
FFF8000000
FFFFFFFF80
FFFFFFFE00
FFFFFFFC00
FFFFFFF800
FFFFFFF000
FFFFFFE000
FFFFFFC000
ENDCHAR
STARTCHAR 2202
ENCODING 8706
SWIDTH 660 0
DWIDTH 33 0
BBX 30 38 1 -1
BITMAP
0003FC00
001FFF80
003FFFC0
00FFFFE0
01FFFFF0
01FFFFF8
03FF0FF8
07FC07F8
07F803FC
07F003FC
000003FC
000003FC
000003FC
003FC3FC
00FFF3FC
03FFFBFC
07FFFFFC
0FFFFFFC
1FFFFFFC
3FF87FF8
3FF03FF8
3FE01FF8
7FC01FF8
7F801FF0
7F801FF0
7F801FF0
FF801FE0
FF803FE0
7F803FE0
7F807FC0
7FC0FF80
7FFFFF80
3FFFFF00
3FFFFE00
1FFFFC00
0FFFF800
03FFE000
00FF0000
ENDCHAR
STARTCHAR 2206
ENCODING 8710
SWIDTH 700 0
DWIDTH 35 0
BBX 32 36 1 0
BITMAP
001FF800
001FFC00
003FFC00
003FFE00
007FFE00
007FFE00
007FFF00
00FFFF00
00FFFF00
00FE7F80
01FE7F80
01FE7FC0
03FE3FC0
03FC3FC0
03FC3FE0
07F81FE0
07F81FF0
07F81FF0
0FF00FF0
0FF00FF8
1FF007F8
1FE007F8
1FE007FC
3FE003FC
3FC003FE
3FC003FE
7FC001FE
7F8001FF
FF8001FF
FFFFFFFF
FFFFFFFF
FFFFFFFF
FFFFFFFF
FFFFFFFF
FFFFFFFF
FFFFFFFF
ENDCHAR
STARTCHAR 220F
ENCODING 8719
SWIDTH 740 0
DWIDTH 37 0
BBX 31 46 3 -10
BITMAP
FFFFFFFE
FFFFFFFE
FFFFFFFE
FFFFFFFE
FFFFFFFE
FFFFFFFE
FFFFFFFE
FF0003FE
FF0003FE
FF0003FE
FF0003FE
FF0003FE
FF0003FE
FF0003FE
FF0003FE
FF0003FE
FF0003FE
FF0003FE
FF0003FE
FF0003FE
FF0003FE
FF0003FE
FF0003FE
FF0003FE
FF0003FE
FF0003FE
FF0003FE
FF0003FE
FF0003FE
FF0003FE
FF0003FE
FF0003FE
FF0003FE
FF0003FE
FF0003FE
FF0003FE
FF0003FE
FF0003FE
FF0003FE
FF0003FE
FF0003FE
FF0003FE
FF0003FE
FF0003FE
FF0003FE
FF0003FE
ENDCHAR
STARTCHAR 2211
ENCODING 8721
SWIDTH 620 0
DWIDTH 31 0
BBX 29 46 1 -10
BITMAP
FFFFFFF8
FFFFFFF8
FFFFFFF8
FFFFFFF8
FFFFFFF8
FFFFFFF8
FFFFFFF8
7FE00000
3FF00000
1FF80000
0FFC0000
0FFE0000
07FF0000
03FF8000
01FF8000
00FFC000
007FE000
003FF000
003FF800
001FF800
000FFC00
0007FC00
0003FC00
0003FC00
0007FC00
000FFC00
001FF800
003FF800
003FF000
007FE000
00FFC000
01FF8000
03FF8000
07FF0000
0FFE0000
0FFC0000
1FF80000
3FF00000
7FE00000
FFFFFFF8
FFFFFFF8
FFFFFFF8
FFFFFFF8
FFFFFFF8
FFFFFFF8
FFFFFFF8
ENDCHAR
STARTCHAR 2212
ENCODING 8722
SWIDTH 520 0
DWIDTH 26 0
BBX 24 7 1 14
BITMAP
FFFFFF
FFFFFF
FFFFFF
FFFFFF
FFFFFF
FFFFFF
FFFFFF
ENDCHAR
STARTCHAR 2215
ENCODING 8725
SWIDTH 520 0
DWIDTH 26 0
BBX 23 36 2 0
BITMAP
0001FE
0001FC
0003FC
0003F8
0007F8
0007F8
000FF0
000FF0
000FE0
001FE0
001FC0
003FC0
003F80
007F80
007F80
00FF00
00FF00
00FE00
01FE00
01FC00
03FC00
03F800
07F800
07F800
0FF000
0FF000
0FE000
1FE000
1FC000
3FC000
3FC000
7F8000
7F8000
7F0000
FF0000
FE0000
ENDCHAR
STARTCHAR 2219
ENCODING 8729
SWIDTH 520 0
DWIDTH 26 0
BBX 10 10 8 12
BITMAP
FFC0
FFC0
FFC0
FFC0
FFC0
FFC0
FFC0
FFC0
FFC0
FFC0
ENDCHAR
STARTCHAR 221A
ENCODING 8730
SWIDTH 740 0
DWIDTH 37 0
BBX 36 46 1 -10
BITMAP
0000001FF0
0000001FE0
0000001FE0
0000003FE0
0000003FC0
0000003FC0
0000007FC0
0000007F80
0000007F80
000000FF80
000000FF80
000000FF00
000000FF00
000001FF00
000001FE00
000001FE00
000003FE00
000003FC00
000003FC00
FFE007FC00
FFE007F800
FFE007F800
FFF00FF800
FFF00FF000
FFF00FF000
FFF00FF000
07F81FE000
07F81FE000
07F81FE000
03FC3FE000
03FC3FC000
03FC3FC000
01FC3FC000
01FE7F8000
01FE7F8000
00FE7F8000
00FF7F0000
00FFFF0000
007FFF0000
007FFE0000
007FFE0000
003FFE0000
003FFC0000
003FFC0000
001FFC0000
001FFC0000
ENDCHAR
STARTCHAR 221E
ENCODING 8734
SWIDTH 840 0
DWIDTH 42 0
BBX 39 21 1 7
BITMAP
01F8001F80
07FE00FFE0
1FFF81FFF0
1FFFC3FFF8
3FFFE7FFFC
7FFFFFFFFC
7F07FFE0FE
7E03FF80FE
7E01FF807E
FE00FF007E
FE00FE007E
FE00FF007E
7E01FF807E
7F03FFC0FE
7F8FFFE1FE
3FFFFFFFFC
3FFFE7FFFC
1FFFC3FFF8
0FFF01FFF0
07FE007FC0
00E0000600
ENDCHAR
STARTCHAR 222B
ENCODING 8747
SWIDTH 420 0
DWIDTH 21 0
BBX 19 46 1 -10
BITMAP
001FE0
007FE0
00FFE0
01FFE0
03FFE0
03FFE0
03FE00
03FC00
03F800
03F800
03F800
03F800
03F800
03F800
03F800
03F800
03F800
03F800
03F800
03F800
03F800
03F800
03F800
03F800
03F800
03F800
03F800
03F800
03F800
03F800
03F800
03F800
03F800
03F800
03F800
03F800
03F800
03F800
07F800
07F800
FFF800
FFF800
FFF000
FFE000
FFC000
FF0000
ENDCHAR
STARTCHAR 2248
ENCODING 8776
SWIDTH 520 0
DWIDTH 26 0
BBX 24 19 1 8
BITMAP
0FE01F
1FFC3F
3FFFFF
7FFFFE
7FFFFE
7FFFFC
7C3FFC
FC07F0
000000
000000
07E01F
1FF83F
3FFF7F
3FFFFE
7FFFFE
7FFFFE
7E7FFC
FC0FF8
F801E0
ENDCHAR
STARTCHAR 2260
ENCODING 8800
SWIDTH 520 0
DWIDTH 26 0
BBX 24 28 1 4
BITMAP
000300
0003E0
0003E0
0007C0
0007C0
0007C0
FFFFFF
FFFFFF
FFFFFF
FFFFFF
FFFFFF
FFFFFF
003E00
003E00
003C00
007C00
FFFFFF
FFFFFF
FFFFFF
FFFFFF
FFFFFF
FFFFFF
01F000
03E000
03E000
03E000
03C000
00C000
ENDCHAR
STARTCHAR 2264
ENCODING 8804
SWIDTH 520 0
DWIDTH 26 0
BBX 24 31 1 0
BITMAP
000001
00000F
00007F
0003FF
001FFF
007FFF
03FFFF
1FFFFC
FFFFE0
FFFF00
FFF800
FFC000
FFC000
FFF800
FFFF00
FFFFE0
1FFFFC
03FFFF
007FFF
001FFF
0003FF
00007F
00000F
000001
000000
FFFFFF
FFFFFF
FFFFFF
FFFFFF
FFFFFF
FFFFFF
ENDCHAR
STARTCHAR 2265
ENCODING 8805
SWIDTH 520 0
DWIDTH 26 0
BBX 24 31 1 0
BITMAP
C00000
F80000
FE0000
FFC000
FFF800
FFFF00
FFFFE0
3FFFF8
07FFFF
00FFFF
001FFF
0003FF
0001FF
001FFF
00FFFF
07FFFF
3FFFF8
FFFFE0
FFFF00
FFF800
FFC000
FE0000
F80000
C00000
000000
FFFFFF
FFFFFF
FFFFFF
FFFFFF
FFFFFF
FFFFFF
ENDCHAR
STARTCHAR 2460
ENCODING 9312
SWIDTH 960 0
DWIDTH 48 0
BBX 48 46 0 -5
BITMAP
00001FF80000
0001FFFF0000
0007FFFFE000
001FFFFFF800
003FFFFFFC00
00FFFFFFFE00
01FFF00FFF80
03FF8001FFC0
07FE00007FC0
07F800001FE0
0FF000000FF0
1FE0000007F8
1FC001F003F8
3F8003F003FC
3F8007F001FC
7F001FF001FC
7F007FF000FE
7E007FF000FE
FE007FF0007E
FE007FF0007E
FE0003F0007F
FE0003F0007F
FE0003F0007F
FE0003F0007F
FE0003F0007F
FE0003F0007F
FE0003F0007F
FE0003F0007E
7E0003F0007E
7F0003F000FE
7F0003F000FE
7F0003F001FC
3F8003F001FC
3FC003F003F8
1FE003F007F8
0FF000000FF0
0FF800001FF0
07FC00007FE0
03FF0000FFC0
01FFE00FFF80
00FFFFFFFF00
007FFFFFFE00
001FFFFFF800
0007FFFFE000
0001FFFF8000
00003FF80000
ENDCHAR
STARTCHAR 2461
ENCODING 9313
SWIDTH 960 0
DWIDTH 48 0
BBX 48 46 0 -5
BITMAP
00001FF80000
0001FFFF8000
0007FFFFE000
001FFFFFF800
007FFFFFFC00
00FFFFFFFF00
01FFF00FFF80
03FF8001FFC0
07FE00007FE0
0FF800001FE0
0FF007F00FF0
1FE01FFC07F8
3FC03FFE03F8
3F807FFF01FC
3F80FFFF81FC
7F00FE3F80FE
7F00FC1F80FE
7E00F81F80FE
FE00001F807E
FE00003F807F
FE0000FF007F
FE0003FE007F
FE000FFC007F
FE001FF8007F
FE003FE0007F
FE007F80007F
FE00FE00007E
FE00FC00007E
7E01FFFF80FE
7F01FFFF80FE
7F01FFFF80FC
3F81FFFF81FC
3F81FFFF83FC
1FC0000003F8
1FE0000007F8
0FF000000FF0
07F800001FE0
07FE00007FE0
03FF8001FFC0
01FFF00FFF80
00FFFFFFFF00
003FFFFFFC00
001FFFFFF800
0007FFFFE000
0001FFFF8000
00001FF80000
ENDCHAR
STARTCHAR 2462
ENCODING 9314
SWIDTH 960 0
DWIDTH 48 0
BBX 48 46 0 -5
BITMAP
00001FF80000
0001FFFF0000
0007FFFFE000
001FFFFFF800
003FFFFFFC00
00FFFFFFFE00
01FFF00FFF80
03FF8001FFC0
07FE00007FC0
0FF800001FE0
0FF000000FF0
1FE007C007F8
1FC03FFC03F8
3F807FFE03FC
3F80FFFF01FC
7F00FFFF00FC
7F01FC3F80FE
7E01F81F80FE
FE01F81F807E
FE00001F007E
FE00007F007F
FE0003FE007F
FE0003FC007F
FE0003FE007F
FE0003FF007F
FE00003F807F
FE03F01F807F
FE01F01F807E
7E01F81F807E
7F01FC3F80FE
7F01FFFF80FE
3F80FFFF01FC
3F807FFE01FC
3FC03FFC03F8
1FE00FF007F8
0FF000000FF0
0FF800001FE0
07FC00007FE0
03FF0001FFC0
01FFF00FFF80
00FFFFFFFF00
007FFFFFFC00
001FFFFFF800
0007FFFFE000
0001FFFF8000
00001FF80000
ENDCHAR
STARTCHAR 2463
ENCODING 9315
SWIDTH 960 0
DWIDTH 48 0
BBX 48 46 0 -5
BITMAP
00001FF80000
0001FFFF0000
0007FFFFE000
001FFFFFF000
003FFFFFFC00
00FFFFFFFE00
01FFF00FFF00
03FF8001FF80
07FE00007FC0
07F800003FE0
0FF000000FF0
1FE0000007F0
1FC001FC03F8
3FC003FC03FC
3F8003FC01FC
7F0007FC01FC
7F000FFC00FE
7E001FFC00FE
FE003FFC007E
FE007EFC007E
FE007CFC007F
FE00F8FC007F
FE01F0FC007F
FE03E0FC007F
FE07E0FC007F
FE07FFFF807F
FE07FFFF807F
FE07FFFF807E
7E07FFFF807E
7F07FFFF80FE
7F0000FC00FE
3F8000FC01FC
3F8000FC01FC
1FC000FC03F8
1FE0000007F8
0FF000000FF0
0FF800001FE0
07FE00007FE0
03FF8001FFC0
01FFF00FFF80
00FFFFFFFF00
007FFFFFFC00
001FFFFFF800
0007FFFFE000
0001FFFF8000
00001FF80000
ENDCHAR
STARTCHAR 2464
ENCODING 9316
SWIDTH 960 0
DWIDTH 48 0
BBX 48 46 0 -5
BITMAP
00001FF80000
0001FFFF0000
0007FFFFE000
001FFFFFF800
003FFFFFFC00
00FFFFFFFE00
01FFF00FFF80
03FF8001FFC0
07FE00007FE0
0FF800001FE0
0FF000000FF0
1FE0000007F8
1FC07FFF03F8
3F807FFF03FC
3F807FFF01FC
7F007FFF00FC
7F007FFF00FE
7E007C0000FE
FE00FC00007E
FE00FC00007E
FE00FBF8007F
FE00FFFC007F
FE00FFFE007F
FE00FFFF007F
FE01FC3F007F
FE01F81F807F
FE00001F807F
FE00001F807E
7E01F81F807E
7F01F81F80FE
7F01FC3F00FE
7F00FFFF01FC
3F80FFFE01FC
3FC07FFC03F8
1FE01FF807F8
1FF001C00FF0
0FF800001FF0
07FC00007FE0
03FF0001FFC0
01FFE00FFF80
00FFFFFFFF00
007FFFFFFE00
001FFFFFF800
0007FFFFE000
0001FFFF8000
00003FF80000
ENDCHAR
STARTCHAR 2465
ENCODING 9317
SWIDTH 960 0
DWIDTH 48 0
BBX 48 46 0 -5
BITMAP
00001FF80000
0001FFFF0000
0007FFFFE000
001FFFFFF800
003FFFFFFC00
00FFFFFFFE00
01FFF00FFF80
03FF8001FFC0
07FE00007FC0
0FF800001FE0
0FF000000FF0
1FE0000007F8
1FC01FF803F8
3F803FFC03FC
3F807FFE01FC
7F00FFFF00FC
7F00FC3F00FE
7E01F81F80FE
FE01F000007E
FE01F3F0007F
FE03FFFC007F
FE03FFFE007F
FE03FFFF007F
FE03FFFF007F
FE03FC3F807F
FE03F81F807F
FE01F81F807F
FE01F81F807E
7E01F81F80FE
7F01FC3F80FE
7F00FFFF00FE
3F80FFFF01FC
3F807FFE01FC
3FC03FF803F8
1FE007E007F8
0FF000000FF0
0FF800001FE0
07FC00007FE0
03FF0001FFC0
01FFF00FFF80
00FFFFFFFF00
007FFFFFFC00
001FFFFFF800
0007FFFFE000
0001FFFF8000
00001FF80000
ENDCHAR
STARTCHAR 2466
ENCODING 9318
SWIDTH 960 0
DWIDTH 48 0
BBX 48 46 0 -5
BITMAP
00001FF80000
0001FFFF8000
0007FFFFE000
001FFFFFF800
007FFFFFFC00
00FFFFFFFF00
01FFF00FFF80
03FF8001FFC0
07FE00007FE0
0FF800001FE0
0FF000000FF0
1FE0000007F8
3FC0FFFF03F8
3F80FFFF01FC
3F80FFFF01FC
7F00FFFF00FE
7F00FFFF00FE
7E00003F00FE
FE00007E007E
FE0000FC007F
FE0000F8007F
FE0001F8007F
FE0001F0007F
FE0003F0007F
FE0003E0007F
FE0007E0007F
FE0007E0007F
FE000FC0007E
7E000FC000FE
7F000FC000FE
7F000FC000FE
3F800FC001FC
3F801FC003FC
1FC01FC003F8
1FE01FC007F8
0FF000000FF0
0FF800001FE0
07FE00007FE0
03FF8001FFC0
01FFF00FFF80
00FFFFFFFF00
003FFFFFFC00
001FFFFFF800
0007FFFFE000
0001FFFF8000
00001FF80000
ENDCHAR
STARTCHAR 2467
ENCODING 9319
SWIDTH 960 0
DWIDTH 48 0
BBX 48 46 0 -5
BITMAP
00001FF80000
0001FFFF0000
0007FFFFE000
001FFFFFF800
003FFFFFFC00
00FFFFFFFF00
01FFF00FFF80
03FF8001FFC0
07FE00007FE0
0FF800001FE0
0FF000000FF0
1FE00FF007F8
1FC03FFC03F8
3F807FFE03FC
3F80FFFF01FC
7F00FE7F00FC
7F01F83F00FE
7E01F81F00FE
FE01F81F007E
FE00F81F007E
FE00FC3F007F
FE007FFE007F
FE003FFC007F
FE007FFE007F
FE00FFFF007F
FE01F83F807F
FE01F81F807F
FE03F01F807E
7E03F01F807E
7F01F81F80FE
7F01FFFF80FE
3F81FFFF01FC
3F80FFFF01FC
3FC03FFC03F8
1FE00FF007F8
0FF000000FF0
0FF800001FF0
07FC00007FE0
03FF0001FFC0
01FFF00FFF80
00FFFFFFFF00
007FFFFFFC00
001FFFFFF800
0007FFFFE000
0001FFFF8000
00001FF80000
ENDCHAR
STARTCHAR 2468
ENCODING 9320
SWIDTH 960 0
DWIDTH 48 0
BBX 48 46 0 -5
BITMAP
00001FF80000
0001FFFF0000
0007FFFFE000
001FFFFFF800
003FFFFFFC00
00FFFFFFFE00
01FFF00FFF80
03FF8001FFC0
07FE00007FE0
0FF800001FE0
0FF000000FF0
1FE003C007F8
1FC01FF803F8
3F807FFC03FC
3F807FFE01FC
7F00FFFF00FC
7F01FC3F00FE
7E01F81F80FE
FE01F81F807E
FE01F81F807F
FE01F81FC07F
FE01FC1FC07F
FE00FFFFC07F
FE00FFFFC07F
FE007FFFC07F
FE003FFF807F
FE000FCF807F
FE00000F807E
7E01F81F80FE
7F00FC1F80FE
7F00FFFF00FE
3F80FFFE01FC
3F807FFE01FC
3FC03FFC03F8
1FE007F007F8
0FF000000FF0
0FF800001FE0
07FC00007FE0
03FF0001FFC0
01FFF00FFF80
00FFFFFFFF00
007FFFFFFC00
001FFFFFF800
0007FFFFE000
0001FFFF8000
00001FF80000
ENDCHAR
STARTCHAR 24EA
ENCODING 9450
SWIDTH 960 0
DWIDTH 48 0
BBX 48 46 0 -5
BITMAP
00001FF80000
0001FFFF8000
0007FFFFE000
001FFFFFF800
007FFFFFFC00
00FFFFFFFF00
01FFF00FFF80
03FF8001FFC0
07FE00007FE0
0FF800001FE0
0FF000000FF0
1FE00FE007F8
1FC03FF803F8
3F807FFE01FC
3F80FFFF01FC
7F00FFFF00FE
7F01FC3F80FE
7E01F83F80FE
FE01F81F807E
FE03F81F807F
FE03F01FC07F
FE03F01FC07F
FE03F01FC07F
FE03F01FC07F
FE03F01FC07F
FE03F01FC07F
FE03F81F807F
FE01F81F807E
7E01F81F80FE
7F01FC3F80FE
7F00FFFF00FE
3F80FFFF01FC
3F807FFE01FC
3FC03FFC03F8
1FE00FF007F8
0FF000000FF0
0FF800001FE0
07FC00007FE0
03FF0001FFC0
01FFF00FFF80
00FFFFFFFF00
007FFFFFFC00
001FFFFFF800
0007FFFFE000
0001FFFF8000
00001FF80000
ENDCHAR
STARTCHAR 24FF
ENCODING 9471
SWIDTH 960 0
DWIDTH 48 0
BBX 48 46 0 -5
BITMAP
00001FF80000
0001FFFF0000
0007FFFFE000
001FFFFFF800
003FFFFFFC00
00FFFFFFFF00
01FFFFFFFF80
03FFFFFFFFC0
07FFFFFFFFE0
0FFFFFFFFFE0
0FFFFFFFFFF0
1FFFFC3FFFF8
1FFFE007FFF8
3FFF8003FFFC
3FFF8001FFFC
7FFF0000FFFC
7FFE03C0FFFE
7FFE07E07FFE
FFFE07E07FFE
FFFE0FE07FFF
FFFC0FE07FFF
FFFC0FF07FFF
FFFC0FF03FFF
FFFC0FF03FFF
FFFC0FF03FFF
FFFC0FF07FFF
FFFC0FE07FFF
FFFE07E07FFE
7FFE07E07FFE
7FFE03C0FFFE
7FFF0000FFFE
3FFF0001FFFC
3FFF8001FFFC
3FFFC007FFF8
1FFFF01FFFF8
0FFFFFFFFFF0
0FFFFFFFFFE0
07FFFFFFFFE0
03FFFFFFFFC0
01FFFFFFFF80
00FFFFFFFF00
007FFFFFFC00
001FFFFFF800
0007FFFFE000
0001FFFF8000
00001FF80000
ENDCHAR
STARTCHAR 25A0
ENCODING 9632
SWIDTH 960 0
DWIDTH 48 0
BBX 46 44 1 -4
BITMAP
FFFFFFFFFFFC
FFFFFFFFFFFC
FFFFFFFFFFFC
FFFFFFFFFFFC
FFFFFFFFFFFC
FFFFFFFFFFFC
FFFFFFFFFFFC
FFFFFFFFFFFC
FFFFFFFFFFFC
FFFFFFFFFFFC
FFFFFFFFFFFC
FFFFFFFFFFFC
FFFFFFFFFFFC
FFFFFFFFFFFC
FFFFFFFFFFFC
FFFFFFFFFFFC
FFFFFFFFFFFC
FFFFFFFFFFFC
FFFFFFFFFFFC
FFFFFFFFFFFC
FFFFFFFFFFFC
FFFFFFFFFFFC
FFFFFFFFFFFC
FFFFFFFFFFFC
FFFFFFFFFFFC
FFFFFFFFFFFC
FFFFFFFFFFFC
FFFFFFFFFFFC
FFFFFFFFFFFC
FFFFFFFFFFFC
FFFFFFFFFFFC
FFFFFFFFFFFC
FFFFFFFFFFFC
FFFFFFFFFFFC
FFFFFFFFFFFC
FFFFFFFFFFFC
FFFFFFFFFFFC
FFFFFFFFFFFC
FFFFFFFFFFFC
FFFFFFFFFFFC
FFFFFFFFFFFC
FFFFFFFFFFFC
FFFFFFFFFFFC
FFFFFFFFFFFC
ENDCHAR
STARTCHAR 25A1
ENCODING 9633
SWIDTH 960 0
DWIDTH 48 0
BBX 46 44 1 -4
BITMAP
FFFFFFFFFFFC
FFFFFFFFFFFC
FFFFFFFFFFFC
FFFFFFFFFFFC
FFFFFFFFFFFC
FFFFFFFFFFFC
FE00000001FC
FE00000001FC
FE00000001FC
FE00000001FC
FE00000001FC
FE00000001FC
FE00000001FC
FE00000001FC
FE00000001FC
FE00000001FC
FE00000001FC
FE00000001FC
FE00000001FC
FE00000001FC
FE00000001FC
FE00000001FC
FE00000001FC
FE00000001FC
FE00000001FC
FE00000001FC
FE00000001FC
FE00000001FC
FE00000001FC
FE00000001FC
FE00000001FC
FE00000001FC
FE00000001FC
FE00000001FC
FE00000001FC
FE00000001FC
FE00000001FC
FE00000001FC
FFFFFFFFFFFC
FFFFFFFFFFFC
FFFFFFFFFFFC
FFFFFFFFFFFC
FFFFFFFFFFFC
FFFFFFFFFFFC
ENDCHAR
STARTCHAR 25CA
ENCODING 9674
SWIDTH 620 0
DWIDTH 31 0
BBX 29 36 1 0
BITMAP
003FE000
007FF000
007FF000
00FFF800
01FFF800
01FFFC00
03FFFC00
03FDFE00
07F9FE00
07F8FF00
0FF0FF80
0FF07F80
1FE07FC0
3FE03FC0
3FC01FE0
7FC01FE0
7F800FF0
FF000FF8
FF000FF8
7F800FF0
7FC01FE0
3FC01FE0
3FE03FC0
1FE07FC0
0FF07F80
0FF0FF80
07F8FF00
07F9FE00
03FDFE00
03FFFC00
01FFFC00
01FFF800
00FFF800
007FF000
007FF000
003FE000
ENDCHAR
STARTCHAR 25CB
ENCODING 9675
SWIDTH 960 0
DWIDTH 48 0
BBX 48 46 0 -5
BITMAP
00001FF80000
0001FFFF0000
0007FFFFE000
001FFFFFF800
003FFFFFFC00
00FFFFFFFF00
01FFF00FFF80
03FF8001FFC0
07FE00007FE0
0FF800001FE0
0FF000000FF0
1FE0000007F8
1FC0000003F8
3F80000003FC
3F80000001FC
7F00000000FC
7F00000000FE
7E00000000FE
FE000000007E
FE000000007F
FE000000007F
FE000000007F
FE000000007F
FE000000007F
FE000000007F
FE000000007F
FE000000007F
FE000000007E
7E00000000FE
7F00000000FE
7F00000000FE
3F80000001FC
3F80000003FC
1FC0000003F8
1FE0000007F8
0FF000000FF0
0FF800001FE0
07FE00007FE0
03FF8001FFC0
01FFF00FFF80
00FFFFFFFF00
007FFFFFFC00
001FFFFFF800
0007FFFFE000
0001FFFF8000
00001FF80000
ENDCHAR
STARTCHAR 25CF
ENCODING 9679
SWIDTH 960 0
DWIDTH 48 0
BBX 48 46 0 -5
BITMAP
00001FF80000
0001FFFF0000
0007FFFFE000
001FFFFFF800
007FFFFFFC00
00FFFFFFFE00
01FFFFFFFF80
03FFFFFFFFC0
07FFFFFFFFE0
0FFFFFFFFFE0
0FFFFFFFFFF0
1FFFFFFFFFF8
1FFFFFFFFFF8
3FFFFFFFFFFC
3FFFFFFFFFFC
7FFFFFFFFFFE
7FFFFFFFFFFE
7FFFFFFFFFFE
FFFFFFFFFFFE
FFFFFFFFFFFF
FFFFFFFFFFFF
FFFFFFFFFFFF
FFFFFFFFFFFF
FFFFFFFFFFFF
FFFFFFFFFFFF
FFFFFFFFFFFF
FFFFFFFFFFFF
FFFFFFFFFFFE
7FFFFFFFFFFE
7FFFFFFFFFFE
7FFFFFFFFFFE
3FFFFFFFFFFC
3FFFFFFFFFFC
1FFFFFFFFFF8
1FFFFFFFFFF8
0FFFFFFFFFF0
0FFFFFFFFFE0
07FFFFFFFFE0
03FFFFFFFFC0
01FFFFFFFF80
00FFFFFFFF00
007FFFFFFC00
001FFFFFF800
0007FFFFE000
0001FFFF8000
00001FF80000
ENDCHAR
STARTCHAR 2776
ENCODING 10102
SWIDTH 960 0
DWIDTH 48 0
BBX 48 46 0 -5
BITMAP
00001FF80000
0001FFFF0000
0007FFFFE000
001FFFFFF800
003FFFFFFC00
00FFFFFFFE00
01FFFFFFFF80
03FFFFFFFFC0
07FFFFFFFFC0
0FFFFFFFFFE0
0FFFFFFFFFF0
1FFFFFFFFFF8
1FFFFE0FFFF8
3FFFFC0FFFFC
3FFFFC0FFFFC
7FFFF00FFFFC
7FFF800FFFFE
7FFF800FFFFE
FFFF800FFFFE
FFFF800FFFFF
FFFFFC0FFFFF
FFFFFC0FFFFF
FFFFFC0FFFFF
FFFFFC0FFFFF
FFFFFC0FFFFF
FFFFFC0FFFFF
FFFFFC0FFFFF
FFFFFC0FFFFE
7FFFFC0FFFFE
7FFFFC0FFFFE
7FFFFC0FFFFE
3FFFFC0FFFFC
3FFFFC0FFFFC
1FFFFC0FFFF8
1FFFFFFFFFF8
0FFFFFFFFFF0
0FFFFFFFFFE0
07FFFFFFFFE0
03FFFFFFFFC0
01FFFFFFFF80
00FFFFFFFF00
003FFFFFFC00
001FFFFFF800
0007FFFFE000
0001FFFF0000
00001FF80000
ENDCHAR
STARTCHAR 2777
ENCODING 10103
SWIDTH 960 0
DWIDTH 48 0
BBX 48 46 0 -5
BITMAP
00001FF80000
0001FFFF0000
0007FFFFE000
001FFFFFF800
007FFFFFFC00
00FFFFFFFE00
01FFFFFFFF80
03FFFFFFFFC0
07FFFFFFFFE0
0FFFFFFFFFE0
0FFFFE7FFFF0
1FFFE007FFF8
1FFFC001FFF8
3FFF8000FFFC
3FFF8000FFFC
7FFF03C07FFC
7FFF07E07FFE
7FFF07E07FFE
FFFFFFE07FFE
FFFFFFC0FFFE
FFFFFF80FFFF
FFFFFE01FFFF
FFFFF803FFFF
FFFFE007FFFF
FFFFC00FFFFF
FFFF803FFFFF
FFFF80FFFFFF
FFFF03FFFFFE
7FFF03FFFFFE
7FFE00007FFE
7FFE00007FFE
3FFE00007FFC
3FFE00007FFC
3FFE00007FF8
1FFFFFFFFFF8
0FFFFFFFFFF0
0FFFFFFFFFF0
07FFFFFFFFE0
03FFFFFFFFC0
01FFFFFFFF80
00FFFFFFFF00
007FFFFFFC00
001FFFFFF800
0007FFFFE000
0001FFFF8000
00001FF80000
ENDCHAR
STARTCHAR 2778
ENCODING 10104
SWIDTH 960 0
DWIDTH 48 0
BBX 48 46 0 -5
BITMAP
00001FF80000
0001FFFF0000
0007FFFFE000
001FFFFFF800
003FFFFFFC00
00FFFFFFFE00
01FFFFFFFF80
03FFFFFFFFC0
07FFFFFFFFC0
07FFFFFFFFE0
0FFFFFFFFFF0
1FFFFFFFFFF8
1FFFE007FFF8
3FFFC001FFFC
3FFF8001FFFC
7FFF0000FFFC
7FFF03C0FFFE
7FFE07E0FFFE
FFFE07E0FFFE
FFFFFFE0FFFE
FFFFFFC0FFFF
FFFFFC01FFFF
FFFFFC03FFFF
FFFFFC01FFFF
FFFFFC00FFFF
FFFFFFC07FFF
FFFFFFE07FFF
FFFE0FE07FFE
7FFE0FE07FFE
7FFE07E07FFE
7FFE00007FFE
7FFF0000FFFC
3FFF8001FFFC
3FFFC003FFF8
1FFFF00FFFF8
1FFFFFFFFFF0
0FFFFFFFFFF0
07FFFFFFFFE0
03FFFFFFFFC0
01FFFFFFFF80
00FFFFFFFF00
007FFFFFFE00
003FFFFFF800
000FFFFFF000
0003FFFFC000
00007FFE0000
ENDCHAR
STARTCHAR 2779
ENCODING 10105
SWIDTH 960 0
DWIDTH 48 0
BBX 48 46 0 -5
BITMAP
00001FF80000
0001FFFF0000
0007FFFFE000
001FFFFFF800
003FFFFFFC00
00FFFFFFFE00
01FFFFFFFF80
03FFFFFFFFC0
07FFFFFFFFC0
07FFFFFFFFE0
0FFFFFFFFFF0
1FFFFFFFFFF8
1FFFFE03FFF8
3FFFFE03FFFC
3FFFFC03FFFC
7FFFF803FFFC
7FFFF003FFFE
7FFFE003FFFE
FFFFC103FFFE
FFFF8303FFFE
FFFF8303FFFF
FFFF0703FFFF
FFFE0F03FFFF
FFFC1F03FFFF
FFFC3F03FFFF
FFFC0000FFFF
FFFC0000FFFF
FFFC0000FFFE
7FFC0000FFFE
7FFC0000FFFE
7FFFFF03FFFE
3FFFFF03FFFC
3FFFFF03FFFC
1FFFFF03FFF8
1FFFFFFFFFF8
0FFFFFFFFFF0
0FFFFFFFFFE0
07FFFFFFFFE0
03FFFFFFFFC0
01FFFFFFFF80
00FFFFFFFF00
003FFFFFFC00
001FFFFFF800
0007FFFFE000
0001FFFF8000
00001FF80000
ENDCHAR
STARTCHAR 277A
ENCODING 10106
SWIDTH 960 0
DWIDTH 48 0
BBX 48 46 0 -5
BITMAP
00001FF80000
0001FFFF0000
0007FFFFE000
001FFFFFF800
003FFFFFFC00
00FFFFFFFE00
01FFFFFFFF80
03FFFFFFFFC0
07FFFFFFFFC0
07FFFFFFFFE0
0FFFFFFFFFF0
1FFFFFFFFFF8
1FFFC000FFF8
3FFF8000FFFC
3FFF8000FFFC
7FFF8000FFFC
7FFF8000FFFE
7FFF83FFFFFE
FFFF83FFFFFE
FFFF03FFFFFE
FFFF040FFFFF
FFFF0003FFFF
FFFF0001FFFF
FFFF0000FFFF
FFFF03C0FFFF
FFFE07E07FFF
FFFFFFE07FFF
FFFFFFF07FFE
7FFE0FE07FFE
7FFE07E07FFE
7FFF03C0FFFE
7FFF0000FFFC
3FFF8001FFFC
3FFFC003FFF8
1FFFE00FFFF8
0FFFFFFFFFF0
0FFFFFFFFFF0
07FFFFFFFFE0
03FFFFFFFFC0
01FFFFFFFF80
00FFFFFFFF00
007FFFFFFC00
001FFFFFF800
0007FFFFE000
0001FFFF8000
00001FF80000
ENDCHAR
STARTCHAR 277B
ENCODING 10107
SWIDTH 960 0
DWIDTH 48 0
BBX 48 46 0 -5
BITMAP
00001FF80000
0001FFFF0000
0007FFFFE000
001FFFFFF000
003FFFFFFC00
00FFFFFFFE00
01FFFFFFFF00
03FFFFFFFF80
07FFFFFFFFC0
07FFFFFFFFE0
0FFFFFFFFFF0
1FFFFFFFFFF0
1FFFF00FFFF8
3FFFC003FFFC
3FFF8001FFFC
7FFF8000FFFC
7FFF03C0FFFE
7FFE07E0FFFE
7FFE0FFFFFFE
FFFE0FFFFFFE
FFFE0C0FFFFF
FFFE0003FFFF
FFFE0001FFFF
FFFE0000FFFF
FFFE03C0FFFF
FFFE07E07FFF
FFFE0FE07FFF
FFFE0FE07FFE
7FFE07E07FFE
7FFE07E0FFFE
7FFF0180FFFE
7FFF0001FFFC
3FFF8001FFFC
3FFFE007FFF8
1FFFF81FFFF8
0FFFFFFFFFF0
0FFFFFFFFFF0
07FFFFFFFFE0
03FFFFFFFFC0
01FFFFFFFF80
00FFFFFFFF00
007FFFFFFC00
001FFFFFF800
0007FFFFE000
0001FFFF8000
00001FF80000
ENDCHAR
STARTCHAR 277C
ENCODING 10108
SWIDTH 960 0
DWIDTH 48 0
BBX 48 46 0 -5
BITMAP
00001FF80000
0001FFFF0000
0007FFFFE000
001FFFFFF800
007FFFFFFC00
00FFFFFFFF00
01FFFFFFFF80
03FFFFFFFFC0
07FFFFFFFFE0
0FFFFFFFFFE0
0FFFFFFFFFF0
1FFFFFFFFFF8
1FFF0000FFF8
3FFF0000FFFC
3FFF0000FFFC
7FFF0000FFFE
7FFF0000FFFE
7FFFFFC1FFFE
FFFFFF81FFFE
FFFFFF83FFFF
FFFFFF07FFFF
FFFFFE0FFFFF
FFFFFE0FFFFF
FFFFFC1FFFFF
FFFFFC1FFFFF
FFFFF81FFFFF
FFFFF83FFFFF
FFFFF83FFFFE
7FFFF03FFFFE
7FFFF03FFFFE
7FFFF03FFFFE
3FFFF03FFFFC
3FFFE03FFFFC
3FFFE07FFFF8
1FFFE07FFFF8
0FFFFFFFFFF0
0FFFFFFFFFE0
07FFFFFFFFE0
03FFFFFFFFC0
01FFFFFFFF80
00FFFFFFFF00
007FFFFFFC00
001FFFFFF800
0007FFFFE000
0001FFFF8000
00001FF80000
ENDCHAR
STARTCHAR 277D
ENCODING 10109
SWIDTH 960 0
DWIDTH 48 0
BBX 48 46 0 -5
BITMAP
00001FF80000
0001FFFF8000
0007FFFFE000
001FFFFFF800
007FFFFFFC00
00FFFFFFFF00
01FFFFFFFF80
03FFFFFFFFC0
07FFFFFFFFE0
0FFFFFFFFFE0
0FFFFFFFFFF0
1FFFF00FFFF8
1FFFC003FFF8
3FFF8001FFFC
3FFF0001FFFC
7FFF03C0FFFC
7FFF07E0FFFE
7FFF07E0FFFE
FFFF07E0FFFE
FFFF07E0FFFE
FFFF03C0FFFF
FFFF8001FFFF
FFFFC003FFFF
FFFF8001FFFF
FFFF0000FFFF
FFFE07E07FFF
FFFE0FE07FFF
FFFE0FF07FFE
7FFE0FF07FFE
7FFE07E07FFE
7FFE01807FFE
3FFF0000FFFC
3FFF0001FFFC
3FFFC003FFF8
1FFFF00FFFF8
0FFFFFFFFFF0
0FFFFFFFFFF0
07FFFFFFFFE0
03FFFFFFFFC0
01FFFFFFFF80
00FFFFFFFF00
007FFFFFFC00
001FFFFFF800
0007FFFFE000
0001FFFF8000
00001FF80000
ENDCHAR
STARTCHAR 277E
ENCODING 10110
SWIDTH 960 0
DWIDTH 48 0
BBX 48 46 0 -5
BITMAP
00001FF80000
0001FFFF0000
0007FFFFE000
001FFFFFF800
003FFFFFFC00
00FFFFFFFE00
01FFFFFFFF80
03FFFFFFFFC0
07FFFFFFFFC0
0FFFFFFFFFE0
0FFFFFFFFFF0
1FFFFC7FFFF8
1FFFE007FFF8
3FFFC003FFFC
3FFF8001FFFC
7FFF0000FFFC
7FFF03C07FFE
7FFE07E07FFE
FFFE07E07FFE
FFFE07E07FFE
FFFE07E07FFF
FFFE07E03FFF
FFFF00003FFF
FFFF00003FFF
FFFF80003FFF
FFFFC0007FFF
FFFFF0307FFF
FFFFFFF07FFE
7FFE07E07FFE
7FFF03E07FFE
7FFF0000FFFE
3FFF0001FFFC
3FFF8001FFFC
3FFFC007FFF8
1FFFF01FFFF8
0FFFFFFFFFF0
0FFFFFFFFFE0
07FFFFFFFFE0
03FFFFFFFFC0
01FFFFFFFF80
00FFFFFFFF00
007FFFFFFC00
001FFFFFF800
0007FFFFE000
0001FFFF8000
00001FF80000
ENDCHAR
ENDFONT
